<?xml version="1.0" standalone="no"?>
<!DOCTYPE svg PUBLIC "-//W3C//DTD SVG 1.1//EN" "http://www.w3.org/Graphics/SVG/1.1/DTD/svg11.dtd" >
<svg xmlns="http://www.w3.org/2000/svg" xmlns:xlink="http://www.w3.org/1999/xlink" version="1.1">
<metadata></metadata>
<defs>
<font id="ravenscroftregular" horiz-adv-x="532" >
<font-face units-per-em="2048" ascent="1638" descent="-410" />
<missing-glyph horiz-adv-x="395" />
<glyph horiz-adv-x="0" />
<glyph unicode="&#xd;" horiz-adv-x="1024" />
<glyph unicode=" "  horiz-adv-x="395" />
<glyph unicode="&#x09;" horiz-adv-x="395" />
<glyph unicode="&#xa0;" horiz-adv-x="395" />
<glyph unicode="!" horiz-adv-x="352" d="M74 1217q0 -27 2 -65t4 -87l59 -629q14 -170 37 -190q2 -4 7 -7t7 -3q39 0 52 223l37 645v86q-1 264 -103 264t-102 -237zM106 70q0 -47 27 -72q20 -18 45 -18q33 0 55 20q14 16 22.5 32.5t8.5 41.5q0 55 -26 73q-21 23 -50 23q-33 0 -53 -23q-12 -16 -20.5 -33.5 t-8.5 -43.5z" />
<glyph unicode="&#x22;" horiz-adv-x="276" d="M37 1331q0 -2 1 -34.5t5 -104.5l25 -311h16l27 315q4 51 5 85t1 44q0 109 -43 109q-23 0 -30 -26t-7 -77zM152 1331q0 -2 1 -34.5t7 -104.5l22 -311h21l22 315q4 51 6 85t2 44q0 109 -43 109q-39 0 -38 -103z" />
<glyph unicode="#" horiz-adv-x="870" d="M53 494h137l-71 -379h112l74 379h121l-74 -379h111l76 383h141l31 168h-138l43 221h142l33 172h-142l74 375h-111l-73 -375h-123l71 375h-108l-80 -375h-139l-27 -172h133l-43 -221h-141zM340 666l45 221h117l-43 -221h-119z" />
<glyph unicode="$" horiz-adv-x="559" d="M51 1118q0 -178 25 -235q14 -55 108 -133l43 -31q25 -20 41.5 -34.5t26.5 -25.5q33 -37 47 -84q0 -16 2 -40.5t2 -53.5v-223q0 -43 -2 -70.5t-2 -37.5q-12 -49 -51 -50q-37 0 -45 37q-6 16 -9.5 36t-3.5 54v320l-176 141v-381q0 -100 8.5 -166.5t28.5 -103.5 q45 -70 154 -76v-106h69v110q43 0 75 12.5t59 36.5q59 61 59 240v330q0 39 -1 64.5t-5 43.5q-12 49 -55 86q-10 6 -28 19.5t-46 29.5q-41 27 -63.5 42.5t-28.5 23.5q-51 49 -52 133v176q0 29 2.5 50.5t6.5 33.5q12 33 49 33q41 0 45 -49q6 -12 7 -37t1 -72v-135l168 -152 v293q0 164 -41 228q-53 76 -156 75v111h-67v-111q-84 -8 -129 -57q-41 -35 -54 -80q-12 -43 -12 -121v-94z" />
<glyph unicode="%" horiz-adv-x="819" d="M39 692q0 -49 9 -79.5t28 -51.5q35 -37 98 -37q55 0 98 39q33 31 33 125v578q0 96 -33 127q-23 18 -46 29.5t-52 11.5q-31 0 -56.5 -10.5t-41.5 -26.5q-37 -35 -37 -131v-574zM137 688v582q0 70 33 69q33 1 33 -65v-590q0 -66 -33 -66t-33 70zM315 0h43l121 1434h-43z M504 160q0 -43 10 -73t27 -46q41 -41 98 -41q63 0 98 41q33 37 33 131v567q0 102 -33 133q-41 37 -98 37q-61 0 -98 -36.5t-37 -122.5v-590zM606 160v594q0 61 33 61q29 1 29 -65v-586q0 -70 -29 -70q-33 0 -33 66z" />
<glyph unicode="&#x26;" horiz-adv-x="643" d="M61 256q0 -47 3.5 -76.5t7.5 -42.5q10 -35 53 -71q51 -45 129 -46q147 0 242 142l86 -162v266q-18 41 -37 80t-35 74v436l-133 -188l-35 73l25 39q20 31 35.5 52.5t25.5 37.5q35 49 43 70q14 35 14 94v203q0 102 -67 158q-45 39 -135 39q-113 0 -158 -56 q-16 -20 -27.5 -40.5t-15.5 -43t-5 -48t-1 -60.5v-203q0 -27 7 -51.5t17 -46.5l76 -148l-12 -30q-12 -31 -28.5 -57.5t-35.5 -51.5q-10 -12 -15 -22.5t-9 -16.5q-14 -29 -15 -143v-160zM225 260v264q0 33 6 51l19 33l108 -207v-59q0 -41 -1 -69.5t-5 -45.5q-16 -49 -57 -49 q-12 0 -21.5 5t-15.5 10q-14 12 -23.5 28.5t-9.5 38.5zM229 1034v144q0 29 1 50t6 32q14 31 47 30q33 0 41 -35q4 -14 5 -33t1 -46v-168q0 -55 -21 -95q-10 -16 -19 -30.5t-16 -22.5q-18 29 -26 49.5t-12 34.5q-2 14 -4.5 34.5t-2.5 55.5z" />
<glyph unicode="'" horiz-adv-x="161" d="M41 1331q0 -2 1 -34.5t5 -104.5l25 -311h16l27 315q4 51 5 85t1 44q0 109 -43 109q-23 0 -30 -26t-7 -77z" />
<glyph unicode="(" horiz-adv-x="360" d="M29 723q0 -236 75 -420q57 -150 187 -303l31 35q-41 76 -71 152.5t-46 156.5q-23 80 -32 171t-9 196q0 98 9 192t30 182q20 96 50 176t64 146l-20 27q-106 -88 -186 -289q-82 -207 -82 -422z" />
<glyph unicode=")" horiz-adv-x="376" d="M45 35l31 -35q129 154 186 303q76 184 76 420q0 215 -82 422q-41 100 -87 172t-103 117l-17 -27q35 -66 64.5 -145.5t52.5 -176.5q37 -176 37 -374q0 -102 -9.5 -194.5t-30 -172.5t-49 -156.5t-69.5 -152.5z" />
<glyph unicode="*" horiz-adv-x="477" d="M57 1202q0 -8 12.5 -20.5t47.5 -34.5q20 -16 37.5 -24.5t25.5 -16.5l-63 -39q-55 -33 -56 -47q0 -18 17 -88q25 -63 33 -64q10 0 49 64l47 82l-12 -109q-2 -29 -2 -57v-45q0 -14 4 -21h36q61 0 66 6v11q0 16 -3 40.5t-7 65.5q-10 53 -13 81l-4 28q12 -20 24.5 -40 t29.5 -42q39 -70 49 -70q4 0 11 19.5t15 50.5q12 37 19.5 60.5t7.5 31.5l-3 5t-7 5q-37 25 -64.5 44.5t-48.5 27.5q16 8 31.5 19.5t38.5 21.5q53 41 53 55q0 4 -27 80q-16 70 -26 70q-4 0 -18.5 -18.5t-30.5 -51.5l-54 -86q4 10 5.5 37t7.5 72q4 33 7 59.5t3 48.5 q0 10 -6 10q0 4 -14.5 7.5t-34.5 3.5q-37 -1 -47 -11v-10q0 -23 2 -48.5t2 -59.5q16 -94 16 -103q-12 16 -24.5 34.5t-24.5 41.5q-25 29 -36 44l-11 15q-10 0 -17.5 -13t-17.5 -36q-6 -12 -12.5 -33.5t-9.5 -36t-3 -16.5z" />
<glyph unicode="+" horiz-adv-x="512" d="M59 651h144v-266h108v266h146v189h-146v262h-106v-262h-146v-189z" />
<glyph unicode="," horiz-adv-x="260" d="M31 -219l6 -37q92 31 149 147q39 84 39 170q0 35 -5 68t-17 57q-23 41 -66 41q-16 0 -31.5 -6t-25.5 -16q-12 -18 -19.5 -41t-7.5 -55v-15q0 -6 4 -10q10 -43 33 -64q10 -6 19.5 -9t19.5 -7q18 -12 18 -47q0 -82 -116 -176z" />
<glyph unicode="-" d="M0 664v122h532v-122h-532z" />
<glyph unicode="." horiz-adv-x="194" d="M29 102q0 -29 7 -50t17 -40q20 -37 47 -37q29 0 49.5 37t20.5 90q0 47 -20 86q-23 37 -50 37t-47 -37q-12 -23 -18 -42t-6 -44z" />
<glyph unicode="/" horiz-adv-x="378" d="M78 -82h51l176 1577h-51z" />
<glyph unicode="0" horiz-adv-x="487" d="M35 260v918q0 37 2 65.5t4 50.5q10 29 21.5 49.5t29.5 36.5q59 53 152 54q100 0 157 -58q49 -53 50 -202v-910q0 -152 -50 -203q-59 -61 -153 -61t-156 57q-33 33 -47 84q-10 47 -10 119zM195 266q0 -29 1 -50t7 -34q10 -37 41 -37q33 0 43 43q12 27 12 93v876 q0 63 -12 94q-10 41 -43 41q-31 0 -41 -32q-6 -14 -7 -36t-1 -50v-908z" />
<glyph unicode="1" horiz-adv-x="344" d="M10 1294q162 74 254 140v-1223q0 -47 3 -77t7 -48q12 -41 52 -86h-287q23 23 34 43t19 43q6 16 8 47t2 78v870q0 74 -6 105q-6 23 -14 41t-25 35q-16 18 -47 32z" />
<glyph unicode="2" horiz-adv-x="507" d="M33 922v227q0 109 14 158q14 66 66 94q57 33 139 33q100 0 151 -52q39 -39 48 -86q6 -18 8 -47.5t2 -70.5v-201q0 -82 -6 -109q-6 -45 -70 -112l-100 -107q-27 -31 -43.5 -50t-22.5 -30q-4 -16 -9 -48t-5 -79v-286h102v262l166 80v-498h-432v436q0 147 20 195 q14 35 99 119l43 49q12 10 25.5 23.5l27.5 27.5q37 47 43 72q4 10 4 28v47v127q0 35 -2 59.5t-6 41.5q-10 43 -43 43q-35 0 -47 -43q-6 -29 -6 -101v-131z" />
<glyph unicode="3" horiz-adv-x="491" d="M33 276v267l164 -99v-135q0 -74 6 -100q12 -45 47 -45q31 0 41 41q6 14 7 36.5t1 57.5v190q0 61 -2 96.5t-6 49.5q-14 33 -70 33h-57v174q102 0 121 24q14 20 14 99v159q0 39 -1 62.5t-7 38.5q-2 23 -13.5 34t-27.5 11q-35 0 -47 -45q-6 -23 -6 -101v-127l-164 -67v223 q0 168 49 223q57 57 170 58q96 0 145 -50q39 -35 52 -86q2 -23 4 -51t2 -69v-263q0 -137 -82 -165q57 -18 71 -54q10 -37 11 -139v-305q0 -37 -2 -65.5t-4 -47.5q-12 -55 -52 -86q-47 -53 -147 -53q-113 0 -168 57q-49 55 -49 219z" />
<glyph unicode="4" horiz-adv-x="575" d="M10 397v125l191 729q25 98 24 127q0 35 -14 56h248q-23 -16 -38 -33t-24 -33q-6 -10 -16 -37.5t-21 -70.5l-176 -644l101 -18v164l164 629v-797q10 -4 18 -7t18 -3q33 0 72 51v-111q0 -76 -14 -98q-14 -14 -62 -14q-23 0 -32 4v-223q0 -39 2 -66t4 -43q14 -43 45 -84 h-275q33 43 43 80q12 39 13 110v230q-109 23 -140 22q-86 0 -131 -45z" />
<glyph unicode="5" d="M27 1434h469v-457q-68 78 -160 78v245h-105v-385q96 0 153.5 -19t82.5 -56q12 -29 20.5 -70t8.5 -100v-414q0 -39 -2 -67.5t-7 -47.5q-16 -57 -49 -88q-49 -53 -151 -53q-115 0 -170 57q-51 57 -51 224v270l165 -115v-147q0 -61 13 -88q10 -35 43 -35q16 0 27.5 12 t15.5 35q4 14 5 37.5t1 62.5v318q0 66 -10 96q-8 10 -31 18.5t-64 8.5v-133l-172 120v580q0 20 -2 35.5t-6 25.5q-2 10 -8 21.5t-16 30.5z" />
<glyph unicode="6" horiz-adv-x="489" d="M35 260v918q0 70 10 116q12 53 47 86q59 53 152 54q100 0 157 -58q53 -53 54 -202v-170q-43 29 -81 44t-75 15v86q0 35 -2 58.5t-6 37.5q-8 47 -47 47q-31 0 -41 -37q-12 -29 -13 -88v-254h76q123 0 160 -73q29 -51 29 -160v-414q0 -152 -54 -205q-59 -61 -153 -61 t-156 57q-35 39 -47 84q-10 47 -10 119zM190 266q0 -59 13 -84q10 -37 41 -37q37 0 47 48q4 12 6 37.5t2 60.5v327q0 88 -23 111q-14 14 -67 14h-19v-477z" />
<glyph unicode="7" horiz-adv-x="491" d="M27 1178v256h438l14 -158q-55 -100 -92 -199.5t-59 -197.5q-20 -86 -31.5 -183.5t-13.5 -210.5q-4 -39 -4 -159v-326h-179v350q0 389 156 799l55 145h-143q-53 0 -80 -20q-35 -31 -61 -96z" />
<glyph unicode="8" horiz-adv-x="485" d="M35 260v373q0 88 14 119q16 33 60 53q-45 20 -60 53q-14 23 -14 117v203q0 76 10 116q12 57 47 86q59 53 152 54q100 0 157 -58q49 -53 50 -202v-203q0 -45 -3.5 -73t-7.5 -44q-8 -16 -23.5 -27.5t-37.5 -21.5q23 -14 38 -27.5t23 -29.5q10 -31 11 -115v-369 q0 -152 -50 -203q-59 -61 -153 -61t-156 57q-33 33 -47 84q-10 47 -10 119zM190 274q0 -70 13 -90q10 -39 41 -39t47 43q4 14 4 37v56v313v55q0 25 -4 37q-14 39 -47 39t-41 -35q-12 -29 -13 -88v-328zM190 995q0 -61 13 -88q8 -35 41 -35q31 0 47 39q4 12 4 37v60v149v55 q0 23 -4 39q-16 41 -47 41t-41 -37q-12 -29 -13 -88v-172z" />
<glyph unicode="9" horiz-adv-x="489" d="M33 260v174l155 -63v-82q0 -35 2.5 -60.5t6.5 -40.5q10 -47 45 -47q33 0 43 37q6 14 7 34.5t1 51.5v258h-72q-123 0 -160 76q-29 45 -28 160v416q0 152 53 198q55 61 154 62q98 0 155 -58q35 -31 47 -84q10 -47 11 -118v-914q0 -41 -3.5 -69.5t-7.5 -49.5 q-12 -53 -47 -84q-57 -57 -153 -57q-98 0 -156 57q-53 53 -53 203zM188 821q0 -45 5.5 -72.5t13.5 -37.5q14 -20 67 -21h19v492q0 106 -51 106q-16 0 -28.5 -11t-16.5 -36q-4 -12 -6.5 -36.5t-2.5 -61.5v-322z" />
<glyph unicode=":" horiz-adv-x="223" d="M41 102q0 -29 7 -50t18 -40q20 -37 47 -37q29 0 49 37t20 90q0 47 -20 86q-23 37 -49 37q-27 0 -47 -37q-12 -23 -18.5 -42t-6.5 -44zM41 879q0 -29 7 -50.5t18 -40.5q20 -37 47 -36q29 0 49 36.5t20 90.5q0 47 -20 86q-23 37 -49 36q-27 0 -47 -36q-12 -23 -18.5 -42 t-6.5 -44z" />
<glyph unicode=";" horiz-adv-x="256" d="M20 -248l7 -37q92 31 149 148q39 84 39 170q0 35 -5 67.5t-17 57.5q-23 41 -66 41q-16 0 -31.5 -6.5t-25.5 -16.5q-12 -18 -19.5 -40.5t-7.5 -55.5v-14q0 -6 4 -11q10 -43 33 -63q10 -6 19.5 -9t19.5 -8q18 -12 18 -47q0 -82 -117 -176zM43 852q0 -35 8 -60.5t23 -48.5 q12 -23 24.5 -33t32.5 -10q16 0 30.5 9.5t28.5 33.5q10 20 17.5 47t7.5 62q0 29 -5 54.5t-20 49.5q-29 45 -59 45q-20 0 -32.5 -12t-24.5 -33q-16 -27 -23.5 -51t-7.5 -53z" />
<glyph unicode="&#x3c;" horiz-adv-x="587" d="M0 -219q16 4 28.5 5t24.5 9q10 4 21.5 17.5t25.5 33.5q33 41 51.5 66t28.5 29q45 45 88 59q-27 70 -26 135v508h108v-534q0 -82 -18 -109h227q-16 23 -23.5 41t-15.5 31q-8 25 -8 86v1120q0 27 2 49.5t6 36.5q8 14 15.5 30.5t23.5 39.5h-227q10 -23 14 -47.5t4 -55.5 v-514h-108v508q0 51 20 109h-225q27 -39 37 -70q2 -14 5 -35.5t3 -50.5v-1176q0 -59 -5 -102t-9 -78q-10 -31 -25.5 -65.5t-42.5 -75.5z" />
<glyph unicode="=" horiz-adv-x="960" d="M86 543v123h780v-123h-780zM86 784v123h780v-123h-780z" />
<glyph unicode="&#x3e;" horiz-adv-x="819" d="M0 -221q53 6 88 41q10 10 25.5 33.5t44.5 62.5q47 61 114 84q-12 20 -20 35.5t-10 25.5q-8 27 -9 72v1028q0 63 9 88q14 33 43 33q33 0 45 -39q2 -12 3 -36.5t1 -59.5v-1247q0 -33 -1 -54.5t-3 -33.5q-4 -8 -25.5 -18.5t-38.5 -20.5q66 -61 96.5 -145.5t53.5 -162.5 q23 76 51.5 156t89.5 152q-12 12 -32.5 25.5t-26.5 21.5q-2 16 -5.5 35.5t-3.5 44.5v1255q0 33 1.5 54.5t7.5 35.5q4 37 43 37q29 0 41 -39q6 -25 6 -96v-997q0 -27 -1 -48.5t-1 -35.5q-4 -4 -8.5 -12.5t-10.5 -14.5l-16 -39h242l-23 39q-6 6 -9 14t-7 13q-2 16 -4 40.5 t-2 53.5v1097q0 35 2 60.5t4 40.5q12 31 45 76h-332l-66 -91l-67 91h-320q23 -29 35 -48.5t19 -35.5q8 -18 8 -107v-1124q0 -59 -5 -106.5t-12 -80.5q-10 -35 -23 -73.5t-36 -79.5z" />
<glyph unicode="?" horiz-adv-x="595" d="M74 973l170 74v100q0 74 6 108q14 51 47 52q16 0 28.5 -8.5t16.5 -28.5q8 -14 9 -37t1 -55v-76q0 -109 -14 -152q-10 -61 -59 -104l-15 -21q-23 -25 -39 -38t-16 -19q-16 -16 -25.5 -33.5t-15.5 -34.5q-4 -16 -5 -39.5t-1 -56.5q0 -43 1 -90t5 -106q12 -143 35 -166 q8 -10 20 -11q20 0 35.5 30t20.5 91l14 180q4 41 13 71t20 48q8 12 22 28.5t41 37.5q23 16 38 32.5t30 32.5q18 23 33.5 51.5t23.5 63.5q10 57 10 150v149q0 41 -2 68.5t-4 48.5q-10 25 -21.5 46t-33.5 38q-51 59 -170 59q-55 0 -94 -11t-64 -40q-61 -68 -61 -270v-162z M162 78q0 -57 24 -76q18 -25 50 -25q25 0 47 19q31 31 30 82q0 47 -24 69q-22 23 -45 23q-33 0 -56 -23q-27 -20 -26 -69z" />
<glyph unicode="@" horiz-adv-x="890" d="M84 254q0 -41 6 -71.5t14 -53.5q10 -27 30 -47.5t48 -36.5q104 -61 264 -61q78 0 138.5 15t111.5 46q16 12 35 29.5t33 38.5l-23 57q-16 -16 -55 -41t-70 -35q-25 -8 -70.5 -13t-103.5 -5q-35 0 -79 7t-83.5 25.5t-66.5 49t-27 78.5v972q0 90 69 123t191 33 q45 0 89.5 -11.5t78 -33t54 -52t20.5 -69.5v-784q0 -23 -17.5 -37.5t-39.5 -14.5q-20 0 -38 12.5t-20 33.5v573q0 31 -2 52.5t-6 37.5q-2 18 -10 32.5t-20 29.5q-43 45 -111 45q-72 0 -105 -43q-29 -31 -36 -72q-4 -16 -5.5 -40t-1.5 -52v-195q29 35 57.5 57.5t59.5 38.5 v136q0 53 33 53q29 0 29 -31v-131q-2 -23 -7.5 -45.5t-21.5 -36.5q-4 -6 -16.5 -15t-30.5 -26q-23 -16 -36 -28.5t-24 -20.5q-12 -16 -20 -29.5t-14 -31.5q-2 -10 -2 -86v-150q0 -43 1 -72.5t5 -46t10 -29t20 -20.5q8 -6 46 -6h133q10 0 17 7t11 16q6 -10 10.5 -16.5 t18.5 -6.5h76q55 0 88 14.5t55 53.5q12 20 14.5 42.5t2.5 51.5v780q0 133 -90.5 196.5t-254.5 63.5q-74 0 -139 -10t-114.5 -39t-79 -81t-29.5 -134v-940zM393 391v223q0 27 25 45q4 4 13 11.5t24 23.5v-321q-25 0 -41.5 4t-20.5 14z" />
<glyph unicode="A" horiz-adv-x="565" d="M6 -193q25 4 47.5 20.5t46.5 35.5q2 2 22.5 25.5t61.5 66.5q20 31 70 57q-14 12 -23 39q-2 10 -2 23v32v256l105 54v-248v-55q0 -23 -2 -39q-6 -16 -14.5 -36t-18.5 -38h244q-29 39 -33 66q-8 16 -10 37.5t-2 48.5v1142q0 25 2 45.5t10 36.5q2 17 33 58h-271 q-129 0 -176 -80q-33 -66 -33 -246v-1032q0 -139 -57 -269zM229 530v656q0 100 39 100h66v-702z" />
<glyph unicode="B" horiz-adv-x="538" d="M29 0h276q135 0 172 66q27 41 27 153v277q0 70 -5 114.5t-12 65.5q-20 49 -94 61q47 14 78 62q25 43 25 143v188q0 160 -29 216q-27 57 -117 79q-16 4 -50 6.5t-79 2.5h-192q43 -43 43 -140v-1108q0 -41 -1 -68.5t-1 -41.5q-6 -18 -15.5 -38t-25.5 -38zM240 145v512h41 q51 0 51 -65v-373q0 -74 -51 -74h-41zM240 821v449h41q51 0 51 -70v-307q0 -72 -51 -72h-41z" />
<glyph unicode="C" horiz-adv-x="503" d="M35 248q0 -41 4 -72t8 -51q14 -57 47 -86q31 -31 71 -45t85 -14q104 0 164 59q53 53 53 213v375l-160 -72v-276q0 -39 -2 -64t-6 -37q-8 -49 -49 -49q-33 0 -41 39q-12 25 -12 90v924q0 61 12 90q8 37 41 37q41 0 49 -47q4 -16 6 -40t2 -61v-289q76 61 160 62v254 q0 80 -13.5 130t-39.5 77q-66 59 -166 59q-90 0 -154 -53q-18 -16 -29.5 -40t-17.5 -50q-4 -23 -8 -52.5t-4 -70.5v-940z" />
<glyph unicode="D" horiz-adv-x="540" d="M27 0h233h49q23 0 39 4q53 6 80 21q47 31 61 92q6 31 10.5 82t4.5 127v852q0 141 -29 186q-16 35 -53 52.5t-88 17.5h-307q18 -18 29.5 -36t13.5 -34q6 -16 7 -42t1 -67v-1081q0 -37 -1 -63.5t-7 -40.5q-2 -29 -43 -70zM236 150v1142h65q43 0 43 -100v-944q0 -98 -43 -98 h-65z" />
<glyph unicode="E" d="M27 0h485v244q-14 -41 -33.5 -60.5t-54.5 -19.5h-184v500h94q39 0 65 -15q14 -8 26.5 -26.5t25.5 -42.5v346q-14 -27 -28.5 -47.5t-35.5 -28.5q-10 -8 -28.5 -9t-43.5 -1h-75v434h145q49 0 80 -26.5t47 -80.5v267h-485q16 -18 25 -35t16 -31q10 -31 10 -94v-1110 q0 -68 -10 -98q-6 -16 -15.5 -33t-25.5 -33z" />
<glyph unicode="F" horiz-adv-x="540" d="M27 0h276q-35 35 -47 70q-6 27 -6 104v490h135q66 0 109 -84v346q-14 -29 -32 -49.5t-34 -30.5q-14 -4 -33.5 -5t-50.5 -1h-94v434h137q57 0 82 -19q35 -20 57 -96v275h-499q18 -18 29.5 -36t13.5 -34q6 -16 9 -42t3 -67v-1081q0 -78 -12 -104q-2 -29 -43 -70z" />
<glyph unicode="G" horiz-adv-x="495" d="M35 219q0 -27 4 -43q6 -57 29 -96q41 -80 182 -80h209v795l-228 -101v-174l70 27v-404h-53q-18 0 -23 4q-32 14 -32 103v6v905q0 66 10 90q12 35 45 35q35 0 45 -43q4 -14 6 -38.5t2 -61.5v-238q41 33 80 47.5t78 18.5v200q0 147 -53 205q-63 57 -162 58q-94 0 -152 -58 q-35 -31 -49 -82q-4 -23 -6 -52.5t-2 -70.5v-880v-72z" />
<glyph unicode="H" horiz-adv-x="546" d="M29 0h223l-8 14q-14 31 -15 88v539l103 55v-585q0 -61 -10 -93l-9 -18h224l-11 18q-10 14 -15 27.5t-11 24.5q-6 27 -6 84v1126q0 61 6 84q10 31 37 70h-224q18 -41 19 -99v-458l-103 -56v502q0 29 5.5 55.5t13.5 55.5h-219q14 -20 21 -36t11 -26q6 -14 7.5 -37.5 t1.5 -54.5v-1151q0 -41 -9 -63q-4 -10 -10 -21.5t-12 -26.5z" />
<glyph unicode="I" horiz-adv-x="303" d="M20 0h263q-33 35 -43 74q-4 12 -6.5 38.5t-2.5 65.5v1077q0 41 2.5 67t6.5 38q10 39 43 74h-263q39 -41 43 -74q2 -12 5.5 -38t3.5 -67v-1077q0 -39 -2 -65.5t-7 -38.5q-4 -16 -14 -33.5t-29 -40.5z" />
<glyph unicode="J" horiz-adv-x="497" d="M12 246q0 -166 54 -219q47 -47 151 -47q57 0 99 12t67 41q55 63 55 227v997v66t2 39q6 16 17.5 34.5t29.5 37.5h-258q31 -35 43 -66q2 -12 4.5 -36.5t2.5 -59.5v-1012q0 -33 -2.5 -57.5t-4.5 -36.5q-4 -20 -17 -29.5t-30 -9.5q-39 0 -47 43q-4 14 -6 38.5t-2 61.5v308 l-158 -68v-264z" />
<glyph unicode="K" horiz-adv-x="653" d="M29 0h258q-14 25 -23.5 48.5t-13.5 41.5q-4 20 -7 45t-3 58v477l139 -441q4 -20 10 -36.5t10 -32.5q10 -25 12.5 -42.5t2.5 -33.5q0 -20 -5.5 -39.5t-19.5 -44.5h277q-20 16 -34 34.5t-26 41.5q-2 10 -12 36.5t-27 80.5l-186 585l135 430q16 51 27.5 85t19.5 50 q10 25 29.5 46.5t44.5 44.5h-266q8 -23 13 -42.5t5 -37.5q0 -16 -10 -52t-27 -90l-112 -346v381q0 115 41 187h-252q35 -45 41 -66q10 -31 10 -94v-1110q0 -35 -2 -57.5t-6 -36.5q-8 -27 -43 -70z" />
<glyph unicode="L" horiz-adv-x="536" d="M29 0h389q108 0 108 107q0 98 -65 188q-2 -25 -3 -44.5t-7 -29.5q-23 -67 -139 -67h-3h-69v1116q0 35 1 59.5t7 38.5q8 25 39 66h-258q16 -18 25 -35t16 -31q10 -31 10 -98v-1106q0 -68 -10 -98q-6 -14 -15.5 -31t-25.5 -35z" />
<glyph unicode="M" horiz-adv-x="884" d="M29 -223q47 8 88 43q10 10 28.5 33.5t47.5 60.5q49 66 114 86q-12 25 -18 38t-10 19q-8 31 -9 74v1030q0 63 6 88q8 16 18.5 25.5t29.5 9.5q33 0 43 -39q6 -16 7 -38.5t1 -57.5v-885q0 -27 -1 -48t-7 -32q-4 -25 -35 -49q55 -45 76 -74q27 -37 51 -122q16 43 29.5 72.5 t25.5 49.5q10 14 27.5 33t48.5 47q-16 16 -25.5 28.5t-15.5 23.5q-4 14 -8 32.5t-4 46.5v885q0 29 1 53.5t7 38.5q12 35 45 35q31 0 43 -39q4 -16 7 -38.5t3 -57.5v-999q0 -59 -6 -84t-33 -66h250q-33 41 -35 68q-12 31 -12 94v1095q0 72 12 103q8 29 43 74h-346l-70 -91 l-67 91h-336q43 -51 51 -80q6 -10 8 -40t2 -75v-1122q0 -61 -5 -107.5t-9 -77.5q-8 -37 -23.5 -75.5t-37.5 -79.5z" />
<glyph unicode="N" horiz-adv-x="626" d="M0 -215h12q88 0 160 133q10 16 19.5 29.5t19.5 23.5q8 4 19.5 10.5t27.5 16.5q-10 25 -15 41t-10 31q-2 10 -5 31.5t-3 52.5v634l148 -618q18 -74 18 -107q0 -16 -5 -32.5t-13 -30.5h229q-12 20 -19.5 38.5t-11.5 39.5q-4 16 -8 39.5t-4 58.5v1092q0 31 4 54.5t8 37.5 l2 4q4 14 11.5 31.5t19.5 38.5h-252q37 -49 45 -93q2 -16 5.5 -44.5t3.5 -67.5v-615l-181 820h-207q20 -23 31.5 -43.5t16.5 -36.5q10 -20 11 -47t1 -64v-1122q0 -217 -78 -336z" />
<glyph unicode="O" horiz-adv-x="503" d="M35 250q0 -41 4 -72t8 -53q12 -49 47 -84q63 -61 162 -61q98 0 160 61q23 29 36 81t13 132v881v90t-4 55q-4 37 -15.5 64.5t-29.5 44.5q-65 65 -157 65h-3q-98 0 -162 -59q-35 -39 -47 -90q-4 -18 -8 -48t-4 -67v-940zM201 260v914q0 35 2 55t4 37q12 39 49 39 q31 0 41 -43q4 -14 6 -39t2 -60v-895q0 -35 -2 -58.5t-6 -35.5q-8 -41 -41 -41q-37 0 -49 37q-2 14 -4 34.5t-2 55.5z" />
<glyph unicode="P" horiz-adv-x="514" d="M27 0h262q-16 18 -27.5 34.5t-15.5 31t-6 38t-2 56.5v391q41 0 67.5 2t42.5 2q33 4 58.5 15.5t39.5 27.5q10 10 18.5 22.5t14.5 20.5q8 23 13.5 72t5.5 123v335q0 137 -33 197q-35 66 -148 66h-290q35 -35 41 -66q10 -31 10 -94v-1114q0 -63 -10 -94q-6 -27 -41 -66z M238 719v557h47q49 0 49 -66v-422q0 -69 -48 -69h-1h-47z" />
<glyph unicode="Q" horiz-adv-x="503" d="M29 252q0 -41 1 -73t5 -54q4 -25 20.5 -46.5t32.5 -37.5q59 -57 154 -57h43q4 -6 4 -25v-20q0 -12 -4 -23q-4 -20 -14.5 -40.5t-26.5 -35.5q-10 -10 -23.5 -17t-32.5 -18q29 -20 56 -20q33 0 73 35q23 12 39.5 25.5t34.5 27.5q14 14 33.5 22.5t44.5 18.5 q-35 16 -60.5 40.5t-39.5 51.5q29 20 46 40t27 48q10 23 14.5 61t4.5 85v946q0 160 -53 207q-58 65 -161 65h-3q-96 0 -156 -59q-35 -33 -47 -84q-12 -35 -12 -115v-948zM195 252v934q0 29 1 50t5 38q14 35 43 35q37 0 49 -43q6 -31 6 -101v-899q0 -74 -6 -94 q-12 -43 -49 -43q-31 0 -43 33q-4 14 -5 36.5t-1 53.5z" />
<glyph unicode="R" horiz-adv-x="552" d="M20 0h248q-25 29 -32 51q-4 10 -5 29v45v539h39q16 0 17 -2q16 -6 26.5 -22.5t10.5 -41.5v-467q0 -27 -2.5 -45t-2.5 -27q-6 -31 -26 -55q16 -10 28.5 -18.5t16.5 -14.5q10 -16 20.5 -29.5t14.5 -23.5q25 -35 42 -61.5t31 -36.5q41 -35 86 -35h25q-23 41 -36 81t-23 81 q-8 29 -11.5 76t-3.5 108v377q0 141 -10 186q-20 49 -94 64q43 6 74 57q30 47 30 159v7v201q0 70 -10 114.5t-20 71.5q-25 47 -68 57q-14 2 -31.5 5.5t-46.5 3.5h-287q27 -31 46 -66q2 -16 4 -40.5t2 -59.5v-1104q0 -35 -2 -58.5t-4 -39.5q-2 -14 -15.5 -30t-30.5 -36z M231 848v440h41q51 0 52 -67v-306q0 -67 -51 -67h-1h-41z" />
<glyph unicode="S" horiz-adv-x="499" d="M33 250q0 -41 3 -72t5 -53q10 -27 21.5 -47.5t29.5 -36.5q61 -61 160 -61q102 0 158 61q53 57 53 213v250q0 57 -3 96t-7 64q-8 31 -24.5 57.5t-41.5 52.5q-29 29 -49.5 51.5t-34.5 34.5l-32.5 32.5t-37.5 31.5q-35 43 -34 110v148q0 29 1 50t5 38q14 35 43 35 q37 0 47 -50q4 -16 6 -39.5t2 -60.5v-121l160 -151v297q0 156 -53 209q-58 65 -159 65h-3q-92 0 -156 -59q-33 -33 -51 -90q-2 -18 -5 -48t-3 -67v-195q0 -49 11 -88t34 -71q8 -10 31.5 -34t64.5 -57q82 -70 96 -110q33 -59 33 -201v-170q0 -63 -10 -90q-10 -41 -45 -41 q-31 0 -43 33q-4 14 -5 35.5t-1 52.5v319l-166 123v-446z" />
<glyph unicode="T" horiz-adv-x="591" d="M18 1200q27 53 62 74q14 8 32.5 13t41.5 5h61v-1128q0 -35 -1 -60.5t-5 -37.5q-10 -29 -45 -66h262q-29 35 -43 74q-6 26 -6 104v1114h61q88 0 135 -92v234h-555v-234z" />
<glyph unicode="U" horiz-adv-x="577" d="M25 1434q37 -37 38 -62q12 -29 13 -96v-1034q0 -37 1 -68t5 -51q8 -27 19.5 -48.5t31.5 -37.5q57 -57 158 -57q96 0 155 57q54 58 54 205v1020q0 37 1 63.5t7 40.5q2 31 43 68h-250q27 -27 33 -66q4 -10 6 -33.5t2 -56.5v-1018q0 -68 -12 -94q-10 -39 -43 -39 q-31 0 -43 37q-10 25 -11 86v1012q0 41 2.5 65.5t2.5 34.5q6 39 32 72h-245z" />
<glyph unicode="V" horiz-adv-x="538" d="M18 1434q25 -25 38.5 -76t19.5 -129l78 -1036q4 -33 5 -52.5t1 -31.5q0 -68 -35 -109h295q-37 45 -37 113v32q0 23 4 56l84 1028q6 78 19.5 129t37.5 76h-233q27 -41 27 -107v-24t-5 -33l-43 -719q0 23 -2 39t-2 31l-10 167q-10 147 -17 266.5t-14 215.5v57 q0 35 6.5 59.5t16.5 47.5h-234z" />
<glyph unicode="W" horiz-adv-x="854" d="M29 1657q47 -8 88 -43q10 -10 28.5 -34t47.5 -60q49 -66 114 -86q-12 -25 -18 -38.5t-10 -19.5q-8 -31 -9 -73v-1031q0 -63 6 -88q8 -16 18.5 -25t29.5 -9q33 0 43 38q6 16 7 39t1 58v884q0 27 -1 48.5t-7 31.5q-4 25 -35 49q55 45 76 74q27 37 51 123q16 -43 29.5 -72.5 t25.5 -50.5q10 -14 27.5 -32.5t48.5 -47.5q-16 -16 -25.5 -28.5t-15.5 -22.5q-4 -14 -8 -32.5t-4 -47.5v-885q0 -29 1 -53t7 -39q12 -35 45 -34q31 0 43 38q4 16 7 39t3 58v999q0 59 -6 84t-33 66h250q-33 -41 -35 -68q-12 -31 -12 -94v-1096q0 -37 -3 -72.5t-20 -103.5 h-268l-70 90l-67 -90h-248q-18 70 -22.5 110t-4.5 85v1122q0 61 -5 107t-9 77q-8 37 -23.5 76t-37.5 80z" />
<glyph unicode="X" horiz-adv-x="581" d="M29 0h241q-12 23 -17 46.5t-5 45.5q0 2 2 26.5t4 78.5l49 444l47 -444q4 -49 5 -76t1 -29q0 -51 -20 -92h239q-31 39 -36 61q-4 10 -8.5 33t-10.5 56l-86 630l103 547q12 68 43 107h-230q10 -25 14.5 -52.5t4.5 -60.5q0 -20 -2 -55t-13 -88l-51 -291l-49 291 q-10 55 -13 91t-3 56q0 63 16 109h-225q31 -41 43 -107l102 -547l-88 -630q-4 -33 -9 -54.5t-7 -29.5q-4 -14 -14.5 -28.5t-26.5 -37.5z" />
<glyph unicode="Y" horiz-adv-x="583" d="M14 1434q33 -35 45 -107l152 -758v-405q0 -35 -1 -59.5t-5 -38.5q-8 -27 -45 -66h262q-31 37 -43 70q-4 14 -5 37.5t-1 56.5v409l151 754q8 39 18.5 65.5t26.5 41.5h-229q16 -45 16 -109q0 -23 -4 -58.5t-12 -88.5l-49 -295l-47 295q-8 53 -13.5 89t-5.5 58 q0 33 5.5 59.5t13.5 49.5h-230z" />
<glyph unicode="Z" horiz-adv-x="495" d="M35 0h426v289q-29 -84 -53 -115q-16 -18 -35 -26.5t-47 -8.5h-27q-14 0 -39 2h-61l252 1194v99h-398v-267q29 86 56 107q24 24 75 24h4h76l-229 -1083v-215z" />
<glyph unicode="[" horiz-adv-x="309" d="M33 0h233v59q-66 0 -84 21q-10 24 -10 139v995q0 115 10 140q18 20 84 20v60h-233v-1434z" />
<glyph unicode="\" horiz-adv-x="378" d="M80 1495h51l176 -1577h-51z" />
<glyph unicode="]" horiz-adv-x="337" d="M45 0h234v1434h-234v-60q72 0 84 -20q10 -19 10 -140v-995q0 -121 -10 -139q-12 -20 -84 -21v-59z" />
<glyph unicode="^" horiz-adv-x="438" d="M14 1221h49l146 266l147 -266h47l-147 403h-92z" />
<glyph unicode="_" horiz-adv-x="1368" d="M0 -154h1368v-92h-1368v92z" />
<glyph unicode="`" horiz-adv-x="485" d="M55 1360q0 18 20.5 30.5t45.5 12.5q43 0 106 -45q6 -6 86 -68q43 -34 133 -108h-75q-92 47 -140 67q-53 25 -104 49q-72 39 -72 62z" />
<glyph unicode="a" horiz-adv-x="448" d="M35 670q72 88 149 123v174q0 69 43 69q16 0 27.5 -10t11.5 -33v-168q-4 -29 -11 -58.5t-28 -45.5q-10 -12 -61 -51q-29 -23 -46.5 -38.5t-29.5 -27.5q-35 -37 -45 -76q-4 -12 -4 -41v-71v-191q0 -57 1 -96t7 -59q6 -23 15.5 -38.5t25.5 -25.5q8 -4 22.5 -5t34.5 -1h310 q-33 33 -37 68q-2 10 -3 33.5t-1 60.5v772q0 39 -2 66.5t-6 46.5q-4 25 -14.5 44t-26.5 35q-55 57 -144 58q-86 0 -133 -54q-16 -20 -29.5 -41.5t-19.5 -50.5q-4 -18 -5 -49t-1 -71v-248zM184 197v34v228q0 35 33 61q4 4 16.5 13.5t32.5 27.5v-411q-35 0 -55.5 5t-24.5 19 q-2 8 -2 23z" />
<glyph unicode="b" horiz-adv-x="446" d="M-14 1292q18 -18 29.5 -39.5t21.5 -46.5q8 -23 9 -52.5t1 -70.5v-905q0 -45 -2 -70.5t-4 -37.5q-6 -37 -45 -70h207q53 0 84.5 1t46.5 7q53 25 67 90q8 33 13.5 91.5t5.5 140.5v571q0 59 -3 102.5t-7 67.5q-14 80 -109 90q-14 2 -34.5 3t-49.5 1h-24v19q0 41 3 76.5 t11 64.5t21.5 54.5t31.5 54.5q-31 0 -63 -23q-14 -10 -30.5 -22.5t-33.5 -24.5q-23 -18 -42 -29.5t-30 -17.5q-16 -10 -38.5 -14.5t-36.5 -10.5zM197 152v866q51 0 61 -19q6 -12 6 -102v-629q0 -41 -3 -65.5t-7 -32.5q-6 -18 -57 -18z" />
<glyph unicode="c" horiz-adv-x="460" d="M35 281q0 -41 1 -74t7 -55q6 -27 14.5 -53.5t24.5 -49.5q46 -65 148 -65h3q115 0 154 69q12 18 19.5 40t11.5 44q4 16 6 42t2 61v354l-152 -76v-328q0 -65 -42 -65h-1q-41 0 -41 65v789q0 63 41 63q43 0 43 -63v-250l152 68v131q0 35 -2 59.5t-6 40.5q-2 25 -10.5 45.5 t-20.5 42.5q-41 68 -154 68q-102 0 -151 -66q-16 -23 -24.5 -49.5t-14.5 -54.5q-6 -23 -7 -55.5t-1 -73.5v-604z" />
<glyph unicode="d" horiz-adv-x="432" d="M27 330q0 -82 5 -139.5t13 -92.5q14 -68 66 -90q16 -6 47.5 -7t85.5 -1h202q-33 33 -43 70q-4 12 -4 36v72v905q0 41 3.5 71t7.5 52q12 47 51 86q-29 10 -47.5 15.5t-32.5 9.5q-27 10 -44.5 24.5t-27.5 22.5q-16 12 -30.5 24.5t-31 22.5t-31.5 16.5t-34 6.5 q37 -55 56 -105q10 -27 13 -60.5t3 -76.5v-27h-25q-29 0 -49 -1t-35 -3q-90 -8 -108 -90q-4 -25 -7 -67.5t-3 -102.5v-571zM178 268v629q0 86 12 102q14 18 62 19v-866q-53 0 -62 18q-4 6 -8 31.5t-4 66.5z" />
<glyph unicode="e" horiz-adv-x="456" d="M35 281q0 -41 3 -74l5 -55q2 -27 12.5 -53.5t26.5 -49.5q46 -65 148 -65h3q115 0 154 69q16 25 25.5 69t9.5 105v361q-102 -10 -148 -70v-328q0 -65 -42 -65h-1q-41 0 -41 65v398q53 49 111.5 74.5t120.5 31.5v244q0 121 -35 178q-41 68 -154 68q-104 0 -151 -66 q-16 -25 -24.5 -51.5t-14.5 -52.5q-6 -23 -7 -55.5t-1 -73.5v-604zM190 758v221q0 63 41 63q43 0 43 -63v-182z" />
<glyph unicode="f" horiz-adv-x="329" d="M-23 1178q29 -25 43.5 -46.5t22.5 -38t11 -50t3 -80.5v-809q0 -31 -1 -54.5t-5 -38t-12 -30t-25 -31.5h244q-25 27 -35 59q-4 12 -6 32.5t-2 51.5v906h92v129h-92v61q0 55 41 55h53v140h-119q-78 0 -106 -48q-10 -20 -18.5 -59t-8.5 -98v-51h-80z" />
<glyph unicode="g" horiz-adv-x="481" d="M35 -55v-199h160q72 0 116.5 16.5t67.5 49.5q29 51 29 184v989v70q0 29 4 39q10 35 47 71h-207q-53 0 -86 -1t-49 -9q-49 -23 -64 -90q-8 -33 -13 -90t-5 -141v-572q0 -119 10 -170q6 -25 19.5 -44t27.5 -30q10 -8 26.5 -11t41.5 -7h100q0 -45 -4 -66q-6 -27 -27 -38 q-6 -4 -24.5 -7.5t-46.5 -3.5q-53 0 -65.5 4.5t-28 17.5t-29.5 38zM190 264v631q0 43 1.5 67.5t5.5 32.5q12 14 63 15v-863q-51 0 -63 15q-4 10 -5.5 34.5t-1.5 67.5z" />
<glyph unicode="h" horiz-adv-x="479" d="M-25 1434q25 -23 39.5 -44.5t22.5 -43.5q18 -53 18 -136v-1060q0 -31 -2 -52.5t-4 -31.5q-10 -31 -37 -66h219q-8 14 -15 30.5t-7 39.5v952q49 0 57 -8q10 -10 12.5 -33t2.5 -61v-783q0 -96 -21 -137q37 -23 49 -39q10 -10 22.5 -26.5t26.5 -43.5q31 -68 66 -96 q31 -31 78 -43q-20 33 -32.5 62.5t-23.5 62.5q-4 31 -6 69t-2 83v862q0 68 -6 120t-22 83q-12 27 -34 44t-46 17q-10 0 -38 -9t-52 -9q-31 0 -31 28q0 35 2 55.5t4 32.5q4 23 8 38.5t21 25.5q-47 10 -121 57l-74 45q-16 10 -28.5 12.5t-26.5 2.5h-19z" />
<glyph unicode="i" horiz-adv-x="294" d="M14 1165q43 -55 54 -94q4 -16 6 -50t2 -85v-789q0 -29 -2 -50t-6 -31q-10 -35 -35 -66h239q-12 16 -20 32.5t-14 28.5q-6 14 -8.5 35t-2.5 47v1022h-213zM43 1329q0 -45 25 -74q25 -27 55 -26q33 0 59 22q33 27 33 78q0 29 -7 48.5t-22 35.5q-22 25 -57 25q-33 0 -53 -25 q-14 -16 -23.5 -35.5t-9.5 -48.5z" />
<glyph unicode="j" horiz-adv-x="292" d="M10 -238q31 4 57.5 12.5t43 25t36 45t48.5 69.5q23 33 41 54.5t38 31.5q-23 37 -34 80q-2 6 -2 33v63v989h-213q23 -29 37 -51t18 -45q2 -16 5 -48t3 -83v-807q0 -74 -4 -125t-8 -80q-12 -84 -66 -164zM53 1329q0 -25 8.5 -43t20.5 -35q23 -23 51 -22q35 0 57 22 q16 16 25.5 35t9.5 43q0 29 -7 47.5t-21 34.5q-25 27 -58 27q-27 0 -51 -27q-14 -16 -24.5 -34.5t-10.5 -47.5z" />
<glyph unicode="k" horiz-adv-x="575" d="M-16 1434q23 -23 37 -45.5t24 -45.5q10 -25 12 -58.5t2 -72.5v-1056q0 -63 -6 -90q-6 -31 -33 -66h238q-27 39 -35 66q-8 25 -8 86v356l94 -270q23 -68 34 -108t11 -62q0 -20 -16 -68q33 -4 57.5 -17.5t46.5 -31.5q35 -33 56.5 -51.5t29.5 -24.5q23 -16 46.5 -22.5 t48.5 -6.5h20q-25 29 -41 57.5t-29 53.5l-239 661l108 357q16 51 23.5 78.5t11.5 36.5q12 20 25.5 38.5t36.5 34.5h-248q10 -23 15 -45t5 -41q0 -27 -24.5 -117t-71.5 -249v473v47t2 31q4 20 12.5 31.5t20.5 23.5q-25 4 -53.5 18.5t-69.5 36.5l-74 49q-29 12 -55 13h-14z " />
<glyph unicode="l" horiz-adv-x="272" d="M-23 1434q23 -23 38.5 -46.5t23.5 -48.5q8 -23 13 -57.5t5 -77.5v-1050q0 -33 -2 -54.5t-6 -33.5q-4 -14 -13 -31t-22 -35h240q-16 18 -24.5 35.5t-12.5 30.5q-10 27 -10 86v1005q0 33 1 54.5t3 35.5q6 41 33 62q-14 2 -29.5 7t-32.5 13q-8 4 -22.5 14.5t-34.5 22.5 l-76 45q-39 23 -72 23z" />
<glyph unicode="m" horiz-adv-x="743" d="M10 1165q23 -29 34 -51t17 -43q4 -16 5.5 -49t1.5 -84v-788q0 -31 -1 -52.5t-6 -31.5l-2 -5q-6 -14 -14 -29.5t-20 -31.5h241q-14 16 -23.5 31.5t-13.5 29.5q-6 25 -6 84v893h37q16 0 21 -4q33 -16 32 -71v-719v-41t-4 -27q-4 -12 -11 -26.5t-17 -30.5q25 -12 40 -24.5 t25 -26.5q10 -12 23.5 -34t25.5 -57q14 35 25.5 56.5t21.5 34.5q27 37 62 51q-10 14 -16.5 27.5t-10.5 23.5q-12 27 -12 74v794q45 0 57 -4q33 -14 33 -71v-791v-61q0 -25 -4 -35q-6 -45 -29 -80q14 -8 37 -35t49 -70q43 -74 84 -104q33 -23 94 -29q-49 78 -65 152 q-12 63 -12 194v781q0 72 -9.5 123t-25.5 82q-38 75 -157 75h-3h-504z" />
<glyph unicode="n" horiz-adv-x="485" d="M10 1165q23 -29 35 -50t16 -42q6 -31 7 -133v-786q0 -29 -1 -50.5t-6 -37.5q-2 -12 -22 -43l-14 -23h213l-9 25q-8 20 -10 46.5t-2 65.5v905q25 0 38 -1t17 -3q33 -12 33 -71v-789q0 -39 -2 -63.5t-4 -34.5q-10 -53 -31 -80h213q0 10 -5 15t-12 11.5t-12.5 18.5t-5.5 39 v756v80q0 35 -4 53q-6 78 -26 119q-35 73 -149 73h-3h-254z" />
<glyph unicode="o" horiz-adv-x="458" d="M35 281q0 -88 8 -129q4 -27 15.5 -53.5t23.5 -49.5q18 -35 58 -50t93 -15q113 0 154 65q12 23 19.5 42.5t11.5 43.5q2 16 3 43t1 62v688q0 33 -1 58.5t-3 41.5q-2 25 -10.5 45.5t-20.5 42.5q-20 31 -58 49.5t-96 18.5q-106 0 -151 -68q-16 -25 -24.5 -50.5t-14.5 -55.5 q-8 -39 -8 -125v-604zM190 190v789q0 63 41 63q43 0 43 -63v-789q0 -65 -42 -65h-1q-41 0 -41 65z" />
<glyph unicode="p" horiz-adv-x="446" d="M-66 -324h19q39 0 74 37q4 4 19 22.5t44 53.5q16 23 32.5 38t33.5 19q25 16 71 27q-10 27 -14 58.5t-6 68.5h14h43t31 2q51 4 79.5 24.5t39.5 55.5q4 25 7 71t3 111v572q0 82 -3 140t-13 91q-10 35 -26.5 55.5t-41.5 32.5q-35 10 -133 10h-205q18 -20 28.5 -37.5 t16.5 -33.5q4 -12 4 -37v-72v-860q0 -86 -6 -148.5t-16 -103.5q-12 -39 -34 -88t-61 -109zM199 147v865q49 0 61 -13q4 -10 6 -35.5t2 -70.5v-625q0 -45 -1 -69.5t-7 -32.5q-10 -18 -61 -19z" />
<glyph unicode="q" horiz-adv-x="473" d="M39 264q0 -63 3 -105t7 -65q14 -51 47 -78q20 -14 70 -14q14 0 32.5 -1t43.5 -1h22q2 -4 4 -10t2 -15q0 -49 -34 -96q51 -8 112 -98q29 -41 61.5 -65t71.5 -40q-23 47 -38 84t-19 62q-12 51 -12 178v985q0 47 2 71.5t2 37.5q6 16 16 33.5t31 37.5h-203q-102 0 -137 -10 q-25 -12 -40 -32.5t-24 -55.5q-10 -33 -15 -91t-5 -140v-572zM195 268v625q0 45 3 70.5t7 35.5q6 4 20.5 8.5t38.5 4.5v-865q-45 0 -59 19q-10 16 -10 102z" />
<glyph unicode="r" horiz-adv-x="354" d="M23 0h241q-27 31 -35 59q-12 31 -12 84v793q0 92 49 92q12 0 26.5 -10t31.5 -37v199q-4 2 -12.5 4t-12.5 2q-55 0 -98 -62l-27 41h-147q14 -23 20 -38t10 -27q4 -16 6.5 -38t2.5 -56v-859q0 -29 -2.5 -50t-6.5 -38q-4 -12 -12 -27.5t-22 -31.5z" />
<glyph unicode="s" horiz-adv-x="454" d="M33 279q0 -92 15 -151.5t44 -92.5q45 -51 144 -51q43 0 77.5 11t55.5 36q51 55 51 172v172q0 76 -6 125t-25 78q-10 16 -35.5 40.5t-70.5 65.5l-17 12q-53 37 -55 47q-23 29 -23 91v145q0 63 41 63q43 0 43 -63v-156q39 -10 77 -30.5t71 -57.5v189q0 41 -1 72.5t-5 54.5 q-10 27 -21.5 50t-27.5 40q-53 43 -134 43q-90 0 -139 -60q-59 -59 -59 -239v-45q0 -41 6 -70t18 -55q10 -39 47 -68q18 -20 34 -34.5t32 -30.5l16 -15q18 -16 31.5 -27.5t24.5 -23.5q8 -8 14 -15t10 -9q2 -8 4 -19t2 -27v-260q0 -65 -42 -65h-1q-41 0 -41 65v254l-155 119 v-280z" />
<glyph unicode="t" horiz-adv-x="286" d="M-8 1159q23 -16 38 -35.5t19 -42.5q6 -16 8 -48t2 -75v-821q0 -137 66 -137h141q-20 23 -31.5 43t-15.5 37q-4 12 -4 39v76v821q0 59 10 90q12 29 43 53h-30q-29 0 -29 47v228q-23 -53 -45.5 -96.5t-48.5 -75.5q-25 -29 -54.5 -54.5t-68.5 -48.5z" />
<glyph unicode="u" horiz-adv-x="528" d="M-2 1165q23 -29 36 -50t19 -44q2 -12 4 -45t2 -86v-635q0 -92 7.5 -149.5t17.5 -79.5q45 -76 145 -76h269q-23 37 -29 76v98v991h-197q29 -33 33 -67q6 -14 7 -36.5t1 -51.5v-869h-51q-47 0 -47 105v919h-217z" />
<glyph unicode="v" horiz-adv-x="530" d="M18 1165q18 -23 30.5 -57.5t17.5 -83.5l98 -883v-43q0 -41 -23 -98h246q-20 53 -20 98v21q0 12 4 28l98 873q4 90 43 145h-215q10 -35 18.5 -72.5t8.5 -74.5q0 -16 -1 -35.5t-6 -44.5l-49 -598l-47 598l-8 98q0 68 27 129h-222z" />
<glyph unicode="w" horiz-adv-x="876" d="M25 1165q23 -23 34 -58.5t15 -82.5l96 -883v-43q0 -41 -23 -98h250q-16 31 -24 60.5t-8 60.5v26l69 551l62 -557v-20q0 -43 -33 -121h250q-29 57 -29 98q0 8 2 20.5t4 28.5l117 873q4 29 8 49.5t8 34.5q6 16 13.5 30.5t17.5 30.5h-213q12 -33 20.5 -66.5t8.5 -66.5 q0 -16 -2 -40.5t-6 -53.5l-70 -543l-49 543q-4 43 -8.5 70.5t-4.5 40.5q0 31 8.5 59t22.5 57h-237q14 -33 22 -68.5t8 -76.5q0 -18 -1 -37.5t-7 -44.5l-67 -543l-52 543q-2 37 -5 63.5t-3 36.5q0 31 6 65t21 62h-221z" />
<glyph unicode="x" d="M8 0h217q-14 45 -14 98q0 10 3 40t11 83l45 273l43 -273q8 -53 10.5 -82.5t2.5 -40.5q0 -25 -2 -49t-11 -49h215q-16 29 -28.5 52.5t-20.5 45.5q-6 16 -11 46t-15 77l-68 387l80 391q4 37 10 61.5t10 37.5q8 23 19.5 38t23.5 29h-215q8 -18 10.5 -41.5t2.5 -48.5 q0 -10 -5.5 -45t-15.5 -92l-35 -221l-41 221q-18 113 -18 137q0 25 3 48.5t11 41.5h-217q29 -29 43 -67q4 -12 9.5 -37t13.5 -62l80 -391l-68 -389q-14 -92 -27 -123q-8 -23 -21 -45t-30 -51z" />
<glyph unicode="y" horiz-adv-x="534" d="M27 1165q33 -39 45 -141l114 -881q8 -70 13.5 -108.5t5.5 -50.5q0 -100 -74 -101q-45 0 -86 35v-170h64q59 0 99 6t68 17q27 10 45.5 29.5t26.5 49.5q6 20 13.5 55.5t13.5 94.5q8 66 11 101.5t3 37.5l82 881q4 41 16.5 78t30.5 67h-217q29 -74 29 -151v-35q0 -18 -2 -43 l-45 -578l-54 578q-4 35 -5 59.5t-1 40.5q0 63 19 129h-215z" />
<glyph unicode="z" horiz-adv-x="423" d="M35 0h366v236q-41 -102 -163 -103h-25q-12 0 -23 4l211 899v129h-348v-225q37 98 152 98h39l-209 -909v-129z" />
<glyph unicode="{" horiz-adv-x="460" d="M27 330v571q0 29 1 54.5t3 48.5q2 20 3 37.5t3 29.5q18 82 108 90q8 2 17 2q8 0 18 2h74l-4 41q-12 45 -49 86q27 8 43 13.5t37 13.5q14 8 37.5 21.5t33.5 23.5q8 8 14.5 13t14.5 12q10 6 17.5 11t15.5 9q14 10 28 18q14 6 37 7q-20 -29 -32.5 -54.5t-22.5 -52.5 q-4 -12 -8 -26.5t-8 -30.5q-4 -23 -6.5 -44.5t-2.5 -43.5v-1004v-72q0 -20 4 -36q8 -35 41 -70h-200h-47t-37 2q-35 0 -49 6q-29 10 -43.5 32.5t-22.5 57.5q-8 33 -12 90q-6 61 -6 142zM178 266q0 -18 1 -34.5t3 -28.5q4 -37 15.5 -43t54.5 -8v866q-47 0 -62 -19 q-12 -16 -12 -102v-631z" />
<glyph unicode="|" horiz-adv-x="749" d="M293 -551h149v2579h-149v-2579z" />
<glyph unicode="}" horiz-adv-x="284" d="M14 1331l76 -37l41 -69l41 69l78 37q-29 0 -50.5 25.5t-35.5 60.5t-20.5 72t-6.5 61q0 -25 -7 -62.5t-21.5 -72.5t-38 -59.5t-56.5 -24.5zM20 1165q16 -29 32 -50t18 -46q6 -29 6 -135v-784q0 -61 -6 -89q-2 -10 -8.5 -20t-12.5 -23l-12 -18h231l-14 18 q-10 12 -15.5 22.5t-9.5 20.5q-4 14 -5 36t-1 48v1020h-203z" />
<glyph unicode="~" horiz-adv-x="731" d="M53 676q55 254 197 254q45 0 126 -56.5t128 -56.5q63 0 98 123h53q-49 -260 -190 -260q-45 0 -130 56.5t-122 56.5q-61 0 -100 -117h-60z" />
<glyph unicode="&#xa1;" horiz-adv-x="301" d="M33 258q0 -258 98 -258q100 0 100 231q0 27 -2 64t-4 84l-57 610q-14 164 -37 187q-4 10 -12 10q-39 0 -51 -217l-35 -629v-82zM47 1341q0 -53 25 -71q20 -21 49 -21q31 0 51 21q12 16 19.5 33.5t7.5 42.5q0 47 -25 69q-23 18 -45 19q-31 0 -53 -21q-14 -14 -21.5 -30.5 t-7.5 -41.5z" />
<glyph unicode="&#xa2;" horiz-adv-x="528" d="M59 414q0 -41 1 -74t8 -55q6 -27 14 -53.5t24 -49.5q41 -57 123 -63v-113h58v113q88 6 125 67q12 18 19 40t11 44q4 16 6.5 42t2.5 61v354l-152 -76v-327q0 -66 -43 -66q-41 0 -41 66v788q0 63 41 64q43 0 43 -64v-250l152 68v131q0 35 -2.5 59.5t-6.5 40.5 q-2 25 -10 45.5t-20 42.5q-37 59 -125 66v112h-58v-112q-43 -4 -71.5 -19.5t-51.5 -44.5q-16 -23 -24 -49t-14 -55q-6 -23 -7.5 -55.5t-1.5 -73.5v-604z" />
<glyph unicode="&#xa3;" horiz-adv-x="530" d="M0 0h244q-10 14 -23 37q-4 10 -8 19.5t-4 17.5v94v194l104 54v-248v-57v-21q0 -10 -2 -16q-4 -18 -10 -35q-4 -10 -10 -19.5t-12 -19.5h243q-12 20 -20 34.5t-13 31.5q-2 8 -4 17t-4 19.5t-2 22.5v27v1142v23q0 12 2 22q2 20 8 37q4 8 10.5 22.5t22.5 35.5h-270 q-131 0 -176 -80q-33 -63 -33 -246v-956v-27q0 -10 -2 -20.5t-3 -20.5t-3 -18q-6 -25 -35 -66zM209 530v656q0 100 39 100h65v-702z" />
<glyph unicode="&#xa4;" horiz-adv-x="520" d="M0 0h248q-25 25 -31 45q-2 6 -4 15.5t-2 19.5v584h39q16 0 16 -2q16 -6 26.5 -22.5t10.5 -43.5v-516q0 -10 -1 -17.5t-3 -13.5q-4 -10 -12 -22.5t-21 -26.5h248q-8 10 -16.5 18.5t-14.5 18.5q-12 14 -14 29q-2 6 -2 16q0 12 -2 22q-2 12 -2 27v33v31v313q0 137 -10 184 q-20 51 -95 66q43 6 74 57q31 49 31 166v201q0 35 -3 63.5t-7 50.5q-10 51 -21 72q-27 49 -67 57q-35 8 -78 9h-287q29 -35 45 -66q6 -12 6 -41v-59v-1104v-60q0 -23 -4 -38q-2 -14 -16 -31q-6 -10 -14.5 -17.5t-16.5 -17.5zM211 848v440h41q51 0 51 -67v-306q0 -68 -51 -67 h-41z" />
<glyph unicode="&#xa5;" horiz-adv-x="591" d="M0 1434q18 -18 33 -43q4 -10 8 -19.5t6 -17.5q10 -23 12 -47v-1112q0 -37 -1 -54.5t-3 -29.5q-2 -10 -2 -21q0 -10 -4 -18q-4 -10 -7 -18.5t-7 -18.5q-4 -8 -8 -16.5t-11 -18.5h244q-35 47 -45 92q-2 8 -5 20.5t-3 26.5v649l147 -618q18 -74 19 -107q0 -12 -4 -32 q-4 -8 -7.5 -15.5t-7.5 -15.5h230q-12 23 -19 39q-8 14 -12 37q-2 10 -4 19t-4 21.5t-3 27t-1 30.5v1094v28q0 14 2 27q2 10 3 20.5t5 18.5q4 10 8 17t8 18q6 14 19 37h-252q35 -47 45 -93q2 -8 4 -18t4 -23v-686l-180 820h-207z" />
<glyph unicode="&#xa6;" horiz-adv-x="825" d="M0 1434q23 -27 35 -47.5t16 -32.5q4 -6 5 -16.5t5 -24.5q2 -16 2 -35v-39v-1079q0 -33 -2 -54.5t-10 -37.5q-2 -12 -10 -30t-25 -38h250q-14 20 -21 37.5t-12 28.5q-6 25 -6 84v1009q0 68 6 86q10 20 19 29q10 8 29 8q18 0 27 -9t20 -26q8 -16 8 -43v-985q0 -14 -3 -22.5 t-5 -12.5q-4 -10 -13.5 -23.5t-25.5 -25.5q55 -47 78 -72q16 -16 26 -48.5t25 -75.5q6 23 13 40t15 33q6 14 12.5 27.5t12.5 23.5q4 8 12.5 15.5t18.5 17.5q8 8 19 18.5t28 26.5q-8 8 -15.5 16.5t-11.5 12.5q-12 10 -14 20q-4 14 -8 35q-2 10 -3 21.5t-1 25.5v938q0 23 8 35 q12 37 45 37q29 0 41 -37q2 -8 4 -18t4 -23q2 -10 2 -24v-31v-999q0 -59 -6 -84q-4 -10 -11.5 -28t-21.5 -38h248q-16 20 -23.5 37.5t-11.5 30.5q-10 29 -10 92v1093q0 37 2 63.5t8 41.5q4 16 15.5 33.5t27.5 42.5h-344l-70 -91l-65 91h-338z" />
<glyph unicode="&#xa7;" horiz-adv-x="548" d="M20 1434q23 -20 39 -78q6 -25 11.5 -57.5t9.5 -73.5l80 -1032q2 -16 2 -27v-21v-32q0 -35 -8.5 -62.5t-28.5 -50.5h299q-39 47 -39 115v32q0 10 1 23.5t3 32.5l90 1073q4 35 9.5 66.5t9.5 56.5q2 29 6 48t8 36q4 18 9 38.5t17.5 41t22.5 43t21 43.5q-49 -4 -82 -37 q-4 -4 -12.5 -13.5t-16.5 -19.5l-22.5 -31.5t-28.5 -36.5q-29 -29 -60.5 -48t-66.5 -29q6 -16 12 -22.5t10 -14.5q6 -41 7 -74q0 -10 -1.5 -22.5t-1.5 -24.5l-45 -721l-43 713v61v31q0 14 5 29q4 10 8 22t8 23h-232z" />
<glyph unicode="&#xa8;" horiz-adv-x="419" d="M29 1313q0 -29 7 -50.5t17 -39.5q20 -37 47 -37q29 0 49.5 37t20.5 90q0 47 -20 86q-23 37 -50 37t-47 -37q-12 -23 -18 -42t-6 -44zM233 1313q0 -29 7.5 -50.5t17.5 -39.5q20 -37 47 -37q29 0 49.5 37t20.5 90q0 47 -21 86q-23 37 -49 37q-27 0 -47 -37 q-12 -23 -18.5 -42t-6.5 -44z" />
<glyph unicode="&#xa9;" horiz-adv-x="516" d="M0 1434q23 -18 39 -43q8 -10 13 -22.5l9 -22.5q18 -53 19 -136v-1112q0 -10 -2 -19t-4 -13q-10 -33 -37 -66h219q-4 8 -7 15.5t-7 15.5q-8 20 -9 39v952q49 0 57.5 -8t12.5 -33q2 -10 2 -27v-34v-850q0 -18 -8 -39q-4 -8 -7 -15.5t-7 -15.5h215q-27 33 -37 66q-2 6 -2 30 v795q0 68 -6 121q-4 27 -7.5 46t-11.5 36q-12 27 -33 45q-23 16 -47 16q-12 0 -37 -8q-31 -10 -53 -10q-31 0 -31 28v31q0 14 2.5 24.5t2.5 18.5t2 14q2 10 4 20.5t4 18.5q2 14 20 25q-43 8 -121 57l-73 45q-14 8 -29 13q-8 2 -27 2h-18z" />
<glyph unicode="&#xaa;" horiz-adv-x="630" d="M0 1434q12 -10 20.5 -22.5t16.5 -23t14 -22.5t10 -23q10 -25 13 -57q2 -16 2 -35v-39v-1056q0 -63 -6 -90q-6 -33 -33 -66h239q-25 37 -34 66q-10 20 -11 86v356l142 -424q2 -4 2 -12q0 -10 -2 -20.5t-4 -16.5q-2 -8 -5.5 -17.5t-7.5 -17.5h275q-23 16 -41.5 31.5 t-30.5 31.5q-4 4 -7 12.5t-9 18.5t-10.5 23.5t-10.5 29.5l-172 471l109 357q14 51 24 80q4 14 6.5 22t4.5 13q12 23 26 38q6 10 15.5 18.5t19.5 16.5h-246l15 -45q2 -10 3 -20.5t1 -20.5q0 -29 -25 -116q-12 -45 -29.5 -107.5t-42.5 -142.5v520q0 23 2 31q2 16 15 32 q4 4 9 10.5t11 12.5q-29 4 -55 18l-70 37l-73 49q-29 12 -54 13h-16z" />
<glyph unicode="&#xab;" horiz-adv-x="745" d="M0 1165q12 -16 20.5 -28.5t14.5 -22.5q8 -23 16 -43q2 -14 6 -51v-82v-844q-6 -35 -22 -63q-4 -8 -9.5 -17.5t-9.5 -17.5h240q-10 10 -21.5 28.5t-15.5 32.5q-4 12 -6 34t-2 52v893h39q18 0 20 -4q33 -14 33 -69v-764q0 -31 -10 -54q-4 -8 -10.5 -15t-12.5 -15 q23 -10 38.5 -22.5t27.5 -29.5q16 -20 27.5 -40.5t21.5 -49.5q14 27 23.5 48.5t23.5 42t30.5 31.5t33.5 20q-4 6 -9.5 14t-9.5 16q-12 29 -16 50.5t-4 44.5v796q49 0 57 -4q33 -14 33 -69v-820q0 -33 -1 -54t-5 -32q-6 -14 -16.5 -31.5t-22.5 -29.5h241q-23 27 -36 61 q-8 20 -9 37v791q0 68 -6 121q-4 29 -11 48t-15 36q-43 76 -160 75h-506z" />
<glyph unicode="&#xac;" horiz-adv-x="522" d="M16 1165q20 -29 35 -52t19 -44q4 -16 6 -48t2 -83v-788q0 -29 -2 -50.5t-6 -31.5q-10 -37 -37 -68h219q-20 33 -21 137v901q51 0 56 -4q33 -12 32 -71v-789v-59q0 -25 -4 -35q-8 -51 -32 -84q23 -16 46 -53t40 -93q8 -29 14 -42t6 -17q35 -59 70 -90t78 -27h10 q-20 23 -33.5 43.5t-17.5 36.5q-10 23 -15.5 53.5t-9.5 63.5v152v813v82t-4 51q-4 35 -11 65.5t-18 52.5q-23 37 -61.5 57.5t-97.5 20.5h-263z" />
<glyph unicode="&#xad;" d="M0 664v122h532v-122h-532z" />
<glyph unicode="&#xae;" horiz-adv-x="5670" d="M86 1366v2q6 0 14.5 -6t24.5 -15.5t42 -20.5t69 -23q72 -20 114.5 -25.5t87.5 -5.5q12 0 30.5 5t42.5 12t48.5 12.5t46.5 5.5l17 -2q92 -18 151.5 -35t83.5 -35q57 -37 98 -95.5t68 -128t39 -146.5t12 -152q0 -92 -17.5 -175t-49.5 -141l-306 -311h-47l-77 47 q-84 49 -191 49q-76 0 -172 -28q-41 -14 -68 -15q-10 0 -12 2q18 16 41 32.5t43 29.5q160 104 176 131q8 10 8 55q0 47 -11 121t-30 201l-28 190l129 207q-96 12 -168 50t-118 82t-68.5 81t-22.5 45zM516 305l223 -41h4q16 0 44 18.5t42 34.5q16 16 24.5 41t8.5 43v318 q0 131 -23.5 216t-78.5 122q-63 43 -88 43h-94q-37 0 -37 -144v-53q0 -29 4 -63v-498q0 -18 -15 -28zM1108 969q0 -14 14 -35q25 -18 25 -33v-524q0 -10 10 -27.5t24.5 -35t26 -30t15.5 -12.5h45l94 82q14 18 14 41q0 4 -1 7.5t-1 7.5h-28q-16 0 -17 16v475q0 135 -98 172 l-113 -74q-10 -12 -10 -30zM1118 1210q10 -47 41 -69.5t66 -22.5t64.5 23.5t31.5 68.5q-6 -4 -21.5 -7t-33.5 -3t-32.5 12.5t-14.5 47.5zM1380 809q0 -63 31 -114.5t72 -73.5l145 -68q20 -10 40 -47t20 -70q0 -37 -31 -43q-6 -2 -17 -2q-72 0 -120 141l-95 -57 q-18 -29 -18 -57q0 -31 15.5 -59.5t39 -52t50 -38t49.5 -14.5q10 0 16 2l45 12l174 121q61 74 62 154q0 47 -25 90t-82 78l-141 77q-47 29 -66.5 56.5t-19.5 50.5q0 25 17.5 41t41.5 16q35 0 70 -23.5t45 -103.5l41 -12l65 68q8 16 8 39q0 27 -11 54t-31.5 50t-51 37 t-67.5 14q-25 0 -62 -10l-155 -111q-6 -10 -11.5 -16t-9.5 -16q-33 -53 -33 -113zM1845 946q43 0 43 -16v-576q0 -41 32 -60.5t79 -25.5l121 138h-27q-20 35 -20 49v430l16 12q4 6 8 9t8 7l15 17h45v-500q4 -61 42 -109.5t89 -48.5q23 0 47 13l90 100q-70 25 -70 86v459 q0 25 -13 51.5t-35.5 48t-51.5 35.5t-57 14q-35 0 -65 -23.5t-52 -80.5l-29 8l-28 49q-10 23 -23.5 30t-30.5 7h-12zM2396 678q0 66 11.5 124t33.5 99l240 156l166 -217v-11q0 -66 -166 -170l-101 -61q-6 -4 -6 -12q0 -16 14.5 -41t36 -49.5t46 -44t43.5 -25.5q6 -2 33.5 -9 t54.5 -7q29 0 37 12l8 8v-53l-133 -105q-17 -8 -29 -8h-10q-45 0 -115 41q-43 23 -73.5 63t-51 90t-30 107.5t-9.5 112.5zM2560 686h20q8 0 17.5 1t25.5 11q35 18 40.5 31.5t5.5 18.5v77l-70 105q-39 -18 -39 -90v-154zM2798 211q0 -45 37 -91t139 -75q45 -14 104 -14 q53 0 106.5 10t95.5 28.5t68.5 43t26.5 51.5v794q0 66 -31.5 93.5t-70.5 27.5h-11l-139 -80l66 -86v-458q0 -14 -19.5 -23.5t-42.5 -9.5t-42 11t-19 38v528q-18 53 -42 70.5t-42 17.5h-8l-29 -8l-111 -84l45 -94v-459q0 -16 13.5 -42.5t35 -53.5t51.5 -45t60 -18q35 0 64 26 q31 31 55.5 43.5t40.5 12.5h6q-2 -8 -2 -27q0 -47 14 -107q6 -25 7 -43q0 -55 -39 -75.5t-84 -20.5q-43 0 -77 10.5t-34 18.5v106l-33 33q-61 61 -78 62h-28q-10 0 -31.5 -32t-21.5 -79zM3396 1268q53 -14 53 -45v-785q0 -59 32.5 -105t79.5 -52l148 104l-53 49 q-16 16 -20.5 35.5t-4.5 38.5v797q-2 8 -15.5 24.5t-30.5 33.5t-33.5 29.5t-22.5 12.5l-35 -8zM3594 33v157h111q84 0 84 -53q0 -10 -5 -16l-10 -12v-3q-12 -10 -28.5 -15t-40.5 -5h-58v-53h-53zM3647 115h46q49 0 49 22q0 29 -45 29h-45zM3709 471v338q0 119 121 211 q35 25 74.5 43t89.5 37q207 -47 206 -455v-168q0 -29 13 -39q10 -10 33 -16l22 -12l-104 -125l-136 96l-133 -88l-32 -4q-6 0 -31 19.5t-52.5 47t-49 59t-21.5 56.5zM3854 616q0 -137 131 -190q12 10 18.5 13t10.5 7l10 13v385l-84 78h-86v-306zM4094 33l90 157h62l83 -157 h-53l-16 33h-92l-21 -33h-53zM4180 90h70l-33 72zM4260 963q25 0 35 -3.5t14 -13.5v-577q0 -39 29.5 -58.5t76.5 -25.5l121 137h-24q-18 31 -19 49v430l15 12q6 10 16 17l12 16h49v-500q0 -31 10.5 -59.5t29 -50t42 -34.5t50.5 -13q23 0 47 12l90 100q-70 23 -70 86v459 q0 25 -13 51.5t-36 48t-51.5 36t-57.5 14.5q-35 0 -65.5 -23.5t-52.5 -81.5l-31 8l-25 50q-12 20 -26.5 27t-30.5 7h-12zM4651 33v157h133q35 0 54.5 -12t19.5 -33q0 -16 -16.5 -25t-40.5 -14q16 0 32 -8q8 -4 17 -20l4 -29q0 -16 8 -16h-57q-6 6 -5 16t-4 21l-8 12 q-6 12 -37 12h-47v-61h-53zM4704 121h60q41 0 41 20q0 12 -17 21q-6 0 -10 2t-14 2h-60v-45zM4858 504v305q0 31 21.5 78t58.5 93t84 79t96 33q35 0 65 -19v137l-61 113l117 90q8 4 14 4q12 0 29.5 -9t32 -23.5t24.5 -33t10 -36.5v-807q4 -16 10.5 -30.5t18.5 -26.5l49 -37 l-86 -113q-8 -4 -22 -4q-10 0 -19.5 2t-19.5 6l-84 88l-99 -92q-12 -4 -22.5 -6t-22.5 -2q-37 2 -71.5 27.5t-62 59.5t-44 67.5t-16.5 56.5zM5011 629q1 -134 132 -187q10 6 17 9.5t11 7.5l12 12v385l-86 78h-86v-305zM5196 33h55v57l25 16l86 -73h65l-114 92l98 65h-66 l-94 -65l-4 65h-51v-157zM5466 383q0 -27 19.5 -46.5t46.5 -19.5q29 0 47 19.5t18 46.5q0 29 -20 47.5t-45 18.5q-27 0 -46.5 -18.5t-19.5 -47.5zM5472 383q0 23 17.5 42t42.5 19q23 0 42 -19t19 -42q0 -25 -18.5 -42t-42.5 -17q-25 0 -42.5 17t-17.5 42zM5493 342h37v6 q-12 0 -13 4v29h6l31 -39h17v6h-7l-3 3l-5 5l-18 25q23 6 22 22q0 20 -28 21h-35v-4q2 0 3 -2t5 -4v-64q-4 -2 -12 -2v-6zM5517 385v31l4 4h2q23 0 23 -17q0 -18 -29 -18z" />
<glyph unicode="&#xaf;" horiz-adv-x="5353" d="M35 1176q0 86 108 112q82 20 176 21q113 0 229 -27t224.5 -74t204.5 -109.5t166.5 -135t111.5 -150.5t41 -154q0 -74 -42 -142t-140 -128q-121 -72 -270 -72q-33 0 -70 4.5t-72 8.5q-68 12 -71 12q-10 -41 -30 -52t-38 -11q-25 0 -35 10q-39 102 -49 110l-51 33 q-100 63 -158.5 124.5t-58.5 102.5v7q12 90 293 151l5 29q5 28 9 84q6 35 14.5 61.5t20.5 44.5q4 2 10 2t8 -2q27 -12 39.5 -51t16.5 -100l4 -60q0 -2 69 -4q201 -8 275 -88q27 -29 26 -63q0 -41 -32.5 -68t-67.5 -27q-25 0 -45 17v10q51 31 51 45v15q-74 31 -143.5 42 t-106.5 11q-27 0 -30 -4v-269q16 -10 58 -16t97 -6q61 0 128 10t124.5 37t94 73t36.5 115q0 45 -14 90q-23 72 -101.5 156t-196.5 155.5t-266.5 119t-307.5 47.5q-92 0 -185 -19l10 -4q27 0 39 -16v-15q-12 -14 -22 -14h-35q-31 0 -51 21zM250 657q0 -10 19.5 -34.5t53 -52 t80 -53.5t95.5 -34l10 228h-41q-127 0 -217 -54zM1227 1016q0 43 28.5 81t69.5 65.5t85 43t77 15.5q20 0 33 -7l104 -55q43 -20 43 -61q0 -35 -26.5 -73t-66.5 -70.5t-84 -54t-77 -21.5q-23 0 -49.5 6t-32.5 6h-2q-16 -33 -31 -33h-6q-33 20 -32 39l-11 53l-20 45 q-2 6 -2 21zM1294 1020q8 4 15.5 9t15.5 18q8 10 18.5 21t26.5 28l14 14v6h-2q-12 0 -26.5 -10t-28.5 -24.5t-23.5 -30t-9.5 -27.5v-4zM1329 444q6 -37 23.5 -49t36.5 -12q25 0 41 10l4 51q2 10 2 17v18q0 16 -1 34.5t-1 35.5q0 143 -10.5 207.5t-47.5 64.5h-6 q-14 -20 -22.5 -57t-12.5 -82t-5 -90t-1 -80v-68zM1380 973q1 -12 19 -12q23 0 84 20q98 31 114 88q2 6 2 14q0 33 -34 33q-29 0 -72 -24.5t-84 -71.5q-29 -35 -29 -47zM1468 662q35 -41 111 -50l68 -4q125 -10 180 -47l4 -18q-47 -29 -101.5 -42.5t-101.5 -13.5 q-68 0 -94 21v18q20 23 41 23q10 0 14 -2l92 -35h48q14 0 27 5t30 22v22q-41 23 -87 33t-87 10q-53 0 -88 -17.5t-35 -56.5q0 -25 14 -51q23 -47 77 -68.5t116 -21.5q70 0 130 28.5t77 84.5q4 10 4 16v19q0 115 -213 139l-62 6l-63 14h-10v6q59 12 124 19q182 14 189 20 q31 10 45 35v10q-41 43 -160 43h-41q-20 0 -43 -4q-43 -4 -81 -18t-65.5 -31.5t-43 -35t-15.5 -29.5v-49zM1917 459q8 -74 55 -74q8 0 15 2q39 57 38 186q0 70 7 70q41 -88 77.5 -146.5t69.5 -86.5q6 -2 19 -2q47 0 75.5 51t28.5 129q0 47 -12.5 101t-40.5 108 q-55 92 -84 92q-10 0 -19 -8l-2 -4q2 -20 8.5 -54.5t16.5 -77.5q12 -47 22.5 -96t18.5 -100q-4 -2 -6 -4t-4 -2q-23 31 -38.5 55.5t-31.5 44.5q-35 53 -62.5 89t-50.5 59q-37 -16 -57.5 -68.5t-29.5 -110t-11 -104.5t-2 -49zM2312 465q0 -45 29 -76q31 -33 84 -33 q47 0 102.5 26t106.5 75v8q0 45 -54 45l-157 -18l-2 14q0 25 18 43q18 10 29.5 14t25.5 8h64q10 2 23.5 7.5t35.5 13.5v14q0 27 -18 37q-29 6 -59.5 8t-59.5 2q0 20 19 49h120q59 0 74 35q-6 39 -39 60q-23 18 -86 18q-31 0 -64.5 -4t-65.5 -9t-59.5 -12.5t-43.5 -13.5v-8 q0 -43 69 -55q0 -6 4 -11q-14 -57 -67 -79q0 -6 -2 -11q0 -14 2 -14q2 -6 4 -10t2 -8t-2 -7l-25 -59q-8 -23 -8 -49zM2615 92q0 14 2 23q16 68 29.5 137.5t36.5 134.5q20 59 20 70l-14 20q-14 27 -14 60q0 47 22.5 98t51 93t57 69.5t41.5 27.5q6 0 6 -4q2 -2 2 -10 q0 -27 -39 -109q-53 -111 -53 -129v-16q41 57 86 104.5t98 83.5q47 35 55 35h9q31 0 67.5 -36.5t36.5 -104.5q0 -35 -14 -76q-14 -37 -43 -74.5t-67 -66.5t-81 -47.5t-86 -18.5l-20 2q-16 -45 -26.5 -74.5t-17.5 -51t-11.5 -37t-6.5 -27.5l-39 -168q-41 4 -64.5 30.5 t-23.5 61.5zM2871 483h31q4 0 26.5 10.5t49 31t47 51t20.5 69.5v6q0 35 -10 41q-55 -43 -92 -94q-72 -94 -72 -111v-4zM2941 49v236h90q10 -4 21 -11q4 -4 9 -10t9 -14q2 -4 4 -11.5t2 -15.5q0 -27 -14 -45q-16 -16 -41 -22l84 -107h-47l-80 107h-2v-107h-35zM2978 184h8 q16 0 26.5 2t14.5 4q6 6 7 12.5t1 16.5q0 16 -12 29q-4 2 -14.5 4t-22.5 2h-8v-70zM3195 408v663h82v-663h-82zM3326 49v236h133v-31h-94v-59h94v-35h-94v-76h94v-35h-133zM3371 608q0 96 49 158q45 61 119 61q51 0 80 -20q16 -10 28.5 -25.5t16.5 -33.5v67h88v-407h-88v51 q-20 -37 -51 -51q-16 -10 -32.5 -14.5t-37.5 -4.5q-78 0 -127 60q-20 29 -32.5 69.5t-12.5 89.5zM3463 608q0 -35 7.5 -58.5t19.5 -41.5q27 -35 74 -35t75.5 39t28.5 96q0 63 -29 103q-12 16 -30.5 25t-40.5 9q-49 0 -78 -38q-12 -18 -19.5 -42t-7.5 -57zM3688 98l31 13 q4 -10 19 -25q6 -6 26 -6q23 0 29 6q10 14 10 29q0 20 -35 35q-4 4 -6 4q-43 20 -53 34q-14 14 -14 37q0 16 6 27.5t16 21.5q23 18 51 19q25 0 41 -10q20 -12 25 -29l-27 -16q-6 4 -9 8t-9 8t-21 4q-4 0 -11 -1t-13 -7q-6 -10 -6 -21q0 -18 36 -41q43 -14 58 -32 q10 -16 10 -41q0 -31 -20 -52q-23 -23 -58 -22q-16 0 -28.5 5l-22.5 9q-19 18 -25 43zM3869 408v407h77v-67q12 23 28 36t34 23q29 20 84 20q23 0 40 -4t30 -8q16 -10 26 -20.5t19 -26.5q6 -8 8 -17.5t6 -19.5t4 -31v-47v-245h-84v208q0 39 -5 65t-13 40q-16 27 -62 27 q-16 0 -29.5 -2.5t-25.5 -12.5q-10 -4 -20.5 -12t-14.5 -19q-6 -8 -8 -17t-6 -19.5t-4 -28.5v-45v-184h-84zM4076 168q0 12 2 24.5t8 22.5q4 10 10 21.5t16 21.5q18 18 43 25q20 10 47 10q23 0 50 -10q20 -6 39 -25q10 -10 16 -21.5t12 -21.5q10 -20 10 -47q0 -23 -10 -49 q-6 -10 -12 -20.5t-16 -18.5q-14 -14 -39 -29q-27 -10 -50 -10q-25 0 -51 10q-25 14 -39 29q-10 8 -16 18.5t-10 20.5q-10 20 -10 49zM4116 150q0 -8 5 -17q4 -10 9 -15t11 -14q12 -12 27 -18q10 -4 17 -5t17 -1t17.5 1t15.5 5q14 6 27 18q6 8 11 13.5t11 15.5q2 8 2 17v18 v16q0 8 -2 19q-6 8 -11 15t-11 11q-4 8 -11.5 12.5t-15.5 8.5t-15 6t-18 2q-10 0 -17 -2t-17 -6q-16 -4 -27 -21q-6 -4 -11 -11t-9 -15q-4 -10 -5 -19v-16v-18zM4311 608q0 100 45 158q45 61 123 61q47 0 76 -20q33 -18 49 -59v323h84v-663h-84v51q-10 -18 -24.5 -30.5 t-28.5 -20.5q-16 -10 -34 -14.5t-36 -4.5q-78 0 -125 60q-45 57 -45 159zM4401 608q0 -63 25 -100q27 -35 78 -35q49 0 71 39q33 39 33 96q0 35 -8 59.5t-21 43.5q-14 16 -31.5 25t-43.5 9q-47 0 -74 -38q-29 -35 -29 -99zM4573 49v236h90q8 -2 13.5 -4t11.5 -7 q10 -10 16 -24q4 -6 4 -27q0 -31 -14 -45q-10 -16 -39 -22l80 -107h-41l-80 107h-4v-107h-37zM4610 184h8q16 0 26.5 2t14.5 4q4 6 7 12.5t3 16.5q0 14 -10 29q-4 2 -14 4t-27 2h-8v-70zM4774 473q0 -20 14.5 -34.5t34.5 -14.5t34.5 14.5t14.5 34.5t-15.5 34.5t-33.5 14.5 q-20 0 -34.5 -14t-14.5 -35zM4778 473q0 16 13.5 30.5t31.5 14.5q16 0 30.5 -14.5t14.5 -30.5q0 -18 -13.5 -31.5t-31.5 -13.5t-31.5 13.5t-13.5 31.5zM4794 442h27v4q-8 0 -8 5v20h4l22 -29h13v4h-4q-2 2 -4 3l-3 4l-14 18q16 6 17 16q0 16 -21 17h-27v-4q2 0 7 -4v-47 q-2 -2 -9 -3v-4zM4813 475v23l2 2h2q16 0 16 -13q0 -12 -20 -12zM4934 254v31h163v-31h-61v-205h-39v205h-63zM5167 106q0 -20 14.5 -34.5t34.5 -14.5t34.5 14.5t14.5 34.5t-15.5 35t-33.5 15q-20 0 -34.5 -14.5t-14.5 -35.5zM5171 106q0 16 13.5 31t31.5 15 q16 0 30.5 -14.5t14.5 -31.5q0 -18 -13 -31.5t-32 -13.5q-18 0 -31.5 13.5t-13.5 31.5zM5188 76h26v4q-8 0 -8 4v20h4l23 -28h12v4h-4q-2 2 -4 2l-2 4l-15 18q16 6 17 17q0 16 -21 16h-26v-4q2 0 6 -4v-47q-2 -2 -8 -2v-4zM5206 109v22l2 2h2q16 0 16 -12t-20 -12z" />
<glyph unicode="&#xb0;" horiz-adv-x="8673" d="M51 1272l199 172q33 -27 61.5 -56.5t49 -57t35 -49t20.5 -28.5l274 187q51 -6 90 -34t66.5 -57.5t47 -53t34.5 -23.5l268 172q49 0 86 -25.5t70 -58.5q49 -61 59 -146.5t10 -158.5v-760q0 -23 11.5 -43.5t26 -38.5t28.5 -31.5t20 -19.5l-186 -162q-20 4 -48 17.5 t-55.5 35t-49 52t-27.5 71.5v934q0 10 -4 24.5t-11.5 28t-19.5 22.5t-29 9l-155 -102v-816q0 -14 11 -29.5t24.5 -29.5t26.5 -25.5t20 -15.5l-181 -176q-29 8 -60.5 25.5t-58 41t-43 52t-16.5 57.5v946q0 31 -16.5 51.5t-50.5 20.5l-156 -102v-816q0 -10 10 -25t22.5 -29.5 t26 -27t19.5 -18.5l-197 -170q-31 0 -59.5 16.5t-51 42t-37 55.5t-14.5 56v926v26q0 25 -10 44.5t-24.5 36t-30 31.5t-25.5 32zM1503 641q0 160 64.5 280.5t210.5 188.5q35 16 52 22.5t38 6.5q41 0 76.5 -27t58.5 -63q6 -4 16.5 -17.5t20.5 -31t17 -34t7 -24.5v-491 q0 -27 25 -53.5t41 -35.5l-143 -126q-18 6 -38 19t-38.5 27.5t-34 28t-23.5 21.5q-23 0 -41 -10.5t-36.5 -22.5t-39 -25.5t-44.5 -19.5q-59 20 -95 63t-57.5 97.5t-29 114t-7.5 112.5zM1675 631q0 -49 28 -96.5t81 -79.5q31 4 44 15t25 34v180v127q0 49 -12 84t-63 78 q-35 0 -54.5 -36t-31 -82t-14.5 -90t-3 -63v-71zM2136 180q0 23 8 59.5t27 55.5l174 -102q-4 -10 -5 -23.5t-1 -30.5q0 -41 32.5 -48t69.5 -7h29q31 0 62.5 7t41.5 26q4 4 4 16q0 23 -8 54.5t-18 62.5t-18.5 54.5t-8.5 29.5v2l-164 -82q-55 31 -89 57.5t-52 53t-27.5 54 t-17.5 62.5v402q0 16 2 27.5t18 31.5l316 221l217 -202v-539q14 -55 19.5 -98t5.5 -84q0 -61 -26 -110.5t-67 -83.5t-96 -51.5t-113 -17.5q-49 0 -104 9.5t-102 32t-78 62.5t-31 99zM2376 516q0 -23 24.5 -45t46.5 -27q6 0 19.5 6.5t26 15.5t22.5 18.5t10 13.5v372 q0 10 -10 22.5t-22.5 24t-26 20.5t-19.5 15q-18 -12 -44.5 -27.5t-26.5 -37.5v-371zM2781 1272q4 2 5 3t5 3q35 23 66.5 45t60.5 55q4 -12 19.5 -27.5t37 -28.5t46 -23.5t47.5 -10.5q0 -25 -14.5 -45t-36 -35.5t-47 -23.5t-45.5 -8q-39 0 -82 27.5t-62 68.5zM2800 1026 l131 90q16 -6 33.5 -19.5t32 -28.5t23.5 -31.5t9 -26.5v-559q0 -23 19.5 -44.5t31.5 -39.5l-112 -113q-23 4 -47.5 13t-44 23.5t-33 36t-13.5 52.5v563q0 23 -6 45.5t-24 38.5zM3105 668q0 143 53 254.5t158 205.5q12 12 28.5 21.5t36.5 9.5q2 0 11.5 -4t18.5 -9t18.5 -10.5 t11.5 -7.5q8 -2 28.5 -16t41 -31.5t35.5 -32t15 -16.5l-102 -133q-18 4 -36.5 22.5t-41.5 30.5q-4 6 -22.5 13.5t-32.5 7.5h-4q-23 -23 -35 -57.5t-17 -71.5t-6.5 -70t-1.5 -53q0 -78 19.5 -125t50.5 -80q23 -29 53.5 -47t61.5 -28.5t55.5 -14.5t34.5 -4q-4 -4 -22.5 -30.5 t-39 -57.5t-39 -55.5t-24.5 -24.5q-51 4 -90 19.5t-80 37.5q-43 31 -69.5 71t-42 87t-20.5 98.5t-5 100.5zM3879 1284v4l174 156q33 -10 66.5 -35t60.5 -54.5t43 -60t16 -53.5v-371q0 -4 7.5 -5t11.5 -1h10q33 31 64.5 59.5t59.5 59.5t48.5 66.5t32.5 83.5v43 q0 37 -9.5 70.5t-15.5 49.5q0 2 -1 3t-1 4l205 131q18 -6 32.5 -36t25 -62.5t15.5 -61.5t5 -33q0 -25 -3 -54.5t-11.5 -59t-20.5 -56.5t-31 -45l-180 -192q-2 0 -6 -11.5t-4 -21.5q0 -8 4 -8l108 -56q23 -12 51.5 -38.5t45.5 -45.5q18 -23 29.5 -59.5t17.5 -80.5t9 -91 t3 -90q8 -80 84 -156l-203 -170q-25 6 -54.5 24.5t-55 43t-43 52.5t-17.5 54v312q0 2 -3 19t-10 42t-15 35q0 12 -6 18l-60 62h-37q-2 0 -10 -8.5t-19.5 -19.5t-22.5 -22.5t-17 -17.5q-12 -12 -13 -18v-306q0 -35 30 -67.5t52 -46.5l-209 -156q-29 6 -57.5 28.5t-50 51.5 t-34.5 57.5t-13 49.5v839v127q-4 35 -32 69t-46 56zM4815 1272q37 25 70.5 48t66.5 58q6 -12 21.5 -27.5t37 -28.5t45 -23.5t46.5 -10.5q0 -25 -15.5 -45t-37 -35.5t-46 -23.5t-43.5 -8q-43 0 -85 27.5t-60 68.5zM4833 1026l133 90q14 -6 31 -19.5t30 -28.5t22.5 -31.5 t9.5 -26.5v-559q0 -23 20.5 -44.5t36.5 -39.5l-117 -113q-23 4 -47.5 13t-43.5 23.5t-32.5 36t-13.5 52.5v563q0 23 -6 45.5t-23 38.5zM5097 1032l134 113q37 -12 56 -29.5t30.5 -35t16.5 -32t15 -22.5q61 25 100.5 42t65 29.5t38.5 19.5t24 11q68 -37 94.5 -93t26.5 -130 v-430q0 -37 19 -60.5t40 -41.5l-115 -113q-31 0 -56.5 17.5t-44 44t-27.5 58.5t-9 58v477q0 20 -10 25.5t-15 5.5q-37 -12 -64.5 -20t-49.5 -27v-424q0 -33 20.5 -53.5t34.5 -42.5l-121 -119q-35 0 -58.5 22.5t-37.5 53.5t-21.5 63.5t-7.5 55.5v393q0 66 -12 106.5t-66 77.5 zM5749 180q0 23 10 59.5t27 55.5l174 -102q-4 -10 -5 -23.5t-1 -30.5q0 -41 32.5 -48t67.5 -7h31q33 0 62.5 7t39.5 26q6 4 6 16q0 25 -9 58.5t-19.5 65.5t-18.5 54.5t-6 24.5l-162 -82q-55 31 -89 57.5t-53.5 53t-28.5 54t-15 62.5v402q0 16 2 27.5t16 31.5l318 221 l215 -202v-539q12 -55 18 -98t6 -84q0 -61 -24.5 -110.5t-66.5 -83.5t-96 -51.5t-112 -17.5q-49 0 -105.5 9.5t-104.5 32t-78.5 62.5t-30.5 99zM5990 516q0 -23 25 -45t47 -27q6 0 19.5 6.5t25.5 15.5t22.5 18.5t10.5 13.5v372q0 10 -10.5 22.5t-22.5 24t-25.5 20.5 t-19.5 15q-18 -12 -45 -27.5t-27 -37.5v-371zM6392 662q0 129 43 222t139 183q16 18 39 27.5t55 15.5q23 -6 47.5 -11t46.5 -20v258q0 23 9.5 47.5t25 46t37 36t45.5 14.5q39 0 76 -32t59 -65q-41 -41 -50 -72.5t-9 -78.5v-801l53 -70q-16 -20 -50 -53t-50 -55h-12 q-16 0 -34 9t-35 23.5t-31.5 29t-20.5 26.5l-137 -88h-19q-55 0 -98 48t-72 113.5t-43 134t-14 112.5zM6578 737q0 -43 2 -86t13.5 -82t37 -69.5t72.5 -48.5q16 0 35.5 15t23.5 32v372q0 10 -12 25.5t-28.5 30t-34 25t-25.5 10.5q-23 0 -38 -28t-25.5 -66t-15.5 -75t-5 -55z M7018 653q0 80 24 160t70 147.5t110.5 116.5t148.5 68q76 -29 126 -77t79.5 -107.5t41 -129t11.5 -141.5q0 -49 -14.5 -107.5t-47 -117.5t-87 -113.5t-132.5 -97.5q-96 25 -159.5 62.5t-101.5 89t-53.5 113.5t-15.5 134zM7178 721q0 -35 4 -72t22.5 -75.5t53.5 -77.5t96 -74 q37 25 58.5 66.5t33 84.5t13.5 80t2 49q0 37 -3 76t-17.5 76t-45 72t-84.5 63q-57 -33 -95 -105.5t-38 -162.5zM7668 1026l112 90q51 -23 75 -53.5t36 -52.5q16 6 40.5 20t51.5 31.5t54.5 33t52.5 21.5q20 -6 39.5 -21.5t37 -33t30.5 -33.5t20 -24q51 31 99 60.5t101 45.5 q37 0 60.5 -17.5t39 -43t23.5 -56t14 -57.5v-481q0 -29 25 -49.5t43 -38.5l-115 -113q-41 0 -67.5 24.5t-43 59.5t-22.5 73t-6 64v424q-16 20 -39 37q-16 -16 -46 -32.5t-52 -33.5v-415q0 -29 18.5 -49.5t36.5 -38.5l-119 -113q-20 0 -42.5 17.5t-41 42t-31 49t-12.5 40.5 v512q-12 16 -19.5 21.5t-23.5 5.5q-23 -4 -53.5 -29.5t-52.5 -42.5v-415q0 -29 20.5 -51.5t38.5 -36.5l-112 -113q-29 0 -53.5 15.5t-44 39t-31 51t-11.5 50.5v520q0 53 -30 96z" />
<glyph unicode="&#xb1;" horiz-adv-x="7114" d="M150 682q0 41 6 90q20 129 68 222t102.5 153.5t104.5 89.5t79 31l8 -8l-4 -15q0 -2 -35 -43q-102 -117 -156.5 -234.5t-60.5 -246.5q-2 -16 -2 -33v-31q0 -170 90 -170q33 0 74 21q-10 63 -15.5 115.5t-5.5 97.5q0 53 9.5 96t31.5 78q33 51 83.5 86t97.5 35 q43 0 74.5 -37t35.5 -125v-12q0 -94 -45 -176t-143 -154v-2q0 -27 27.5 -48.5t72.5 -21.5q47 0 103.5 34t109.5 120q47 76 67.5 158t20.5 161q0 123 -38 227.5t-93 166.5l-43 49q-4 4 -4 6q0 6 12 6q20 0 74.5 -32.5t114.5 -123.5q57 -88 77.5 -172t20.5 -159 q0 -84 -16.5 -148.5t-30.5 -101.5q8 0 12 -4q18 10 28.5 15t14.5 15l33 56q41 84 137 196h17q25 -29 42 -83t28.5 -116.5t16.5 -127t5 -111.5q0 -76 -10 -82q-84 6 -84 107q0 6 1 13t1 15h-119q-43 -119 -60 -149q-16 -6 -28 -6q-27 0 -37 20.5t-10 48.5q0 39 12 70 q14 31 14 57q0 27 -22 33q-78 -135 -175.5 -201.5t-187.5 -72.5h-12q-63 0 -112.5 31.5t-75.5 97.5q-53 -20 -105 -21q-86 0 -141 61.5t-55 188.5zM524 659q0 -45 6 -53h9q2 2 12 17.5t25.5 41t23.5 48.5q29 63 29 131q0 59 -21 108h-10q-20 -25 -34.5 -62.5t-23 -78.5 t-12.5 -81t-4 -71zM1192 631h47q16 0 16 8l-12 82h-12q-39 -70 -39 -86v-4zM1366 530q0 -8 2 -14q8 -59 36 -82.5t62 -23.5q29 0 59.5 12t55.5 32.5t41 43t16 45.5q0 18 -14 32h-4q-8 0 -34.5 -6t-69.5 -22q-37 -12 -46 -12q-4 0 -6 2q-2 0 -2 12q0 16 6.5 56t22.5 104 q16 55 22.5 92t6.5 53v8q-12 33 -27 33q-18 0 -40.5 -37t-41 -91t-32 -114.5t-13.5 -105.5v-17zM1552 813q0 4 1 7t1 7q0 20 10.5 31.5t24.5 15.5q25 -86 146 -86q33 41 62.5 57.5t55.5 16.5q41 0 66 -31.5t25 -68.5q0 -35 -28 -65.5t-87 -30.5q-10 0 -19.5 1t-19.5 3v-17 l-14 -63q-6 -33 -13 -197q0 -45 -2 -75t-6 -50q-4 0 -6 -1t-6 -1q-45 0 -75 46t-30 106v12q0 8 2 14v29q4 47 9.5 83t11.5 62l22 68l-4 4v2q-127 49 -127 121zM1819 1174v8q0 78 106 102q43 10 88 15.5t92 5.5q113 0 228.5 -27t223 -73t202 -108.5t165 -134t111.5 -149.5 t41 -154q0 -74 -42 -142t-140 -128q-123 -74 -273 -74h-38q-18 0 -39 4q-33 6 -64 13q-33 2 -50 4t-22 2q-6 -41 -25 -51.5t-42 -10.5q-8 4 -17.5 5.5t-13.5 5.5q-39 104 -51 110l-51 33q-100 59 -158.5 123.5t-58.5 103.5v5q12 90 297 153l2 29q2 28 8 82q12 66 37 110h18 q49 -31 55 -157v-60h21q16 0 51 -4q100 0 168 -21.5t102 -60.5q31 -35 31 -65q0 -41 -33.5 -68t-70.5 -27q-27 0 -43 15l4 10q23 16 37 27.5t14 19.5v12q-72 31 -137.5 42.5t-106.5 11.5q-39 0 -41 -6v-265q16 -10 57.5 -17t96.5 -7q61 0 129 11t126 38t96 73t38 115 q0 43 -14 88q-25 72 -105 156t-197.5 155.5t-266 120t-310.5 48.5q-88 0 -180 -19l10 -4q25 0 41 -16v-17q-12 -12 -24 -12h-35q-35 0 -47 21zM1827 780q0 -4 10 -4q12 0 31.5 7.5t19.5 15.5v8q0 8 -10 8h-20l-21 -12v-8q0 -2 -10 -2v-13zM2032 651q0 -10 20.5 -33.5t54 -51 t78.5 -52.5t94 -33l9 228h-45q-125 0 -211 -56v-2zM3004 1012q0 43 29 80.5t70 65.5t86 44.5t78 16.5q20 0 32 -7l56 -30l51 -29q41 -20 41 -59q0 -33 -28 -71t-67.5 -69.5t-83.5 -53t-79 -21.5h-13q-33 6 -50 9l-17 3q-17 -33 -31 -37h-12q-10 12 -18.5 23.5t-8.5 17.5 l-8 51l-25 47q0 4 -1 9.5t-1 9.5zM3074 1016q6 4 14.5 10t18.5 18q4 8 15 19.5t28 28.5l14 14v8h-2q-12 0 -27.5 -10t-29 -23.5t-22.5 -30t-9 -28.5v-6zM3107 510q0 -29 1 -46.5t1 -19.5q6 -39 24.5 -52t38.5 -13q10 0 20.5 3t16.5 7l2 51q2 10 2 19v18q0 18 -1 35.5 t-1 34.5v69q0 104 -11 153.5t-44 49.5h-6q-14 -20 -22.5 -58t-13.5 -82t-6 -89t-1 -80zM3160 971q0 -13 16 -15q12 0 33 5.5t51 15.5q53 16 80 39.5t33 50.5q2 6 2 16q0 29 -31 29q-29 0 -71.5 -24.5t-83.5 -71.5q-29 -29 -29 -45zM3248 657q35 -41 115 -47l61 -4 q127 -12 183 -47l4 -20q-47 -29 -104.5 -41.5t-104.5 -12.5q-31 0 -54.5 4.5t-33.5 14.5v20q18 23 41 23q6 0 14 -4l92 -35h47q27 0 56 29v22q-86 41 -170 41q-53 0 -89 -17.5t-36 -56.5q0 -23 14 -49q23 -47 78 -69.5t117 -22.5q70 0 129 28.5t73 82.5q6 20 6 41 q0 109 -215 137l-61 4l-59 14h-13v8q29 4 58.5 8.5t64.5 8.5l141 15l48 5q27 8 47 35v12q-43 43 -164 43q-18 0 -38 -1t-42 -3q-45 -4 -82 -18t-64.5 -31.5t-43 -35t-15.5 -29.5v-52zM3697 457q6 -74 53 -74q12 0 18 2q14 29 24.5 75t10.5 111q6 70 8 70q41 -88 77 -146.5 t69 -84.5q6 -2 18 -2q47 0 77 49t30 127q0 47 -14.5 102t-43.5 109q-53 92 -82 92q-8 0 -16 -8q0 -4 -4 -5q4 -23 9 -54.5t18 -76.5q12 -47 21 -96t17 -100q-8 -8 -10 -8q-23 31 -38 56.5t-29 45.5q-33 53 -63 89t-52 58q-25 -12 -41 -39.5t-27.5 -64.5t-17.5 -76t-9 -71.5 t-3 -55.5v-24zM4092 463q0 -45 31 -78q31 -31 82 -31q45 0 99 24.5t105 74.5q2 6 2 14q0 43 -51 43q-14 0 -22 -2l-138 -21q0 4 -1 7.5t-1 7.5q0 23 19 45q37 20 55 20l64 4q10 0 25.5 5.5t31.5 13.5q4 12 4 18q0 18 -18 33q-31 4 -60.5 6t-58.5 2q0 20 20 51h121 q51 0 72 33q-4 20 -14.5 35.5t-24.5 26.5q-23 16 -82 16q-31 0 -64.5 -4t-66.5 -9t-60.5 -11.5t-46.5 -10.5q-2 -4 -2 -12q0 -45 72 -55v-9q-10 -66 -65 -77v-17v-12q8 -6 8 -23l-25 -59q-10 -20 -10 -49zM4391 96q0 12 2 19q18 68 31.5 135t36.5 133q23 55 22 66q0 2 -1 3 l-1 1l-12 20q-12 27 -13 59q0 47 21.5 98.5t50.5 94.5t56.5 70.5t39.5 27.5q2 0 7 -4q2 -4 2 -12q0 -33 -39 -111q-53 -106 -54 -125q2 -4 2 -20q41 59 86.5 106.5t96.5 85.5q49 33 55 33q4 0 5 1t5 1q31 0 67 -36.5t36 -102.5q0 -35 -15 -76q-14 -39 -42.5 -75.5 t-65.5 -66.5t-79 -47.5t-83 -17.5q-16 0 -25 2q-63 -188 -63 -192l-12 -51l-23 -111v-4q-43 4 -68.5 31.5t-25.5 64.5zM4649 481h29q4 0 27.5 11.5t49 32t47 50t21.5 66.5v8q0 35 -12 41q-51 -41 -90 -96q-72 -94 -72 -109v-4zM4866 965q12 0 21.5 -2t17.5 -7q14 -6 20 -26 q4 -4 25 -68l156 -512h16l123 393l121 -393h16l150 496q10 31 16 50t12 30q4 12 10.5 18t12.5 12q16 8 35 9v16h-160v-16q10 0 19.5 -2t19.5 -7q10 0 16 -10q2 -4 2 -20q0 -12 -4 -30.5t-10 -49.5l-102 -338l-107 336q-10 29 -13 49t-3 33q0 14 8 26q12 12 35 13h12v16h-209 v-16q20 0 25 -4q6 0 9 -3.5t9 -9.5q6 -2 7 -4t5 -6q14 -23 21 -43l10 -41l16 -51l-86 -295l-106 346q-10 31 -15.5 48.5t-5.5 23.5q0 16 13 26q12 12 30 13h13v16h-201v-16zM5587 567q0 59 25 115q10 29 27.5 49.5t37.5 32.5q41 29 88 29q82 0 129 -72q43 -59 43 -141 q0 -31 -6 -58.5t-16 -56.5q-25 -59 -64 -86q-41 -29 -90 -29q-80 0 -135 76q-39 63 -39 141zM5663 606q0 -47 6 -86t24 -71q29 -66 82 -66q41 0 64 35q12 16 18 49t6 76q0 117 -41 178q-31 43 -73 43q-10 0 -20.5 -3t-18.5 -13q-25 -10 -37 -52q-10 -37 -10 -90zM5974 741 l2 -16q16 8 29 8q8 0 16 -8q4 -6 10 -20v-87v-161v-47q-4 -6 -6 -11.5t-8 -9.5q-14 -10 -41 -10v-17h186v17q-12 0 -21 2t-17 4q-8 4 -17 21q-6 10 -7 23t-1 32v201q10 23 18.5 36t16.5 23q12 12 16 12q6 0 12.5 -5t12.5 -11q18 -16 30 -17q16 0 27 13q4 6 6 13t2 17 q0 18 -10 33q-16 16 -37 17q-47 0 -94 -97v97h-21zM6261 961l8 -15q10 2 15 4t12 2q4 0 8 -2l8 -4q0 -4 8 -20v-90v-379v-33q0 -12 -4 -23q-6 -10 -16 -16q-4 -2 -12.5 -4t-18.5 -2v-17h176v17q-10 0 -21.5 2t-17.5 4q-4 4 -8 7t-8 14q0 6 -2 18t-2 33v555h-15zM6488 555 q0 90 51 166q51 74 127 74q23 0 43.5 -8.5t34.5 -30.5v80v57q0 23 -2 33q0 12 -8 20q-4 2 -7 4t-10 2q-6 0 -12 -2t-14 -4l-4 15l106 51h19v-484v-59q0 -23 4 -33q0 -14 8 -22q4 -4 16 -4q4 0 10.5 1t16.5 7l4 -17l-106 -51h-21v60q-10 -18 -24.5 -29.5t-26.5 -18.5 q-22 -12 -53 -12q-59 0 -103 56q-49 57 -49 149zM6564 590q0 -90 35 -141q36 -52 75 -52q20 0 37 11.5t33 31.5v217q0 16 -2 29.5t-12 26.5q-6 25 -29 39q-23 12 -39 12q-39 0 -63 -35q-35 -51 -35 -139zM6894 948q0 -20 14 -34.5t35 -14.5q20 0 34.5 14.5t14.5 34.5 t-15.5 34.5t-33.5 14.5q-20 0 -34.5 -14t-14.5 -35zM6898 948q0 16 13.5 30.5t31.5 14.5q16 0 30.5 -14t14.5 -31q0 -18 -13.5 -31.5t-31.5 -13.5t-31.5 13.5t-13.5 31.5zM6914 918h27v4q-8 0 -9 4v20h5l22 -28h12v4h-4q-2 2 -4 2l-2 4l-14 18q16 6 16 17q0 16 -20 16h-27 v-4q2 0 6 -4v-47q-2 -2 -8 -2v-4zM6932 950v23q2 2 3 2h2q16 0 16 -12t-21 -13z" />
<glyph unicode="&#xb2;" horiz-adv-x="5302" d="M80 18v1416h1094q86 0 149 -35q31 -16 59.5 -49t57.5 -74q16 -27 31.5 -58.5t25.5 -68.5q12 -37 17.5 -77t5.5 -83v-520q0 -47 -5.5 -87t-17.5 -75q-10 -31 -26.5 -65.5t-43.5 -69.5q-53 -86 -114 -119q-64 -35 -146 -35h-1087zM168 727q0 -131 49 -246.5t135 -201.5 t202 -135.5t247 -49.5t245.5 49.5t200.5 135.5t135.5 201.5t49.5 246.5t-49.5 245.5t-135.5 201t-200.5 135.5t-245.5 49t-247 -49t-202 -135.5t-135 -201t-49 -245.5zM289 727q0 104 40 197.5t109.5 163t162.5 109.5t200 40q104 0 197.5 -40t163 -109.5t109.5 -163 t40 -197.5q0 -106 -40 -199.5t-109.5 -163t-163 -109.5t-197.5 -40q-106 0 -199.5 40t-163 109.5t-109.5 163t-40 199.5zM379 913q0 -66 45 -111.5t108 -45.5q20 0 38 2t34 10q-20 -29 -31.5 -63.5t-11.5 -73.5q0 -53 19.5 -98.5t51.5 -79t76 -53t93 -19.5t93 19.5t75.5 53 t50 79t18.5 98.5q0 80 -39 137q14 -8 33 -10t35 -2q66 0 112 46t46 111q0 66 -46 112t-112 46t-113 -46t-47 -112q0 -18 4 -36.5t15 -32.5q-57 35 -125 35q-66 0 -125 -35q10 14 13 32.5t3 36.5q0 66 -46 112t-114 46q-63 0 -108 -46t-45 -112zM1612 102v562h272 q31 0 51 -17q12 -10 21.5 -24.5t13.5 -44.5q0 -4 3 -44t3 -141q0 -80 -1 -128t-4 -74.5t-8 -39t-11 -22.5q-10 -10 -27.5 -18.5t-46.5 -8.5h-266zM1628 1180h72v-445h160v445h75v131h-307v-131zM1761 225h35q29 0 29 25v260q0 27 -23 27h-41v-312zM1964 827v248v23 q0 51 27.5 69.5t105.5 18.5h88q63 0 97 -17.5t34 -70.5v-215q0 -63 -4 -91t-31 -44q-4 -2 -10 -5.5t-21.5 -6.5t-44 -5t-79.5 -2q-47 0 -67.5 3t-24.5 3q-35 8 -52.5 28.5t-17.5 63.5zM2050 102h135v435h-135v-435zM2050 573h135v91h-135v-91zM2109 872q0 -34 29 -34 q12 0 22.5 7t10.5 27v179q0 10 -10.5 19t-22.5 9q-29 0 -29 -35v-172zM2271 354q0 -16 1 -33.5t9.5 -32t25.5 -23.5t50 -9h53v-49h-135v-105h197q61 0 76 64q0 4 1 19.5t1 56.5q0 35 -1 54t-3 30.5t-5.5 16.5t-5.5 9q-10 14 -25.5 21.5t-41.5 7.5h-6h-52v51h121v105h-157 q-27 0 -50.5 -5.5t-39.5 -33.5q-2 -2 -4.5 -6.5t-4.5 -15.5t-3 -31.5t-1 -55.5v-35zM2402 735h146v160h16q43 0 43 -39v-6q0 -33 1 -51.5t2 -30.5t3 -18.5t6 -14.5h148q-8 16 -12.5 36t-4.5 73q0 43 -4 56t-14 26q-20 29 -74 39q66 10 86 63q2 6 6.5 21.5t4.5 50.5v80h-148 v-109v-14q0 -49 -53 -49h-6v299h-146v-572zM2630 102h137v304q0 33 29 32q10 0 19 -8t9 -24l-4 -304h137v359q0 53 -26.5 65.5t-71.5 12.5q-72 0 -92 -47v45h-137v-435zM2804 647h280q18 14 29.5 21.5t18 16.5t11.5 23.5t11 43.5v428h-143v-238q0 -16 -9.5 -24.5t-19.5 -8.5 t-20.5 8.5t-10.5 24.5v238h-143v-219q0 -66 10 -106t37 -40h123q20 0 26 6q4 4 6 25l1 20h24v-82h-176zM3039 215v217q0 41 4 54.5t13 23.5q10 12 23 19.5t42 7.5h146q59 0 80.5 -20.5t21.5 -76.5v-176h-193v-28q0 -29 27 -29h162l4 -105h-221q-37 0 -68 7.5t-39 52.5 q0 4 -1 10t-1 43zM3176 348l56 -2v57q0 10 -8.5 19.5t-20.5 9.5q-10 0 -18.5 -8t-8.5 -25v-51zM3232 827v248q0 33 5 54.5t19.5 34t42 17.5t70.5 5h88q47 0 66.5 -6t23.5 -11q16 -10 28.5 -26.5t12.5 -44.5v-215q0 -63 -5 -91t-34 -44q-4 -2 -9 -5.5t-20.5 -6.5t-45 -5 t-80.5 -2q-45 0 -67 3t-26 3q-33 8 -49 28.5t-20 63.5zM3379 872q0 -34 31 -34q29 0 29 34v179q0 10 -8.5 19t-20.5 9t-21.5 -9t-9.5 -26v-172zM3432 0h283q18 14 28.5 22.5t16.5 17.5t10 24.5t11 44.5v428h-142v-238q0 -16 -10 -24.5t-20 -8.5q-12 0 -21.5 8.5t-9.5 24.5 v238h-144v-220q0 -66 12.5 -105.5t37.5 -39.5h123q8 0 15 1t11 5t5 24l1 19h25v-82h-174zM3848 102h135v562h-135v-562zM4067 190v35v203q0 57 20.5 84t86.5 27q41 0 61.5 -12.5t30.5 -34.5v45h133v-435h-133v43q-10 -23 -34 -35t-73 -12q-51 0 -71.5 20.5t-20.5 71.5z M4209 240q0 -23 8 -30t18 -7q29 0 29 41v155q0 35 -29 35q-10 0 -18 -9t-8 -26v-151v-8zM4485 102h137v304q0 33 29 32q10 0 19.5 -8t9.5 -24v-304h133v359q0 53 -26.5 65.5t-72.5 12.5q-72 0 -92 -47v45h-137v-435zM4895 442q0 33 10 56q10 20 27.5 30.5t60.5 10.5 q45 0 67.5 -12.5t32.5 -34.5v172h138v-562h-138v41q-14 -45 -84 -45q-23 0 -43 2t-35.5 12.5t-24.5 30t-9 54.5v10v205zM5038 236q0 -33 29 -33q10 0 18 8t8 27v155q0 14 -1 19l-1 4q-10 18 -24 18q-10 0 -23 -12q-4 -4 -5 -8t-1 -25v-151v-2z" />
<glyph unicode="&#xb3;" horiz-adv-x="5433" d="M35 1311l8 -15l25 -10l34 -2h17l18 6l6 15v8l-2 6l-14 6l-23 -6h-18l-6 12l4 2l12 10l56 11l84 10l96 -4l94 -4l29 -2l80 -13l135 -34l86 -29l127 -66l80 -47l73 -49l94 -78l72 -80l37 -49l31 -49l20 -49l10 -47v-41l-4 -23l-10 -47l-18 -43l-29 -37l-33 -30l-41 -29 l-43 -22l-47 -17l-49 -16l-57 -6h-60l-100 6l-117 16v316l133 -7l54 -2l57 -12l53 -20l25 -17l2 -8l-2 -16l-13 -19l-38 -18l-7 -10l2 -3l15 -10l24 -6h17l55 29l14 10l17 23l10 38l-2 19l-18 35l-21 24l-43 25l-57 26l-62 17l-92 14h-82l-49 -8v25v102l-10 51l-8 31l-25 31 l-10 8h-13l-6 -2l-8 -8l-16 -70l-15 -82v-92l-6 -4l-133 -31h-8l-72 -23l-45 -20l-37 -27l-20 -26l-10 -19v-8l10 -37l12 -32l29 -33l88 -78l45 -31l27 -18l49 -27l59 -31l10 -71l2 -17l17 -18l12 -8l27 -6h14l23 6l16 14l6 10l4 33l58 -16l63 -11l29 -4h59l64 4l71 5l72 16 l66 22l28 19l62 37l59 43l27 26l34 41l23 41l14 52l6 53v37l-6 59l-18 53l-29 56l-43 61l-82 84l-88 92l-86 55l-80 50l-55 28l-119 51l-123 43l-112 29l-58 14l-61 5l-41 4l-125 4l-96 -15l-55 -12l-46 -12l-28 -17l-31 -30l-10 -27v-16zM285 725q0 10 8 18 q10 10 29.5 15.5t48.5 11.5q10 2 24.5 3t30.5 3q33 4 76 6l61 2v-260q-41 16 -74.5 31t-62.5 33q-10 4 -15 8t-16 8q-31 20 -57.5 45t-36.5 41q-16 18 -16 35zM1384 1124l7 -34l12 -35l12 -8l-4 -33l4 -31l8 -18l15 -2l20 12l27 29l24 -5l29 -2h12l62 2l28 7l15 4l16 4 l60 37l51 41l53 55l16 35l4 18v27l-14 24l-22 21l-19 6l-35 2l-14 6l-12 27l-35 20l-31 8l-18 -2l-21 -4l-30 -2l-54 -16l-41 -21l-55 -41l-37 -32l-20 -39l-8 -25zM1438 1116v25l2 12l28 31l45 41l37 18l27 8l8 -4l-2 -10l-33 -23l-24 -16l-47 -55l-11 -17l-22 -20h-2z M1489 592q0 -59 6 -123q0 -25 16.5 -32t26.5 -9q2 0 4 -1t6 -1q25 0 35 18q6 12 8 32t2 42q-2 100 -4 171t-6 120q-4 51 -13 63.5t-20 18.5q-8 8 -16 8q-21 0 -23 -35q-10 -45 -13 -91t-7 -97q-2 -23 -2 -43v-41zM1518 1071l2 2q8 10 16 20.5t14 16.5q29 33 62 61l6 5 q8 8 17.5 16t19.5 12q39 31 71 33h7q23 0 38 -10t19 -23v-10q0 -33 -31 -61q-16 -16 -45.5 -32t-58.5 -26l-8 -2q-31 -14 -72 -14q-16 0 -25 2q-12 0 -20 2l-6 3t-6 5zM1645 743l10 -20l16 -18l15 -5l38 -10l181 -14l49 -4l47 -21l35 -22l12 -19l4 -14l-4 -14l-8 -11 l-21 -14l-43 -12l-57 -15l-41 -6h-74l-32 4l-29 4l-23 17l-6 6l-2 16l6 17l8 14l19 6h22l25 -10l59 -27l19 -8h28l52 10l32 15l13 14v6l-4 4l-31 19l-57 18l-72 13h-45l-47 -9l-25 -8l-26 -16l-17 -21l-6 -24v-15l4 -20l2 -19l25 -30l16 -17l37 -22l43 -17l47 -10l47 -6 l53 2l54 12l47 17l33 16l24 19l14 16l9 20l2 43v37l-6 39l-17 27l-24 18l-29 17l-55 18l-172 21l-52 6l-22 8l-2 8l2 10l16 9l45 12l269 18l30 4l23 13l12 16v8l-8 15l-16 8l-27 6l-88 10h-113l-69 -12l-60 -10l-33 -7l-28 -18l-25 -18l-22 -31l-6 -33v-29zM2167 508l2 -55 l8 -17l25 -8h16l14 6l11 15l6 26l8 187l8 40l6 7l8 -7l33 -51l15 -43l36 -78l25 -30l33 -31l20 -16h33l14 8l13 10l22 31l23 41l10 39l8 43v45l-8 63l-10 64l-25 49l-33 57l-34 39l-27 21l-12 2l-9 -2l-6 -17l2 -20l39 -113l8 -41l11 -88l8 -72l-8 -22l-2 -2l-11 2l-22 35 l-94 145l-27 55l-37 29l-20 8h-6l-15 -8l-12 -18l-12 -25l-11 -55l-22 -193zM2595 500l2 -31l18 -33l27 -26l24 -13l21 -2h18l35 6l82 27l51 23l58 32l12 17l4 14l-4 8l-14 17l-17 10l-20 2h-25l-86 -21l-63 -6l-13 4v2l2 21l23 70l12 4l15 4l116 6l45 8l7 16l4 23l-4 18 l-9 5l-100 4l-41 2l-10 12v2l31 49l14 6h119l32 4l37 15l13 12v14l-17 27l-22 20l-19 11l-31 2l-22 -2l-193 -19l-41 -2l-34 -2l-11 -8v-8l11 -31l16 -8l29 -8l18 -6v-7l-8 -22l-18 -51l-9 -9l-28 -2l-6 -10l-5 -18l7 -43v-8l-31 -72zM2994 571l4 -41l13 -30l26 -39l25 -25 l-29 -123l-16 -112l-11 -78v-74l17 -20l39 -23l22 -6h17l6 8l6 35l4 88l12 117l27 106l16 49l58 17l55 22l35 17l16 12l41 39l33 47l27 55l16 66l4 22v33l-10 51l-10 37l-21 29l-10 4l-17 6l-32 -10l-37 -25l-17 -12l-51 -39l-53 -63l-41 -60l-39 -82l-10 -12h-6l-11 6 l-14 25l-4 24l2 37l12 39l35 51l49 74l17 41v25l-2 10l-6 2l-17 -6l-35 -35l-84 -111l-34 -55l-9 -33l-8 -43v-37zM3215 524l13 25l28 47l47 78l17 12l37 47l26 23l13 2l10 -6l10 -19l6 -10l-6 -33l-18 -47l-25 -35l-47 -51l-6 -6l-23 -19l-41 -10l-20 -8l-14 4zM3400 74h57 v73h29q23 0 39 2.5t30 10.5q27 16 27 41q0 27 -25 43q-22 12 -71 14h-86v-184zM3457 180v43h29q14 0 22 -2q4 -8 6 -11t2 -9q0 -8 -8 -15q-6 -4 -10 -4t-12 -2h-29zM3461 492q0 -12 3 -22.5t7 -20.5q10 -41 45 -58q18 -8 46 -13t55 -5h18q25 4 52.5 19.5t43.5 29.5 q18 16 25.5 33.5t7.5 27.5q0 14 -5 22.5t-21 12.5q-8 0 -24.5 -4t-34 -9t-35 -9t-27.5 -4h-19q-10 0 -15 3t-5 15q0 16 12 51t21 70q10 39 19 87t9 81q-2 29 -11 52t-24 38q-10 14 -22 23.5t-21 9.5l-4 -2q-4 -4 -4 -13q0 -10 2 -22.5t2 -28.5v-10q-2 -49 -30 -127 q-6 -18 -15.5 -43t-17.5 -49.5t-15.5 -48t-9.5 -39.5q-8 -27 -8 -47zM3764 70h62l18 39h100l23 -39h66l-107 190h-68zM3774 635l11 -39l12 -16l4 -23l-4 -74l4 -34l10 -25l19 -16l22 -13h25l4 2l6 6l4 105l8 31l11 6l28 6l64 8l59 8l21 2l6 -61v-96l6 -11l6 -4l19 -2l34 6 l23 19l22 22l11 33l6 39v55l-8 68l-17 72l-24 61l-15 35l-30 47l-33 33l-29 24l-22 6h-23l-12 -4l-23 -6l-20 -10l-21 -12l-32 -37l-27 -47l-21 -49l-26 -78l-8 -21l-13 8l-28 11h-4l-5 -17v-18zM3863 143q0 2 6 14.5t13 29t9 22.5l2 2l33 -68h-63zM3922 643v14q0 29 8 57.5 t21 55.5q4 14 17 32.5t34 20.5h6q18 -8 29.5 -30.5t15.5 -34.5l27 -107l-78 -8q-14 -2 -26.5 -3t-22.5 -1q-14 0 -31 4zM4254 436l6 -12l14 -12l21 -4l12 2l12 14l10 37l35 127l11 76l12 8l6 -8l22 -39l25 -56l43 -88l21 -30l26 -27l17 -12l22 8l29 8l22 16l21 27l14 33 l8 41l8 76v24l-8 70l-6 49l-16 45l-33 61l-25 25l-16 8h-8l-17 -2v-31l19 -98l8 -78v-63l-2 -33l-4 -16l-8 2l-19 26l-43 84l-53 90l-25 43l-18 11h-20l-23 -7l-14 -8l-21 -32l-18 -52l-39 -188l-8 -70v-45zM4256 74h61v73h12l15 -4h2l16 -16l29 -53h70l-39 63l-19 23l6 8 l23 14l2 19v22l-12 13l-19 14l-28 8h-119v-184zM4317 180v43h27q14 0 18 -2q10 -8 11.5 -11t1.5 -7q0 -12 -9 -17q-2 -2 -22 -6h-27zM4690 797l6 -15l18 -10h7l8 10v17l2 6l16 16l23 2l39 -2l49 -12l51 -25l55 -34l54 -48l30 -32l21 -35l14 -37l8 -47v-23l-8 -18l-14 -8 l-39 -19l-41 -2h-29l-51 6l-18 7v170l4 47l-6 20l-15 12h-6l-18 -4l-15 -14l-12 -20l-14 -70l-11 -80l-6 -6l-4 2l-20 22l-8 9l-7 2l-12 -2l-12 -9l-8 -16l-9 -43l2 -20l7 -17l22 -28l35 -25l16 -14l17 -48l10 -14l18 -6h35l15 8l8 6l8 25l59 6l39 8l47 15l52 32l41 35 l26 45l21 49l4 37l-4 35l-15 39l-20 37l-31 37l-35 32l-65 37l-45 21l-70 18l-65 13h-35l-31 -5l-37 -12l-22 -10l-25 -21l-4 -16v-16zM4714 74h56v184h-56v-184zM5016 197l6 -11l12 -16l16 -10l60 -19l20 -12l6 -8l-6 -12l-16 -7h-39l-53 19v-35l14 -6l33 -6l45 -4l18 4 l31 6l16 12l11 10l4 13l2 22l-13 19l-22 14l-70 25l-10 12v4l8 12l21 4l39 -4l34 -14v39l-14 4l-53 8h-25l-34 -8l-15 -4l-20 -19l-4 -8l-2 -14v-10zM5224 422q0 -47 48 -47q18 0 32.5 12t14.5 35t-14.5 36t-32.5 13t-33 -13.5t-15 -35.5zM5233 422q0 16 11.5 28.5 t27.5 12.5q14 0 26 -12.5t12 -28.5t-12 -27.5t-26 -11.5q-39 0 -39 39zM5251 395h10v21h4h7q0 -6 6 -15l6 -6h10l-8 8q-4 8 -6 13h-2l-2 2q14 0 14 16t-23 17h-16v-56zM5261 426v16h6q14 0 15 -8q0 -8 -15 -8h-6z" />
<glyph unicode="&#xb4;" horiz-adv-x="485" d="M53 1182h76q92 47 139 67q53 25 105 49q72 39 71 62q0 18 -20.5 30.5t-44.5 12.5q-43 0 -107 -45q-6 -6 -86 -68q-43 -34 -133 -108z" />
<glyph unicode="&#xb5;" horiz-adv-x="854" d="M27 1434q33 -41 34 -68q12 -31 13 -94v-1096q0 -37 3 -76t19 -100h269l69 90l68 -90h248q16 66 21 108t5 87v1122q0 61 5 107t10 77q8 37 23 76t38 80q-47 -8 -88 -43q-10 -10 -28.5 -34t-47.5 -60q-49 -66 -115 -86q12 -25 18.5 -38.5t10.5 -19.5q8 -31 8 -73v-1031 q0 -63 -6 -88q-8 -16 -18.5 -25t-28.5 -9q-33 0 -43 38q-6 16 -7 39t-1 58v884q0 27 1 48.5t7 31.5q4 25 35 49q-55 45 -76 74q-27 37 -51 123q-16 -43 -29.5 -72.5t-25.5 -50.5q-10 -14 -27.5 -32.5t-48.5 -47.5q16 -16 25.5 -28.5t15.5 -22.5q4 -14 8 -32.5t4 -47.5v-885 q0 -29 -1 -53t-7 -39q-12 -35 -45 -34q-31 0 -43 38q-4 16 -7 39t-3 58v999q0 59 6 84t32 66h-249z" />
<glyph unicode="&#xb6;" horiz-adv-x="815" d="M0 0h336l67 92l70 -92h346q-16 25 -26.5 42t-14.5 34q-12 27 -12 102v1096q0 68 10 94q4 10 11.5 27.5t23.5 38.5h-248q25 -41 29 -66q4 -12 6 -33.5t2 -50.5v-1055q0 -20 -8 -41q-12 -37 -45 -36q-33 0 -45 34q-8 16 -8 35v940v27q0 10 2 20q4 18 8 31.5t18 28.5 q6 6 11.5 12t13.5 12q-14 16 -26.5 26.5t-20.5 18.5q-10 10 -17.5 18.5t-11.5 16.5q-12 20 -25 49q-8 16 -15 34t-15 40q-12 -43 -23.5 -73.5t-25.5 -49.5q-10 -16 -30 -33.5t-48 -40.5q16 -10 25.5 -19t13.5 -24q2 -4 4 -15t2 -23v-988q0 -29 -6 -43q-12 -35 -47 -34 q-20 0 -29 6q-16 8 -23 28q-4 16 -4 47v1051q0 29 2 50.5t6 33.5q4 10 11.5 27.5t21.5 38.5h-250q16 -20 23.5 -39t11.5 -29q10 -27 10 -92v-1079v-41t-2 -33q-4 -31 -8 -39q-4 -16 -16 -35.5t-35 -46.5z" />
<glyph unicode="&#xb7;" horiz-adv-x="884" d="M27 0h346l69 90l68 -90h336q-43 51 -51 80q-6 10 -8.5 40t-2.5 75v1122q0 61 5.5 107t9.5 77q8 37 23.5 76t37.5 80q-47 -8 -88 -43q-10 -10 -28.5 -34t-47.5 -60q-49 -66 -114 -86q12 -25 18 -38.5t10 -19.5q8 -31 8 -73v-1031q0 -63 -6 -88q-8 -16 -18 -25t-29 -9 q-33 0 -43 38q-6 16 -7 39t-1 58v884q0 27 1 48.5t7 31.5q4 25 35 49q-55 45 -76 74q-27 37 -51 123q-16 -43 -29.5 -72.5t-25.5 -50.5q-10 -14 -27.5 -32.5t-48.5 -47.5q16 -16 25.5 -28.5t15.5 -22.5q4 -14 8 -32.5t4 -47.5v-885q0 -29 -1 -53t-7 -39q-12 -35 -45 -34 q-31 0 -43 38q-4 16 -7 39t-3 58v999q0 59 6 84t33 66h-250q33 -41 35 -68q12 -31 12 -94v-1096q0 -72 -12 -102q-8 -29 -43 -74z" />
<glyph unicode="&#xb8;" horiz-adv-x="952" d="M25 1434q41 -41 57 -205l102 -1036q4 -27 6.5 -48.5t2.5 -35.5q0 -63 -37 -109h293q-33 47 -33 113v47t2 41l55 514l51 -522q4 -29 6 -49.5t2 -34.5q0 -59 -36 -109h295q-37 49 -37 113v34q0 23 4 54l108 1028q18 168 64 205h-234q25 -33 25 -103v-26t-4 -35l-68 -774 l-74 774q-4 16 -4 28v27q0 41 8.5 67t18.5 42h-242q23 -39 23 -109v-55l-70 -774l-73 774q-2 16 -3 28v29q0 74 25 107h-233z" />
<glyph unicode="&#xb9;" horiz-adv-x="284" d="M20 1165q16 -29 32 -50t18 -46q6 -29 6 -135v-784q0 -61 -6 -89q-2 -10 -8.5 -20t-12.5 -23l-12 -18h231l-14 18q-10 12 -15.5 22.5t-9.5 20.5q-4 14 -5 36t-1 48v1020h-203z" />
<glyph unicode="&#xba;" horiz-adv-x="421" d="M88 1184q0 -18 2 -35q0 -18 7 -35.5t18 -34.5q31 -43 102 -43q74 0 102 43q14 31 21 58q0 10 1 28.5t1 40.5v13v38q0 16 -2 27q-2 16 -7 30.5t-14 28.5q-14 20 -39.5 33t-62.5 13q-72 0 -102 -46q-10 -16 -18.5 -32.5t-8.5 -38.5v-39v-49zM143 1157v115q0 61 72 61 t72 -61v-115q0 -66 -72 -65q-72 0 -72 65z" />
<glyph unicode="&#xbb;" horiz-adv-x="2101" d="M57 1090q-2 -29 11.5 -63t44.5 -58q37 -27 87 -32t87 11q27 10 44 29.5t21 42.5q2 35 -18 55q-16 14 -31.5 16.5t-32.5 -1.5q-10 -4 -19 -11.5t-22 -19.5q-8 -12 -16 -23.5t-20 -23.5q-10 -8 -21.5 -4t-19.5 10q-23 12 -32 30.5t-9 36.5q0 31 14 58.5t37 44.5 q35 20 79 21t89 -8t87 -24.5t70 -29.5l84 -37l-36 -35q-88 -72 -144.5 -144.5t-86.5 -147t-37 -151.5t3 -153q25 -205 215 -299q57 -31 122 -46t128 -15t121.5 12t106.5 37q33 16 64.5 42t58 61.5t44 82.5t21.5 109q6 66 -21.5 139.5t-97.5 122.5l31 90q51 27 88 36t62.5 7 t41 -11t21.5 -18q23 -25 12.5 -67.5t-22.5 -87.5l-80 -322h223l8 41q-18 12 -28.5 20.5t-14.5 23t0.5 38t14.5 64.5l30 118q47 168 -30 232q-29 25 -67 32t-81 4t-86 -17.5t-80 -33.5q20 59 59.5 116t86.5 103t99 77.5t99 37.5q37 6 71 -2t77 -43q29 -27 58.5 -40t55.5 -9 q37 10 56 45q8 29 -11 58q-16 23 -44.5 36t-60.5 19t-60.5 7t-44.5 -1q-78 -2 -154 -20.5t-145.5 -53.5t-130 -89t-103.5 -130q-16 -23 -43 -78t-49 -143q-84 2 -130 -18.5t-69 -38.5q-35 -25 -54.5 -69t-16.5 -73q0 -53 47 -76q14 -6 32.5 -8t34.5 8q33 20 29 54 q-2 31 -10.5 55.5t8.5 52.5q14 27 45 39t67 8l-73 -235l-7 -24.5t-11.5 -17.5t-24 -12.5t-41.5 -11.5l-12 -45h296l15 45q-51 10 -57.5 27.5t-2.5 44.5l56 190q27 -20 41 -45.5t21 -48t9 -41t2 -22.5q-4 -74 -30.5 -144.5t-100.5 -121.5q-31 -20 -71.5 -31.5t-81.5 -14 t-82 4t-72 18.5q-145 59 -170 199q-12 63 -12 147q0 86 20.5 176t64.5 179.5t120 160.5q57 -10 121 -10q66 0 126 10t109 34t74 62q12 20 11 40t-11 32q-12 23 -34 34t-47.5 15t-52 2t-48.5 -8q-16 -4 -43 -12t-58 -19.5t-62.5 -24.5t-58.5 -28q-57 23 -96 44l-39 22 q-98 43 -200.5 46t-188.5 -42q-53 -35 -82 -84t-33 -98zM797 1169q59 41 111.5 59.5t92.5 8.5q12 -4 23.5 -10t15.5 -27q4 -10 -2 -22.5t-14 -18.5q-29 -20 -92.5 -18t-134.5 28zM1458 567q0 -68 29 -113.5t75 -71.5t103 -30t112.5 15.5t102.5 62.5t74 109l-47 20 q-25 -63 -67 -97t-86 -42t-84 7t-58 52q-16 29 -14.5 83t26.5 114h385q0 92 -32.5 145t-82.5 76q-27 14 -62.5 19.5t-74.5 2t-75.5 -16.5t-67.5 -34q-47 -35 -78 -75.5t-48.5 -80.5t-23.5 -78t-6 -67zM1661 758q25 43 48.5 62.5t39.5 23.5q45 14 78 -6q10 -10 20 -26.5 t2 -53.5h-188z" />
<glyph unicode="&#xbc;" horiz-adv-x="3467" d="M0 252h104l-4 8q-8 14 -8 43v266l51 23v-287q0 -27 -4 -43l-6 -10h105l-5 10q-6 6 -8 12.5t-4 12.5q-2 10 -2 41v551q0 35 2 45q2 4 7 12t10 18h-105q10 -16 10 -47v-225l-51 -27v248q0 25 10 51h-102q6 -10 10 -16t6 -12q2 -10 2 -21v-26v-551v-25q0 -8 -2 -18.5 t-12 -22.5zM276 367q0 -57 7 -78q4 -23 18 -29q4 -2 10 -2t17 -2h32h109l-8 8q-4 6 -5 13.5t-3 11.5q0 6 -2 17t-2 30v381v28t-3 29q-4 12 -8 20.5t-10 18.5q-23 29 -66 29q-41 0 -63 -29q-6 -10 -11 -19.5t-9 -25.5q-2 -10 -3 -25v-34v-121q16 20 32 35.5t36 23.5v86 q0 35 18 35q14 0 19 -23q0 -4 1 -14t1 -29v-38q-4 -33 -16 -52q-4 0 -31 -24q-16 -12 -24.5 -20.5l-12.5 -12.5q-16 -16 -16 -39q-6 -12 -7 -51v-98zM344 338v141q0 14 16 31q2 2 7.5 7t15.5 13v-204q-31 0 -39 12zM485 834q10 -16 16.5 -27.5t8.5 -22.5q0 -8 1 -23.5 t1 -41.5v-313q0 -94 12 -115q19 -35 66 -35h125l-6 8q-4 6 -5.5 13.5t-3.5 13.5v543h-88q10 -16 15 -37q2 -4 2 -17v-24v-430h-25q-18 0 -18 51v457h-101zM731 831q20 -27 25 -47q2 -10 2 -65v-389q0 -33 -2 -43q0 -4 -4 -9.5t-7 -13.5l-6 -8h105l-6 12q-4 8 -4 21v33v446 h26q8 0 11 -10t3 -27v-436q-6 -25 -16 -39h105q0 6 -3.5 7t-6.5 4t-5 9.5t-2 20.5v319q0 49 -1 80t-2 49.5t-4 28.5t-9 21q-18 37 -74 36h-125zM979 834q23 -18 29 -39q6 -23 6 -66v-407q-1 -66 28 -66h66l-8 8q-10 20 -15 31q-2 8 -2 57v408q0 29 7 45q2 6 7 12t11 17h-12 q-14 0 -15 18v115q-16 -51 -42.5 -84t-59.5 -49zM1137 354q0 -14 2 -24q6 -35 20 -54q17 -32 70 -32q51 0 71 32q16 25 17 89v178q-43 0 -70 -31v-168q0 -31 -20 -31q-18 0 -19 31v199q53 53 109 53v121q0 31 -3 54.5t-14 35.5q-18 35 -71 35q-51 0 -70 -35q-12 -18 -20 -51 q-2 -10 -2 -27v-37v-299v-39zM1210 629v110q0 31 19 31q20 0 20 -31v-90zM1372 418q0 -41 1 -70t7 -45q6 -31 29 -43q8 -2 22 -3t39 -1h95l-6 8q-12 12 -13 27q-4 6 -4 51v451q0 20 2 34.5t4 24.5q4 27 25 45q-33 6 -37 10l-35 23q-8 6 -14 12t-14 10q-8 8 -15.5 9.5 t-13.5 5.5q10 -14 15 -27.5t11 -26.5q2 -14 4.5 -30.5t2.5 -36.5v-12h-13q-12 0 -21 -1.5t-18 -1.5q-43 -10 -49 -47q-4 -10 -4 -30v-52v-284zM1417 1309q0 -10 4 -21.5t15 -21.5q14 -8 31.5 -9.5t31.5 5.5q16 4 21 22q2 14 -7 19q-6 6 -22 6q-4 -2 -7 -4t-7 -5 q-4 -6 -5.5 -10t-5.5 -8q-6 -4 -16 2q-8 4 -11 11.5t-3 11.5q0 23 18 36q12 8 27 9q16 0 31.5 -3t29.5 -9.5t25 -10.5l30 -14l-14 -12q-59 -49 -78.5 -101.5t-13.5 -105.5q12 -72 76 -105q41 -18 86 -19t80 15q23 12 43 37t24 66q2 25 -8 50t-35 44l10 30q35 18 52.5 14.5 t23.5 -9.5q6 -10 3 -23.5t-7 -30.5l-29 -114h76l4 16q-12 8 -14 14t4 35l12 41q16 61 -12 82q-20 16 -51 12t-57 -18q14 41 50 77t70 40q12 2 22.5 0t27.5 -15q25 -20 40 -18q14 4 19 16q2 6 -2 21q-12 16 -38 18t-38 2q-53 -2 -103.5 -25.5t-80.5 -76.5q-10 -14 -33 -78 q-29 2 -44 -4t-24 -14q-10 -8 -17 -23.5t-7 -28.5q4 -16 14 -24q16 -4 27 0q8 8 8 18t-2 19.5t2 17.5q4 10 15.5 14.5t23.5 4.5l-25 -84q-4 -10 -7 -13.5t-23 -7.5l-5 -18h103l6 18q-18 4 -20 9t2 14l16 67q18 -14 22.5 -32.5t4.5 -20.5q-2 -27 -11.5 -52.5t-33.5 -41.5 q-23 -14 -53.5 -16.5t-53.5 8.5q-29 10 -42 27.5t-17 41.5q-6 23 -6 51q0 31 7 62t22.5 61.5t39.5 55.5q43 -4 89 2t63 32q4 6 4 15q0 8 -4 12q-8 14 -27.5 15t-34.5 -3q-12 -2 -36.5 -9t-41.5 -19q-18 10 -34 16l-15 6q-35 16 -69.5 17.5t-63.5 -15.5q-37 -25 -41 -63z M1444 389v311q0 45 4 48q0 10 27 10v-428q-25 0 -27 8q-4 4 -4 51zM1675 1337q43 27 70 25q14 -4 16 -14q4 -7 -8 -15q-10 -8 -32.5 -7t-45.5 11zM1761 147q29 6 41 23l37 43q25 31 51 43q-6 10 -8 16.5t-4 12.5q-2 8 -3 15t-1 17v492q0 16 1 25.5t3 15.5q4 18 20 18 q14 0 19 -20q4 -4 4 -17v-28v-596q0 -29 -4 -41q-2 -4 -11.5 -9t-15.5 -12q31 -29 45.5 -69.5t24.5 -75.5q12 35 25.5 74t44.5 71q-8 8 -18.5 13.5t-12.5 11.5q-2 8 -3 17.5t-1 21.5v596v26q0 12 4 17q6 20 20 20t19 -20q6 -10 6 -45v-477v-23q0 -10 -2 -16l-17 -31h113 l-10 16q-4 8 -4 15q-4 20 -4 43v526v29q0 12 4 18q2 8 7 16.5t11 18.5h-157l-31 -43l-33 43h-152q10 -12 15.5 -21.5t9.5 -15.5q4 -10 4 -53v-537q0 -61 -8 -88q-4 -18 -10 -36.5t-19 -39.5zM1905 1126q0 -35 21.5 -53t50 -20t57.5 13t43 50l-17 8q-16 -43 -52 -47t-50 19 q-4 10 -4 28q0 20 6 41h137q0 31 -11 49.5t-28 28.5q-23 10 -50.5 7t-47.5 -19q-33 -23 -44 -53.5t-11 -51.5zM1974 1192q10 16 18.5 23.5t12.5 9.5q18 4 27 -2q4 -4 8 -10.5t0 -20.5h-66zM2175 578q27 43 66 59v84q0 33 22 33q14 0 16 -21v-80q0 -14 -3 -26.5t-13 -18.5 q0 -6 -31 -26q-31 -27 -32 -33q-18 -23 -21 -37q-2 -8 -2 -53v-92v-48q0 -18 2 -28q2 -18 21 -29q4 -2 26 -2q4 -2 31 -2h110l-8 10l-10 21q-2 8 -2 47v371v28q0 14 -2 25q-6 23 -23 39q-18 25 -63 24q-39 0 -61 -20q-6 -10 -12.5 -21.5t-8.5 -25.5q0 -10 -1 -23.5t-1 -34.5 v-120zM2243 367v110q0 14 14 29q4 4 9 6t15 12v-196q-35 0 -36 12q0 2 -1 9t-1 18zM2396 819q20 -25 25 -47q4 -12 4 -63v-379q0 -25 -4 -41q0 -12 -11 -21l-8 -10h103l-2 12q-4 10 -6.5 22.5t-2.5 31.5v434q25 0 29 -2q14 -4 14 -35v-379q0 -37 -2 -45q-6 -25 -16 -39h102 q0 10 -8 11t-8 28v430q-4 37 -14 57q-18 35 -74 35h-121zM2648 391q0 -82 27 -119q24 -24 65 -24t64 24q23 27 22 82v84q0 66 -14 99q-4 8 -16.5 19t-32.5 28l-10 8q-20 20 -25 22q-8 14 -8 45v68q0 31 18 31q16 0 17 -31v-74q43 -10 71 -41v88v37t-2 27q-4 12 -9 22.5 t-15 18.5q-27 20 -60 20q-23 0 -38 -5t-27 -21q-27 -33 -27 -117v-20q0 -41 10 -62q4 -10 9.5 -17.5t13.5 -17.5l39 -35q6 -8 13 -14t13 -10q4 -12 9 -12v-146q0 -33 -17 -33q-18 0 -18 33v123l-72 55v-135zM2857 897l37 -18l20 -31l21 31l35 18q-14 0 -24.5 12.5t-17 29.5 t-9.5 34.5t-3 30.5q0 -12 -3 -30t-11 -35t-19.5 -29.5t-25.5 -12.5zM2859 817l4 -4q18 -29 21 -41q2 -8 2 -65v-379q0 -33 -2 -41q-4 -14 -9 -19l-8 -10h113l-8 10q-8 8 -11 19q-4 16 -4 39v491h-98zM3019 354q0 -14 2 -24v-4q4 -12 7 -24.5t11 -22.5q21 -31 72 -31 q47 0 70 35q4 10 7 18t5 23q2 10 2 49v329v29q0 12 -2 23q-4 27 -12 41q-18 31 -70 30q-55 0 -72 -30q-8 -12 -11 -23.5t-7 -28.5q-2 -10 -2 -26v-35v-291v-37zM3086 344v383q0 31 19 31q18 0 18 -31v-383q0 -29 -18 -29t-19 29zM3222 819q10 -12 16 -23.5t6 -21.5 q4 -16 4 -61v-383q0 -20 -4 -41q0 -8 -10 -19l-6 -12h104l-6 12q-6 18 -6 54v434h26q14 -8 15 -33v-383v-29q0 -12 -2 -16q0 -14 -5.5 -22.5t-9.5 -16.5h101q0 10 -8.5 12t-8.5 27v430q0 39 -12 57q-23 35 -76 35h-118z" />
<glyph unicode="&#xbd;" horiz-adv-x="2904" d="M35 715q0 -106 54 -200.5t150.5 -174.5t228.5 -142.5t289.5 -106.5t334 -67.5t360.5 -23.5t361.5 23.5t335 67.5t290.5 106.5t228.5 142.5t149.5 174t54 201q0 106 -54 201.5t-149.5 175t-228.5 143t-290.5 107.5t-335 68t-361.5 24t-360.5 -24t-334 -68t-289.5 -107.5 t-228.5 -143t-150.5 -175t-54 -201.5zM68 715q0 147 111.5 273t302 217t441 142.5t529.5 51.5q186 0 361.5 -23.5t330 -66.5t281.5 -104.5t219 -137.5t143.5 -165t51.5 -187t-51.5 -187.5t-143.5 -165t-219 -137t-281.5 -104.5t-330 -66.5t-361.5 -23.5q-279 0 -529.5 51 t-441 143t-302 217t-111.5 273zM98 715q0 -135 106.5 -255t291 -209t431.5 -140.5t527 -51.5q281 0 527.5 51.5t431 140.5t291 209t106.5 255t-106.5 253.5t-291 208t-431 141.5t-527.5 52t-527.5 -52t-431 -141.5t-291 -208t-106.5 -253.5zM981 184q8 10 11 20.5t5 18.5 q4 10 4 23v28v299q0 25 -2 29q-2 8 -14 23h86l16 -25l21 25h86q-10 -12 -12 -21q-2 -6 -2 -26v-291q0 -20 2 -27l10 -16h-64l7 10q2 2 2 6q2 4 2 23v266q0 20 -2 24q-4 12 -13 13q-8 0 -10 -13q0 -4 -1 -8t-1 -14v-334q0 -16 2 -22q2 -4 7 -6.5t9 -6.5q-16 -18 -23 -41 t-15 -41q-4 18 -13.5 42t-25.5 40q4 4 10 5t6 6q2 4 2 24v332q0 20 -2 24q-4 12 -12 13q-8 0 -13 -11q0 -4 -1 -9t-1 -13v-274l2 -21q2 -2 9 -14q-16 -6 -29 -23q-16 -25 -18 -26q-6 -6 -25 -11zM1014 690l2 6q6 6 6 11q4 16 4 26v307q-2 8 -2 15q0 6 -2 10q0 4 -8 16h59 q-6 -12 -6 -28v-138l27 15v125q0 16 -7 26h60q-8 -12 -10 -16v-356q4 -8 8 -13l2 -6h-60l5 6q2 4 2 25v160l-27 -15v-147q0 -18 4 -23l2 -6h-59zM1169 874v68q0 12 1 20.5t1 12.5q2 10 4.5 16t6.5 13q14 12 35 12q25 0 36 -15q8 -8 13 -22q2 -6 2 -31v-215q0 -20 2 -26 q0 -2 4 -11l4 -6h-61h-19q-10 0 -14 4q-6 2 -10 13q-2 10 -3 45v53q0 27 3 31q0 10 8 22q4 2 8 6t12 10l12 12l5 3q10 14 10 29v47q-2 10 -12 10q-8 0 -9 -19v-49q-23 -6 -39 -33zM1206 754q0 -14 2 -19q5 -4 21 -4v113q-14 -10 -15 -10q-8 -12 -8 -19v-61zM1212 424v65 q0 10 1 18.5t1 14.5q2 12 13 25q14 14 35 14q23 0 34 -16q8 -8 13 -21q2 -4 2 -12v-18v-205q0 -25 2 -29q0 -2 4 -10l2 -6h-59h-17q-6 0 -9 1t-7 1q-8 6 -10 16q-2 4 -3 14v29v80q2 10 13 21q2 4 20 18q16 12 17 14q6 6 10 23v24q0 10 -1 15.5t-1 7.5q0 12 -10 12t-11 -18 v-47q-20 -8 -39 -31zM1251 307q0 -6 1 -10t1 -6q3 -6 23 -6v108q-8 -4 -11 -6l-3 -2q-10 -14 -11 -18v-60zM1271 1286.5q5 16.5 21.5 26.5t35 9t36.5 -9l7 -4t22 -9q10 4 22 9.5t19 5.5q8 4 18 3t14 -11q6 -6 0 -13q-10 -14 -33.5 -18t-50.5 0q-27 -25 -33 -63.5t-1 -61.5 q6 -27 30 -37q16 -4 33 -4q18 0 29 8q25 16 24 49q0 2 -2 11.5t-12 17.5l-10 -35v-8q0 -2 10 -6l-2 -8h-53l2 8q10 4 11 6t5 8l12 45q-6 0 -12 -3t-8 -9q-4 -4 -2 -9t2 -9q0 -8 -6 -10.5t-17 -0.5q-8 8 -8 15q0 4 3 13t14 13q10 14 39 15q4 16 8 25t8 14q16 29 41.5 41 t54.5 14q6 0 20.5 -1t18.5 -11q4 -2 4 -11q-6 -6 -12 -8q-10 -4 -21 10q-8 6 -14 7.5t-12 1.5q-16 -4 -36 -22.5t-28 -41.5q14 8 30.5 11t27.5 -7q14 -12 6 -47l-6 -22q-4 -14 -3 -18.5t7 -8.5v-8h-41l14 61q4 10 5 18.5t-3 14.5q-4 4 -12 5t-27 -9l-6 -17q14 -12 18.5 -25 t4.5 -26q-2 -23 -12.5 -36t-22.5 -19q-16 -10 -43 -9t-49 11q-35 18 -41 55q-4 29 6 58.5t43 54.5l6 8l-14 6q-10 4 -28.5 9.5t-31.5 -1.5q-10 -6 -10 -20q0 -6 8 -12q4 -4 8 0q2 2 3 4t4 4l6 6q8 0 12 -4q6 -4 4 -8q0 -10 -12 -15q-14 -8 -30.5 4.5t-11.5 29zM1284 1012h55 v-254q0 -29 13 -29h12v264q-4 12 -10 19h51v-301q0 -8 6 -15l2 -6h-70q-25 0 -36 21q-6 12 -7 61v176q0 16 -1 24.5t-1 12.5q-2 10 -14 27zM1339 557h68q29 0 41 -20q4 -6 4 -15q0 -6 2 -18v-238q0 -14 4 -14t4 -8h-55q8 12 8 20q2 4 2 27v211q0 16 -8 20q-2 2 -16 2v-243 q0 -25 4 -29l2 -8h-56l3 6l4 4q0 2 2 6q0 4 1 10t1 15v211q0 14 -1 23t-1 11q-2 10 -13 27zM1411 1294q29 -10 41 -2q4 2 4 8t-8 7q-16 2 -37 -13zM1423 1010h70q33 0 43 -19q6 -14 8 -33v-245q0 -14 5 -15.5t5 -7.5h-61q8 12 10 21v245q0 16 -8 19h-14v-248q0 -18 4 -31v-6 h-58l5 6q2 4 4 6.5t2 4.5q2 6 2 24v217q0 31 -2 37q-4 14 -15 25zM1479 317v76l39 -33v-69q0 -14 8 -15q12 0 12 15v71q0 8 -2 13l-2 2t-4 6q-4 2 -6 5t-6 7l-5 4q-6 4 -18 17q-10 10 -12 18q-4 10 -4 33v12q0 49 12 66q14 16 37 16q20 0 33 -12q6 -6 14 -23q2 -8 2 -34v-52 q-16 18 -39 23v41q0 18 -12 18q-8 0 -8 -18v-39q0 -14 4 -23q0 -2 14 -12l4 -4q23 -18 29 -29q8 -16 8 -53v-47q0 -31 -14 -45q-12 -14 -35 -14t-37 14q-12 14 -12 65zM1534 1180q0 10 5 27.5t22 31.5q29 18 53 4q25 -6 24 -43h-75q-10 -25 -2 -37q8 -14 26.5 -11t28.5 26 l12 -4q-10 -18 -25.5 -26.5t-31 -7.5t-26.5 11t-11 29zM1563 1012q23 10 30 28q12 12 27 47v-63q0 -12 6 -12h8q-8 -6 -12 -15v-286q0 -8 6 -15l4 -6h-35q-16 0 -16 37v227q0 29 -2 37q-6 12 -16 21zM1571 1219h35q0 8 -2 10t-2 4q-6 6 -17 0q-6 0 -14 -14zM1593 602 q18 0 24.5 22.5t8.5 37.5q0 -14 7 -37t24 -23l-21 -8l-12 -21l-8 21zM1595 555h58v-272q0 -18 2 -25q0 -2 4 -10l2 -4h-59l2 4q6 6 6 10q2 6 2 25v213v20q0 10 -2 12q0 8 -15 27zM1651 768v168q0 10 1 19.5t1 15.5q4 20 10 28q12 18 39 19q29 0 41 -19q8 -14 8 -49v-69 q-29 0 -61 -29v-111q0 -16 12 -16q10 0 10 16v95q16 16 39 16v-98q0 -37 -8 -52q-14 -18 -41 -18t-39 18q-4 8 -6 15.5t-4 15.5q0 4 -1 13.5t-1 21.5zM1686 285v229q4 10 5 15.5t5 13.5q12 18 39 18q29 0 41 -18q2 -6 4 -11.5t2 -11.5q2 -6 2 -28v-185q0 -20 -2 -26 q0 -8 -2 -14.5t-4 -10.5q-12 -18 -41 -18q-27 0 -39 18q-4 6 -5 13t-5 16zM1690 899l22 10v52q0 16 -12 16q-10 0 -10 -16v-62zM1722 291q1 -17 9 -17q12 0 12 17v213q0 18 -12 18q-8 0 -9 -18v-213zM1780 780v158q0 18 1 29.5t3 17.5q2 23 26 25l27 2v6q0 29 -4 39 q-2 10 -12 30q8 -4 16 -10q4 -2 16 -10q8 -8 17 -14q10 0 22 -6q-10 -8 -14 -25q-2 -8 -2 -33v-280q4 -8 8 -13l4 -6h-53q-29 0 -35 4q-10 2 -16 23q-2 10 -3 25.5t-1 37.5zM1796 557h68q29 0 41 -20q8 -16 8 -33v-240q0 -12 5 -13t5 -7h-59q6 4 10 20v238q0 18 -8 20 q-2 2 -15 2v-243q0 -18 4 -31l5 -6h-60l4 6q6 6 6 10q2 6 2 25v211q0 31 -2 34q0 8 -14 27zM1823 766q0 -27 2 -29q2 -4 14 -4v240q-12 0 -14 -6q-2 0 -2 -29v-172z" />
<glyph unicode="&#xbe;" horiz-adv-x="1488" d="M0 1434q23 -6 23 -27v-553q0 -25 -17 -29h98q-12 2 -12 29v190q18 8 36.5 15.5t39.5 15.5q47 23 47 64v252q0 23 -22 30q-18 12 -52 13h-141zM92 1112v264l21 2q43 0 43 -28v-185q0 -39 -64 -53zM135 10q6 -8 23 -8q12 0 20 2q20 2 45 25q8 10 19.5 22t25.5 33 q23 29 70 45q-10 0 -10 29v458q0 43 14 43q16 0 16 -49v-471q0 -27 -4 -35q-4 -16 -16 -26l57 -41q33 31 49 43h-2q-14 0 -14 43v489q0 47 12 47q14 0 15 -49v-458q0 -4 -1 -8.5t-5 -6.5q-6 -6 -15 -10h117q-18 10 -23 31v497q0 51 4 62q0 8 7 12l3 1t7 3h-137l-23 -33 l-22 33h-138q8 -4 15 -4l6 -6t4 -8v-533q0 -59 -23 -114q-35 -59 -79 -60zM217 825h98q-8 16 -8 29v117l31 18v-135q0 -20 -4 -29h88q-12 10 -12 29v455q0 14 16 18h-94q6 -6 6 -12v-240l-31 -16v252q2 14 8 16h-94q12 -4 15 -12l1 -2q1 -2 1 -4v-455q0 -27 -21 -29z M426 825h88q-2 2 -2 29v119l33 18v-137q0 -27 -6 -29h84v-2h2q4 0 6 2h-4q-16 12 -17 31v412q0 37 -18 49q-12 10 -53 10q-57 0 -76 -10t-23 -41v-422q0 -25 -14 -29zM512 1061v174q0 18 6 25q6 0 10 2q17 -5 17 -19v-84q0 -35 -1 -55.5t-1 -28.5zM551 129h90q-4 0 -4 29 v118l33 21v-139q0 -27 -6 -29h88q-16 12 -17 31v411q0 35 -16 50q-18 12 -55 12q-55 0 -76 -12q-23 -12 -23 -41v-422q0 -25 -14 -29zM631 825h84q-4 0 -4 6v439q8 4 12 4t6 -2q4 0 4 -29v-387q0 -29 -2 -31h80q-8 2 -8 31v334q0 88 -6 110q-10 25 -47 25h-7q-18 0 -32 -12 v14h-78q6 -2 8 -10q4 -4 4 -6v-455q0 -14 -8 -27q-8 -4 -6 -4zM637 365v176q0 16 6 22l6 2q21 -4 21 -16v-170zM754 633q10 -4 14 -12v-3q2 0 2 -4v-454q0 -18 -8 -27q-8 -4 -6 -4h90q-10 4 -10 6v438q4 4 12 5h6q4 0 4 -29v-387q0 -16 -1 -23.5t-1 -9.5h82q-10 4 -10 33 v332q0 92 -6 110q-10 25 -41 25h-15q-16 0 -30 -11v15h-82zM815 1141q6 109 59 123v-426q0 -16 -18 -23h107q-18 6 -19 25v424l8 -2q25 -6 43 -68q4 -12 6.5 -27.5t4.5 -31.5v192h-191v-186zM950 240q0 -68 8 -82q17 -29 76 -29t72 18q14 12 14 52v358q0 51 -18 64 q-16 12 -68 12q-41 0 -61 -10q-16 -8 -23 -35v-348zM1016 248v266q0 43 20 43q8 0 13 -6q2 -4 4 -14.5t2 -26.5v-258q0 -35 -2 -39q-4 -10 -15 -10h-8q-14 0 -14 45zM1024 936q0 -68 8 -82q13 -29 74 -29q59 0 74 17q14 14 14 51v358q0 47 -18 64q-14 12 -68 12 q-47 0 -64 -8q-14 -8 -20 -35v-348zM1087 944v264q0 43 17 43h8q12 0 14 -6v-336q-4 -10 -14 -10h-8q-16 0 -17 45zM1145 129h104q-14 18 -14 47v348q0 14 20 33q10 8 20.5 13t20.5 5q35 -4 45 -16q6 -6 7 -14v88h-41t-25 -2q-25 -4 -37 -17l-6 -6t-4 -6v29h-86 q16 -10 16 -25v-430q0 -33 -20 -47zM1210 825h95q-10 0 -11 25v399q0 14 9 15q12 0 12 -23v-457q0 -20 -2 -24q-4 -16 -19 -19q39 -8 60 -41q6 8 20 23q6 8 27 18q-14 10 -15 15q-2 4 -2 26v463q0 18 9 19q14 0 14 -23v-395q0 -20 -12 -21h88q-10 0 -10 23v434q0 27 -13 37 q-14 8 -39 8q-29 0 -45 -4q-23 -12 -24 -37v2q0 16 -17 29q-10 10 -35 10q-45 0 -59 -6q-12 -6 -16 -27q-2 -8 -2 -63v-385q0 -20 -13 -21z" />
<glyph unicode="&#xbf;" horiz-adv-x="542" d="M39 254q0 -41 2 -68.5t4 -46.5q10 -25 21.5 -46t31.5 -38q51 -57 168 -57q109 0 156 49q61 68 61 266v160l-168 -72v-100q0 -74 -6 -106q-14 -49 -47 -50q-16 0 -28.5 8.5t-16.5 26.5q-6 14 -7 37t-1 55v74q0 102 12 150q10 59 60 102l14 20q23 25 39 38.5t16 19.5 q16 16 24.5 32.5t14.5 32.5q4 16 5 40t1 57q0 41 -1 87t-5 105q-12 141 -35 164q-6 10 -18 10q-20 0 -35.5 -29.5t-19.5 -89.5l-15 -178q-4 -41 -13 -69.5t-20 -46.5q-8 -12 -21 -29t-40 -37q-23 -16 -38 -31.5t-30 -31.5q-39 -45 -55 -113q-10 -57 -10 -148v-147zM246 1356 q0 -47 24 -70q22 -22 45 -22q18 0 30.5 6t23.5 16q16 12 21 29.5t5 40.5q0 55 -24 74q-18 25 -47 24q-27 0 -48 -18q-31 -31 -30 -80z" />
<glyph unicode="&#xc0;" horiz-adv-x="565" d="M6 -193q25 4 47.5 20.5t46.5 35.5q2 2 22.5 25.5t61.5 66.5q20 31 70 57q-14 12 -23 39q-2 10 -2 23v32v256l105 54v-248v-55q0 -23 -2 -39q-6 -16 -14.5 -36t-18.5 -38h244q-29 39 -33 66q-8 16 -10 37.5t-2 48.5v1142q0 25 2 45.5t10 36.5q2 17 33 58h-271 q-129 0 -176 -80q-33 -66 -33 -246v-1032q0 -139 -57 -269zM84 1651q0 18 20.5 30.5t45.5 12.5q43 0 106 -45q6 -6 86 -68q43 -34 133 -108h-75q-92 47 -140 67q-53 25 -104 49q-72 39 -72 62zM229 530v656q0 100 39 100h66v-702z" />
<glyph unicode="&#xc1;" horiz-adv-x="565" d="M6 -193q25 4 47.5 20.5t46.5 35.5q2 2 22.5 25.5t61.5 66.5q20 31 70 57q-14 12 -23 39q-2 10 -2 23v32v256l105 54v-248v-55q0 -23 -2 -39q-6 -16 -14.5 -36t-18.5 -38h244q-29 39 -33 66q-8 16 -10 37.5t-2 48.5v1142q0 25 2 45.5t10 36.5q2 17 33 58h-271 q-129 0 -176 -80q-33 -66 -33 -246v-1032q0 -139 -57 -269zM86 1491h76q92 47 139 67q53 25 105 49q72 39 71 62q0 18 -20.5 30.5t-44.5 12.5q-43 0 -107 -45q-6 -6 -86 -68q-43 -34 -133 -108zM229 530v656q0 100 39 100h66v-702z" />
<glyph unicode="&#xc2;" horiz-adv-x="565" d="M6 -193q25 4 47.5 20.5t46.5 35.5q2 2 22.5 25.5t61.5 66.5q20 31 70 57q-14 12 -23 39q-2 10 -2 23v32v256l105 54v-248v-55q0 -23 -2 -39q-6 -16 -14.5 -36t-18.5 -38h244q-29 39 -33 66q-8 16 -10 37.5t-2 48.5v1142q0 25 2 45.5t10 36.5q2 17 33 58h-271 q-129 0 -176 -80q-33 -66 -33 -246v-1032q0 -139 -57 -269zM101 1468h47l139 119l137 -119h47l-141 179h-86zM229 530v656q0 100 39 100h66v-702z" />
<glyph unicode="&#xc3;" horiz-adv-x="565" d="M6 -193q25 4 47.5 20.5t46.5 35.5q2 2 22.5 25.5t61.5 66.5q20 31 70 57q-14 12 -23 39q-2 10 -2 23v32v256l105 54v-248v-55q0 -23 -2 -39q-6 -16 -14.5 -36t-18.5 -38h244q-29 39 -33 66q-8 16 -10 37.5t-2 48.5v1142q0 25 2 45.5t10 36.5q2 17 33 58h-271 q-129 0 -176 -80q-33 -66 -33 -246v-1032q0 -139 -57 -269zM49 1505q43 197 153 197q35 0 97.5 -44t99.5 -44q49 0 78 96h41q-39 -203 -150 -203q-35 0 -100.5 44t-93.5 44q-49 0 -78 -90h-47zM229 530v656q0 100 39 100h66v-702z" />
<glyph unicode="&#xc4;" horiz-adv-x="565" d="M6 -193q25 4 47.5 20.5t46.5 35.5q2 2 22.5 25.5t61.5 66.5q20 31 70 57q-14 12 -23 39q-2 10 -2 23v32v256l105 54v-248v-55q0 -23 -2 -39q-6 -16 -14.5 -36t-18.5 -38h244q-29 39 -33 66q-8 16 -10 37.5t-2 48.5v1142q0 25 2 45.5t10 36.5q2 17 33 58h-271 q-129 0 -176 -80q-33 -66 -33 -246v-1032q0 -139 -57 -269zM133 1598q0 -29 7 -50.5t17 -39.5q20 -37 47 -37q29 0 49.5 37t20.5 90q0 47 -20 86q-23 37 -50 37t-47 -37q-12 -23 -18 -42t-6 -44zM229 530v656q0 100 39 100h66v-702zM337 1598q0 -29 7.5 -50.5t17.5 -39.5 q20 -37 47 -37q29 0 49.5 37t20.5 90q0 47 -21 86q-23 37 -49 37q-27 0 -47 -37q-12 -23 -18.5 -42t-6.5 -44z" />
<glyph unicode="&#xc5;" horiz-adv-x="565" d="M6 -193q25 4 47.5 20.5t46.5 35.5q2 2 22.5 25.5t61.5 66.5q20 31 70 57q-14 12 -23 39q-2 10 -2 23v32v256l105 54v-248v-55q0 -23 -2 -39q-6 -16 -14.5 -36t-18.5 -38h244q-29 39 -33 66q-8 16 -10 37.5t-2 48.5v1142q0 25 2 45.5t10 36.5q2 17 33 58h-271 q-129 0 -176 -80q-33 -66 -33 -246v-1032q0 -139 -57 -269zM164 1630q0 -18 2 -35q0 -18 7 -35.5t18 -34.5q31 -43 102 -43q74 0 102 43q14 31 21 58q0 10 1 28.5t1 40.5v13v38q0 16 -2 27q-2 16 -7 30.5t-14 28.5q-14 20 -39.5 33t-62.5 13q-72 0 -102 -46 q-10 -16 -18.5 -32.5t-8.5 -38.5v-39v-49zM219 1603v115q0 61 72 61t72 -61v-115q0 -66 -72 -65q-72 0 -72 65zM229 530v656q0 100 39 100h66v-702z" />
<glyph unicode="&#xc6;" horiz-adv-x="796" d="M-31 -193q25 4 47.5 20.5t46.5 35.5q2 2 22.5 25.5t61.5 66.5q20 31 70 57q-14 12 -22 39q-2 10 -2 23v32v256l104 54v-248v-55q0 -23 -2 -39q-6 -16 -14.5 -36t-18.5 -38h477v244q-14 -41 -33.5 -60.5t-54.5 -19.5h-184v500h94q39 0 66 -15q14 -8 26.5 -26.5t24.5 -42.5 v346q-14 -27 -28.5 -47.5t-35.5 -28.5q-10 -8 -28.5 -9t-42.5 -1h-76v434h145q49 0 80 -26.5t47 -80.5v267h-503q-129 0 -177 -80q-33 -66 -32 -246v-1032q0 -139 -58 -269zM193 530v656q-1 100 38 100h66v-702z" />
<glyph unicode="&#xc7;" horiz-adv-x="542" d="M55 248q0 -41 4 -72t9 -51q14 -57 47 -86q31 -31 70.5 -45t84.5 -14h15q10 -23 10 -66q0 -39 -16 -59q-14 -18 -33 -19q-31 0 -82 43l-19 -98q61 -59 123 -60q31 0 51 17q29 20 51.5 71.5t14.5 114.5q0 43 -6 76q16 6 29.5 16.5t25.5 22.5q53 53 53 213v375l-159 -72 v-276q0 -39 -2 -64t-7 -37q-8 -49 -49 -49q-33 0 -41 39q-12 25 -12 90v924q0 61 12 90q8 37 41 37q41 0 49 -47q4 -16 6.5 -40t2.5 -61v-289q76 61 159 62v254q0 80 -13 130t-40 77q-66 59 -166 59q-90 0 -153 -53q-18 -16 -29.5 -40t-17.5 -50q-4 -23 -8.5 -52.5 t-4.5 -70.5v-940z" />
<glyph unicode="&#xc8;" d="M27 0h485v244q-14 -41 -33.5 -60.5t-54.5 -19.5h-184v500h94q39 0 65 -15q14 -8 26.5 -26.5t25.5 -42.5v346q-14 -27 -28.5 -47.5t-35.5 -28.5q-10 -8 -28.5 -9t-43.5 -1h-75v434h145q49 0 80 -26.5t47 -80.5v267h-485q16 -18 25 -35t16 -31q10 -31 10 -94v-1110 q0 -68 -10 -98q-6 -16 -15.5 -33t-25.5 -33zM73 1657q0 18 20.5 30.5t45.5 12.5q43 0 106 -45q6 -6 86 -68q43 -34 133 -108h-75q-92 47 -140 67q-53 25 -104 49q-72 39 -72 62z" />
<glyph unicode="&#xc9;" d="M27 0h485v244q-14 -41 -33.5 -60.5t-54.5 -19.5h-184v500h94q39 0 65 -15q14 -8 26.5 -26.5t25.5 -42.5v346q-14 -27 -28.5 -47.5t-35.5 -28.5q-10 -8 -28.5 -9t-43.5 -1h-75v434h145q49 0 80 -26.5t47 -80.5v267h-485q16 -18 25 -35t16 -31q10 -31 10 -94v-1110 q0 -68 -10 -98q-6 -16 -15.5 -33t-25.5 -33zM61 1481h76q92 47 139 67q53 25 105 49q72 39 71 62q0 18 -20.5 30.5t-44.5 12.5q-43 0 -107 -45q-6 -6 -86 -68q-43 -34 -133 -108z" />
<glyph unicode="&#xca;" d="M27 0h485v244q-14 -41 -33.5 -60.5t-54.5 -19.5h-184v500h94q39 0 65 -15q14 -8 26.5 -26.5t25.5 -42.5v346q-14 -27 -28.5 -47.5t-35.5 -28.5q-10 -8 -28.5 -9t-43.5 -1h-75v434h145q49 0 80 -26.5t47 -80.5v267h-485q16 -18 25 -35t16 -31q10 -31 10 -94v-1110 q0 -68 -10 -98q-6 -16 -15.5 -33t-25.5 -33zM91 1474h47l139 119l137 -119h47l-141 179h-86z" />
<glyph unicode="&#xcb;" d="M27 0h485v244q-14 -41 -33.5 -60.5t-54.5 -19.5h-184v500h94q39 0 65 -15q14 -8 26.5 -26.5t25.5 -42.5v346q-14 -27 -28.5 -47.5t-35.5 -28.5q-10 -8 -28.5 -9t-43.5 -1h-75v434h145q49 0 80 -26.5t47 -80.5v267h-485q16 -18 25 -35t16 -31q10 -31 10 -94v-1110 q0 -68 -10 -98q-6 -16 -15.5 -33t-25.5 -33zM117 1600q0 -29 7 -50.5t17 -39.5q20 -37 47 -37q29 0 49.5 37t20.5 90q0 47 -20 86q-23 37 -50 37t-47 -37q-12 -23 -18 -42t-6 -44zM321 1600q0 -29 7.5 -50.5t17.5 -39.5q20 -37 47 -37q29 0 49.5 37t20.5 90q0 47 -21 86 q-23 37 -49 37q-27 0 -47 -37q-12 -23 -18.5 -42t-6.5 -44z" />
<glyph unicode="&#xcc;" horiz-adv-x="303" d="M-41 1657q0 18 20.5 30.5t45.5 12.5q43 0 106 -45q6 -6 86 -68q43 -34 133 -108h-75q-92 47 -140 67q-53 25 -104 49q-72 39 -72 62zM20 0h263q-33 35 -43 74q-4 12 -6.5 38.5t-2.5 65.5v1077q0 41 2.5 67t6.5 38q10 39 43 74h-263q39 -41 43 -74q2 -12 5.5 -38t3.5 -67 v-1077q0 -39 -2 -65.5t-7 -38.5q-4 -16 -14 -33.5t-29 -40.5z" />
<glyph unicode="&#xcd;" horiz-adv-x="303" d="M-41 1487h76q92 47 139 67q53 25 105 49q72 39 71 62q0 18 -20.5 30.5t-44.5 12.5q-43 0 -107 -45q-6 -6 -86 -68q-43 -34 -133 -108zM20 0h263q-33 35 -43 74q-4 12 -6.5 38.5t-2.5 65.5v1077q0 41 2.5 67t6.5 38q10 39 43 74h-263q39 -41 43 -74q2 -12 5.5 -38t3.5 -67 v-1077q0 -39 -2 -65.5t-7 -38.5q-4 -16 -14 -33.5t-29 -40.5z" />
<glyph unicode="&#xce;" horiz-adv-x="303" d="M-28 1476h47l139 119l137 -119h47l-141 179h-86zM20 0h263q-33 35 -43 74q-4 12 -6.5 38.5t-2.5 65.5v1077q0 41 2.5 67t6.5 38q10 39 43 74h-263q39 -41 43 -74q2 -12 5.5 -38t3.5 -67v-1077q0 -39 -2 -65.5t-7 -38.5q-4 -16 -14 -33.5t-29 -40.5z" />
<glyph unicode="&#xcf;" horiz-adv-x="303" d="M-14 1602q0 -29 7 -50.5t17 -39.5q20 -37 47 -37q29 0 49.5 37t20.5 90q0 47 -20 86q-23 37 -50 37t-47 -37q-12 -23 -18 -42t-6 -44zM20 0h263q-33 35 -43 74q-4 12 -6.5 38.5t-2.5 65.5v1077q0 41 2.5 67t6.5 38q10 39 43 74h-263q39 -41 43 -74q2 -12 5.5 -38t3.5 -67 v-1077q0 -39 -2 -65.5t-7 -38.5q-4 -16 -14 -33.5t-29 -40.5zM190 1602q0 -29 7.5 -50.5t17.5 -39.5q20 -37 47 -37q29 0 49.5 37t20.5 90q0 47 -21 86q-23 37 -49 37q-27 0 -47 -37q-12 -23 -18.5 -42t-6.5 -44z" />
<glyph unicode="&#xd1;" horiz-adv-x="626" d="M0 -215h12q88 0 160 133q10 16 19.5 29.5t19.5 23.5q8 4 19.5 10.5t27.5 16.5q-10 25 -15 41t-10 31q-2 10 -5 31.5t-3 52.5v634l148 -618q18 -74 18 -107q0 -16 -5 -32.5t-13 -30.5h229q-12 20 -19.5 38.5t-11.5 39.5q-4 16 -8 39.5t-4 58.5v1092q0 31 4 54.5t8 37.5 l2 4q4 14 11.5 31.5t19.5 38.5h-252q37 -49 45 -93q2 -16 5.5 -44.5t3.5 -67.5v-615l-181 820h-207q20 -23 31.5 -43.5t16.5 -36.5q10 -20 11 -47t1 -64v-1122q0 -217 -78 -336zM88 1489q43 197 153 197q35 0 97.5 -44t99.5 -44q49 0 78 96h41q-39 -203 -150 -203 q-35 0 -100.5 44t-93.5 44q-49 0 -78 -90h-47z" />
<glyph unicode="&#xd2;" horiz-adv-x="503" d="M35 250q0 -41 4 -72t8 -53q12 -49 47 -84q63 -61 162 -61q98 0 160 61q23 29 36 81t13 132v881v90t-4 55q-4 37 -15.5 64.5t-29.5 44.5q-66 66 -160 65q-98 0 -162 -59q-35 -39 -47 -90q-4 -18 -8 -48t-4 -67v-940zM55 1645q0 18 20.5 30.5t45.5 12.5q43 0 106 -45 q6 -6 86 -68q43 -34 133 -108h-75q-92 47 -140 67q-53 25 -104 49q-72 39 -72 62zM201 260v914q0 35 2 55t4 37q12 39 49 39q31 0 41 -43q4 -14 6 -39t2 -60v-895q0 -35 -2 -58.5t-6 -35.5q-8 -41 -41 -41q-37 0 -49 37q-2 14 -4 34.5t-2 55.5z" />
<glyph unicode="&#xd3;" horiz-adv-x="503" d="M35 250q0 -41 4 -72t8 -53q12 -49 47 -84q63 -61 162 -61q98 0 160 61q23 29 36 81t13 132v881v90t-4 55q-4 37 -15.5 64.5t-29.5 44.5q-66 66 -160 65q-98 0 -162 -59q-35 -39 -47 -90q-4 -18 -8 -48t-4 -67v-940zM41 1465h76q92 47 139 67q53 25 105 49q72 39 71 62 q0 18 -20.5 30.5t-44.5 12.5q-43 0 -107 -45q-6 -6 -86 -68q-43 -34 -133 -108zM201 260v914q0 35 2 55t4 37q12 39 49 39q31 0 41 -43q4 -14 6 -39t2 -60v-895q0 -35 -2 -58.5t-6 -35.5q-8 -41 -41 -41q-37 0 -49 37q-2 14 -4 34.5t-2 55.5z" />
<glyph unicode="&#xd4;" horiz-adv-x="503" d="M35 250q0 -41 4 -72t8 -53q12 -49 47 -84q63 -61 162 -61q98 0 160 61q23 29 36 81t13 132v881v90t-4 55q-4 37 -15.5 64.5t-29.5 44.5q-66 66 -160 65q-98 0 -162 -59q-35 -39 -47 -90q-4 -18 -8 -48t-4 -67v-940zM68 1468h47l139 119l137 -119h47l-141 179h-86z M201 260v914q0 35 2 55t4 37q12 39 49 39q31 0 41 -43q4 -14 6 -39t2 -60v-895q0 -35 -2 -58.5t-6 -35.5q-8 -41 -41 -41q-37 0 -49 37q-2 14 -4 34.5t-2 55.5z" />
<glyph unicode="&#xd5;" horiz-adv-x="503" d="M17 1466q43 197 153 197q35 0 97.5 -44t99.5 -44q49 0 78 96h41q-39 -203 -150 -203q-35 0 -100.5 44t-93.5 44q-49 0 -78 -90h-47zM35 250q0 -41 4 -72t8 -53q12 -49 47 -84q63 -61 162 -61q98 0 160 61q23 29 36 81t13 132v881v90t-4 55q-4 37 -15.5 64.5t-29.5 44.5 q-66 66 -160 65q-98 0 -162 -59q-35 -39 -47 -90q-4 -18 -8 -48t-4 -67v-940zM201 260v914q0 35 2 55t4 37q12 39 49 39q31 0 41 -43q4 -14 6 -39t2 -60v-895q0 -35 -2 -58.5t-6 -35.5q-8 -41 -41 -41q-37 0 -49 37q-2 14 -4 34.5t-2 55.5z" />
<glyph unicode="&#xd6;" horiz-adv-x="503" d="M35 250q0 -41 4 -72t8 -53q12 -49 47 -84q63 -61 162 -61q98 0 160 61q23 29 36 81t13 132v881v90t-4 55q-4 37 -15.5 64.5t-29.5 44.5q-66 66 -160 65q-98 0 -162 -59q-35 -39 -47 -90q-4 -18 -8 -48t-4 -67v-940zM76 1620q0 -29 7 -50.5t17 -39.5q20 -37 47 -37 q29 0 49.5 37t20.5 90q0 47 -20 86q-23 37 -50 37t-47 -37q-12 -23 -18 -42t-6 -44zM201 260v914q0 35 2 55t4 37q12 39 49 39q31 0 41 -43q4 -14 6 -39t2 -60v-895q0 -35 -2 -58.5t-6 -35.5q-8 -41 -41 -41q-37 0 -49 37q-2 14 -4 34.5t-2 55.5zM280 1620q0 -29 7.5 -50.5 t17.5 -39.5q20 -37 47 -37q29 0 49.5 37t20.5 90q0 47 -21 86q-23 37 -49 37q-27 0 -47 -37q-12 -23 -18.5 -42t-6.5 -44z" />
<glyph unicode="&#xd8;" horiz-adv-x="503" d="M35 250q0 -41 4 -72t8 -53q12 -49 47 -84q25 -25 58 -41l-17 -156h53l15 142q25 -6 53 -6q98 0 160 61q23 29 36 81t13 132v881v90t-4 55q-4 37 -15.5 64.5t-29.5 44.5q-29 27 -62 43l17 149h-54l-14 -131q-10 2 -22.5 3t-24.5 1q-98 0 -162 -59q-35 -39 -47 -90 q-4 -18 -8 -48t-4 -67v-940zM201 469v705q0 35 2 55t4 37q12 39 49 39q18 0 31 -17zM219 145l86 811v-688q0 -35 -2 -58.5t-6 -35.5q-8 -41 -41 -41q-25 0 -37 12z" />
<glyph unicode="&#xd9;" horiz-adv-x="577" d="M25 1434q37 -37 38 -62q12 -29 13 -96v-1034q0 -37 1 -68t5 -51q8 -27 19.5 -48.5t31.5 -37.5q57 -57 158 -57q96 0 155 57q54 58 54 205v1020q0 37 1 63.5t7 40.5q2 31 43 68h-250q27 -27 33 -66q4 -10 6 -33.5t2 -56.5v-1018q0 -68 -12 -94q-10 -39 -43 -39 q-31 0 -43 37q-10 25 -11 86v1012q0 41 2.5 65.5t2.5 34.5q6 39 32 72h-245zM88 1665q0 18 20.5 30.5t45.5 12.5q43 0 106 -45q6 -6 86 -68q43 -34 133 -108h-75q-92 47 -140 67q-53 25 -104 49q-72 39 -72 62z" />
<glyph unicode="&#xda;" horiz-adv-x="577" d="M25 1434q37 -37 38 -62q12 -29 13 -96v-1034q0 -37 1 -68t5 -51q8 -27 19.5 -48.5t31.5 -37.5q57 -57 158 -57q96 0 155 57q54 58 54 205v1020q0 37 1 63.5t7 40.5q2 31 43 68h-250q27 -27 33 -66q4 -10 6 -33.5t2 -56.5v-1018q0 -68 -12 -94q-10 -39 -43 -39 q-31 0 -43 37q-10 25 -11 86v1012q0 41 2.5 65.5t2.5 34.5q6 39 32 72h-245zM86 1477h76q92 47 139 67q53 25 105 49q72 39 71 62q0 18 -20.5 30.5t-44.5 12.5q-43 0 -107 -45q-6 -6 -86 -68q-43 -34 -133 -108z" />
<glyph unicode="&#xdb;" horiz-adv-x="577" d="M25 1434q37 -37 38 -62q12 -29 13 -96v-1034q0 -37 1 -68t5 -51q8 -27 19.5 -48.5t31.5 -37.5q57 -57 158 -57q96 0 155 57q54 58 54 205v1020q0 37 1 63.5t7 40.5q2 31 43 68h-250q27 -27 33 -66q4 -10 6 -33.5t2 -56.5v-1018q0 -68 -12 -94q-10 -39 -43 -39 q-31 0 -43 37q-10 25 -11 86v1012q0 41 2.5 65.5t2.5 34.5q6 39 32 72h-245zM101 1468h47l139 119l137 -119h47l-141 179h-86z" />
<glyph unicode="&#xdc;" horiz-adv-x="577" d="M25 1434q37 -37 38 -62q12 -29 13 -96v-1034q0 -37 1 -68t5 -51q8 -27 19.5 -48.5t31.5 -37.5q57 -57 158 -57q96 0 155 57q54 58 54 205v1020q0 37 1 63.5t7 40.5q2 31 43 68h-250q27 -27 33 -66q4 -10 6 -33.5t2 -56.5v-1018q0 -68 -12 -94q-10 -39 -43 -39 q-31 0 -43 37q-10 25 -11 86v1012q0 41 2.5 65.5t2.5 34.5q6 39 32 72h-245zM113 1589q0 -29 7 -50.5t17 -39.5q20 -37 47 -37q29 0 49.5 37t20.5 90q0 47 -20 86q-23 37 -50 37t-47 -37q-12 -23 -18 -42t-6 -44zM317 1589q0 -29 7.5 -50.5t17.5 -39.5q20 -37 47 -37 q29 0 49.5 37t20.5 90q0 47 -21 86q-23 37 -49 37q-27 0 -47 -37q-12 -23 -18.5 -42t-6.5 -44z" />
<glyph unicode="&#xdd;" horiz-adv-x="583" d="M14 1434q33 -35 45 -107l152 -758v-405q0 -35 -1 -59.5t-5 -38.5q-8 -27 -45 -66h262q-31 37 -43 70q-4 14 -5 37.5t-1 56.5v409l151 754q8 39 18.5 65.5t26.5 41.5h-229q16 -45 16 -109q0 -23 -4 -58.5t-12 -88.5l-49 -295l-47 295q-8 53 -13.5 89t-5.5 58 q0 33 5.5 59.5t13.5 49.5h-230zM88 1467h76q92 47 139 67q53 25 105 49q72 39 71 62q0 18 -20.5 30.5t-44.5 12.5q-43 0 -107 -45q-6 -6 -86 -68q-43 -34 -133 -108z" />
<glyph unicode="&#xe0;" horiz-adv-x="448" d="M35 670q72 88 149 123v174q0 69 43 69q16 0 27.5 -10t11.5 -33v-168q-4 -29 -11 -58.5t-28 -45.5q-10 -12 -61 -51q-29 -23 -46.5 -38.5t-29.5 -27.5q-35 -37 -45 -76q-4 -12 -4 -41v-71v-191q0 -57 1 -96t7 -59q6 -23 15.5 -38.5t25.5 -25.5q8 -4 22.5 -5t34.5 -1h310 q-33 33 -37 68q-2 10 -3 33.5t-1 60.5v772q0 39 -2 66.5t-6 46.5q-4 25 -14.5 44t-26.5 35q-55 57 -144 58q-86 0 -133 -54q-16 -20 -29.5 -41.5t-19.5 -50.5q-4 -18 -5 -49t-1 -71v-248zM45 1387q0 18 20.5 30.5t45.5 12.5q43 0 106 -45q6 -6 86 -68q43 -34 133 -108h-75 q-92 47 -140 67q-53 25 -104 49q-72 39 -72 62zM184 197v34v228q0 35 33 61q4 4 16.5 13.5t32.5 27.5v-411q-35 0 -55.5 5t-24.5 19q-2 8 -2 23z" />
<glyph unicode="&#xe1;" horiz-adv-x="448" d="M33 1217h76q92 47 139 67q53 25 105 49q72 39 71 62q0 18 -20.5 30.5t-44.5 12.5q-43 0 -107 -45q-6 -6 -86 -68q-43 -34 -133 -108zM35 670q72 88 149 123v174q0 69 43 69q16 0 27.5 -10t11.5 -33v-168q-4 -29 -11 -58.5t-28 -45.5q-10 -12 -61 -51q-29 -23 -46.5 -38.5 t-29.5 -27.5q-35 -37 -45 -76q-4 -12 -4 -41v-71v-191q0 -57 1 -96t7 -59q6 -23 15.5 -38.5t25.5 -25.5q8 -4 22.5 -5t34.5 -1h310q-33 33 -37 68q-2 10 -3 33.5t-1 60.5v772q0 39 -2 66.5t-6 46.5q-4 25 -14.5 44t-26.5 35q-55 57 -144 58q-86 0 -133 -54 q-16 -20 -29.5 -41.5t-19.5 -50.5q-4 -18 -5 -49t-1 -71v-248zM184 197v34v228q0 35 33 61q4 4 16.5 13.5t32.5 27.5v-411q-35 0 -55.5 5t-24.5 19q-2 8 -2 23z" />
<glyph unicode="&#xe2;" horiz-adv-x="448" d="M21 1212h47l139 119l137 -119h47l-141 179h-86zM35 670q72 88 149 123v174q0 69 43 69q16 0 27.5 -10t11.5 -33v-168q-4 -29 -11 -58.5t-28 -45.5q-10 -12 -61 -51q-29 -23 -46.5 -38.5t-29.5 -27.5q-35 -37 -45 -76q-4 -12 -4 -41v-71v-191q0 -57 1 -96t7 -59 q6 -23 15.5 -38.5t25.5 -25.5q8 -4 22.5 -5t34.5 -1h310q-33 33 -37 68q-2 10 -3 33.5t-1 60.5v772q0 39 -2 66.5t-6 46.5q-4 25 -14.5 44t-26.5 35q-55 57 -144 58q-86 0 -133 -54q-16 -20 -29.5 -41.5t-19.5 -50.5q-4 -18 -5 -49t-1 -71v-248zM184 197v34v228q0 35 33 61 q4 4 16.5 13.5t32.5 27.5v-411q-35 0 -55.5 5t-24.5 19q-2 8 -2 23z" />
<glyph unicode="&#xe3;" horiz-adv-x="448" d="M26 1249q36 201 128 201q29 0 81.5 -45t83.5 -45q41 0 66 98h34q-33 -207 -126 -207q-29 0 -84 45t-79 45q-41 0 -65 -92h-39zM35 670q72 88 149 123v174q0 69 43 69q16 0 27.5 -10t11.5 -33v-168q-4 -29 -11 -58.5t-28 -45.5q-10 -12 -61 -51q-29 -23 -46.5 -38.5 t-29.5 -27.5q-35 -37 -45 -76q-4 -12 -4 -41v-71v-191q0 -57 1 -96t7 -59q6 -23 15.5 -38.5t25.5 -25.5q8 -4 22.5 -5t34.5 -1h310q-33 33 -37 68q-2 10 -3 33.5t-1 60.5v772q0 39 -2 66.5t-6 46.5q-4 25 -14.5 44t-26.5 35q-55 57 -144 58q-86 0 -133 -54 q-16 -20 -29.5 -41.5t-19.5 -50.5q-4 -18 -5 -49t-1 -71v-248zM184 197v34v228q0 35 33 61q4 4 16.5 13.5t32.5 27.5v-411q-35 0 -55.5 5t-24.5 19q-2 8 -2 23z" />
<glyph unicode="&#xe4;" horiz-adv-x="448" d="M35 670q72 88 149 123v174q0 69 43 69q16 0 27.5 -10t11.5 -33v-168q-4 -29 -11 -58.5t-28 -45.5q-10 -12 -61 -51q-29 -23 -46.5 -38.5t-29.5 -27.5q-35 -37 -45 -76q-4 -12 -4 -41v-71v-191q0 -57 1 -96t7 -59q6 -23 15.5 -38.5t25.5 -25.5q8 -4 22.5 -5t34.5 -1h310 q-33 33 -37 68q-2 10 -3 33.5t-1 60.5v772q0 39 -2 66.5t-6 46.5q-4 25 -14.5 44t-26.5 35q-55 57 -144 58q-86 0 -133 -54q-16 -20 -29.5 -41.5t-19.5 -50.5q-4 -18 -5 -49t-1 -71v-248zM58 1342q0 -29 7 -50.5t17 -39.5q20 -37 47 -37q29 0 49.5 37t20.5 90q0 47 -20 86 q-23 37 -50 37t-47 -37q-12 -23 -18 -42t-6 -44zM184 197v34v228q0 35 33 61q4 4 16.5 13.5t32.5 27.5v-411q-35 0 -55.5 5t-24.5 19q-2 8 -2 23zM262 1342q0 -29 7.5 -50.5t17.5 -39.5q20 -37 47 -37q29 0 49.5 37t20.5 90q0 47 -21 86q-23 37 -49 37q-27 0 -47 -37 q-12 -23 -18.5 -42t-6.5 -44z" />
<glyph unicode="&#xe5;" horiz-adv-x="448" d="M35 670q72 88 149 123v174q0 69 43 69q16 0 27.5 -10t11.5 -33v-168q-4 -29 -11 -58.5t-28 -45.5q-10 -12 -61 -51q-29 -23 -46.5 -38.5t-29.5 -27.5q-35 -37 -45 -76q-4 -12 -4 -41v-71v-191q0 -57 1 -96t7 -59q6 -23 15.5 -38.5t25.5 -25.5q8 -4 22.5 -5t34.5 -1h310 q-33 33 -37 68q-2 10 -3 33.5t-1 60.5v772q0 39 -2 66.5t-6 46.5q-4 25 -14.5 44t-26.5 35q-55 57 -144 58q-86 0 -133 -54q-16 -20 -29.5 -41.5t-19.5 -50.5q-4 -18 -5 -49t-1 -71v-248zM108 1370q0 -18 2 -35q0 -18 7 -35.5t18 -34.5q31 -43 102 -43q74 0 102 43 q14 31 21 58q0 10 1 28.5t1 40.5v13v38q0 16 -2 27q-2 16 -7 30.5t-14 28.5q-14 20 -39.5 33t-62.5 13q-72 0 -102 -46q-10 -16 -18.5 -32.5t-8.5 -38.5v-39v-49zM163 1343v115q0 61 72 61t72 -61v-115q0 -66 -72 -65q-72 0 -72 65zM184 197v34v228q0 35 33 61 q4 4 16.5 13.5t32.5 27.5v-411q-35 0 -55.5 5t-24.5 19q-2 8 -2 23z" />
<glyph unicode="&#xe6;" horiz-adv-x="755" d="M45 670q72 88 150 123v174q0 70 43 69q16 0 27 -10t11 -33v-168q-4 -29 -11 -58.5t-27 -45.5q-10 -12 -62 -51q-29 -23 -46 -38.5t-30 -27.5q-35 -37 -45 -76q-4 -12 -4 -41v-71v-191q0 -57 1 -96t7 -59q6 -23 15.5 -38.5t25.5 -25.5q8 -4 22.5 -5t35.5 -1h233 q35 -10 76 -10q115 0 154 69q16 25 25 69t9 105v361q-102 -10 -147 -70v-327q0 -66 -43 -66q-41 0 -41 66v397q53 49 111.5 74.5t119.5 31.5v244q0 121 -34 178q-41 68 -154 68q-41 0 -68.5 -10.5t-50.5 -28.5q-45 33 -115 33q-86 0 -133 -54q-16 -20 -29.5 -41.5 t-19.5 -50.5q-4 -18 -5 -49t-1 -71v-248zM195 197v34v228q0 35 32 61q4 4 16.5 13.5t32.5 27.5v-411q-35 0 -55 5t-24 19q-2 8 -2 23zM424 764v221q0 63 41 64q43 0 43 -64v-182z" />
<glyph unicode="&#xe7;" horiz-adv-x="468" d="M39 279q0 -41 1 -74t7 -55q6 -27 14.5 -53.5t24.5 -49.5q47 -66 152 -65h8v-21q0 -39 -17 -59q-14 -18 -32 -19q-31 0 -82 43l-19 -98q61 -59 123 -59q31 0 51 16q29 20 51.5 71.5t14.5 114.5v27q18 10 31.5 23.5t23.5 29.5q12 18 19.5 40t11.5 44q4 16 6 42t2 61v354 l-151 -76v-328q0 -53 -29 -63q0 -2 -4 -2h-10q-41 0 -41 65v789q0 63 41 63q43 0 43 -63v-250l151 68v131q0 35 -2 59.5t-6 40.5q-2 25 -10.5 45.5t-20.5 42.5q-41 68 -153 68q-102 0 -152 -66q-16 -23 -24.5 -49.5t-14.5 -54.5q-6 -23 -7 -55.5t-1 -73.5v-604z" />
<glyph unicode="&#xe8;" horiz-adv-x="456" d="M35 281q0 -41 3 -74l5 -55q2 -27 12.5 -53.5t26.5 -49.5q47 -66 151 -65q115 0 154 69q16 25 25.5 69t9.5 105v361q-102 -10 -148 -70v-328q0 -66 -43 -65q-41 0 -41 65v398q53 49 111.5 74.5t120.5 31.5v244q0 121 -35 178q-41 68 -154 68q-104 0 -151 -66 q-16 -25 -24.5 -51.5t-14.5 -52.5q-6 -23 -7 -55.5t-1 -73.5v-604zM55 1380q0 18 20.5 30.5t45.5 12.5q43 0 106 -45q6 -6 86 -68q43 -34 133 -108h-75q-92 47 -140 67q-53 25 -104 49q-72 39 -72 62zM190 758v221q0 63 41 63q43 0 43 -63v-182z" />
<glyph unicode="&#xe9;" horiz-adv-x="456" d="M30 1209h76q92 47 139 67q53 25 105 49q72 39 71 62q0 18 -20.5 30.5t-44.5 12.5q-43 0 -107 -45q-6 -6 -86 -68q-43 -34 -133 -108zM35 281q0 -41 3 -74l5 -55q2 -27 12.5 -53.5t26.5 -49.5q47 -66 151 -65q115 0 154 69q16 25 25.5 69t9.5 105v361q-102 -10 -148 -70 v-328q0 -66 -43 -65q-41 0 -41 65v398q53 49 111.5 74.5t120.5 31.5v244q0 121 -35 178q-41 68 -154 68q-104 0 -151 -66q-16 -25 -24.5 -51.5t-14.5 -52.5q-6 -23 -7 -55.5t-1 -73.5v-604zM190 758v221q0 63 41 63q43 0 43 -63v-182z" />
<glyph unicode="&#xea;" horiz-adv-x="456" d="M21 1216h47l139 119l137 -119h47l-141 179h-86zM35 281q0 -41 3 -74l5 -55q2 -27 12.5 -53.5t26.5 -49.5q47 -66 151 -65q115 0 154 69q16 25 25.5 69t9.5 105v361q-102 -10 -148 -70v-328q0 -66 -43 -65q-41 0 -41 65v398q53 49 111.5 74.5t120.5 31.5v244 q0 121 -35 178q-41 68 -154 68q-104 0 -151 -66q-16 -25 -24.5 -51.5t-14.5 -52.5q-6 -23 -7 -55.5t-1 -73.5v-604zM190 758v221q0 63 41 63q43 0 43 -63v-182z" />
<glyph unicode="&#xeb;" horiz-adv-x="456" d="M35 281q0 -41 3 -74l5 -55q2 -27 12.5 -53.5t26.5 -49.5q47 -66 151 -65q115 0 154 69q16 25 25.5 69t9.5 105v361q-102 -10 -148 -70v-328q0 -66 -43 -65q-41 0 -41 65v398q53 49 111.5 74.5t120.5 31.5v244q0 121 -35 178q-41 68 -154 68q-104 0 -151 -66 q-16 -25 -24.5 -51.5t-14.5 -52.5q-6 -23 -7 -55.5t-1 -73.5v-604zM60 1342q0 -29 7 -50.5t17 -39.5q20 -37 47 -37q29 0 49.5 37t20.5 90q0 47 -20 86q-23 37 -50 37t-47 -37q-12 -23 -18 -42t-6 -44zM190 758v221q0 63 41 63q43 0 43 -63v-182zM264 1342q0 -29 7.5 -50.5 t17.5 -39.5q20 -37 47 -37q29 0 49.5 37t20.5 90q0 47 -21 86q-23 37 -49 37q-27 0 -47 -37q-12 -23 -18.5 -42t-6.5 -44z" />
<glyph unicode="&#xec;" horiz-adv-x="284" d="M-13 1375q0 14 16 23.5t35 9.5q33 0 82 -34q4 -5 66 -53q33 -26 102 -83h-57q-71 36 -108 52q-41 19 -80 38q-56 29 -56 47zM20 1165q16 -29 32 -50t18 -46q6 -29 6 -135v-784q0 -61 -6 -89q-2 -10 -8.5 -20t-12.5 -23l-12 -18h231l-14 18q-10 12 -15.5 22.5t-9.5 20.5 q-4 14 -5 36t-1 48v1020h-203z" />
<glyph unicode="&#xed;" horiz-adv-x="284" d="M-15 1235h61q74 38 112 54l84 40q57 31 57 50q0 14 -16.5 24t-35.5 10q-35 0 -86 -36q-5 -5 -69 -55q-34 -27 -107 -87zM20 1165q16 -29 32 -50t18 -46q6 -29 6 -135v-784q0 -61 -6 -89q-2 -10 -8.5 -20t-12.5 -23l-12 -18h231l-14 18q-10 12 -15.5 22.5t-9.5 20.5 q-4 14 -5 36t-1 48v1020h-203z" />
<glyph unicode="&#xee;" horiz-adv-x="284" d="M-20 1203h43l127 108l124 -108h43l-128 162h-79zM20 1165q16 -29 32 -50t18 -46q6 -29 6 -135v-784q0 -61 -6 -89q-2 -10 -8.5 -20t-12.5 -23l-12 -18h231l-14 18q-10 12 -15.5 22.5t-9.5 20.5q-4 14 -5 36t-1 48v1020h-203z" />
<glyph unicode="&#xef;" horiz-adv-x="284" d="M-28 1340q0 -29 7 -50.5t17 -39.5q20 -37 47 -37q29 0 49.5 37t20.5 90q0 47 -20 86q-23 37 -50 37t-47 -37q-12 -23 -18 -42t-6 -44zM20 1165q16 -29 32 -50t18 -46q6 -29 6 -135v-784q0 -61 -6 -89q-2 -10 -8.5 -20t-12.5 -23l-12 -18h231l-14 18q-10 12 -15.5 22.5 t-9.5 20.5q-4 14 -5 36t-1 48v1020h-203zM176 1340q0 -29 7.5 -50.5t17.5 -39.5q20 -37 47 -37q29 0 49.5 37t20.5 90q0 47 -21 86q-23 37 -49 37q-27 0 -47 -37q-12 -23 -18.5 -42t-6.5 -44z" />
<glyph unicode="&#xf1;" horiz-adv-x="501" d="M10 1165q23 -29 35 -50t16 -42q6 -31 7 -133v-786q0 -29 -1 -50.5t-6 -37.5q-2 -12 -22 -43l-14 -23h213l-9 25q-8 20 -10 46.5t-2 65.5v905q25 0 38 -1t17 -3q33 -12 33 -71v-789q0 -39 -2 -63.5t-4 -34.5q-10 -53 -31 -80h213q0 10 -5 15t-12 11.5t-12.5 18.5t-5.5 39 v756v80q0 35 -4 53q-6 78 -26 119q-35 74 -152 73h-254zM26 1241q36 201 130 201q29 0 82 -45t84 -45q42 0 67 98h34q-33 -207 -127 -207q-29 0 -84.5 45t-79.5 45q-42 0 -66 -92h-40z" />
<glyph unicode="&#xf2;" horiz-adv-x="458" d="M35 281q0 -88 8 -129q4 -27 15.5 -53.5t23.5 -49.5q18 -35 58 -50t93 -15q113 0 154 65q12 23 19.5 42.5t11.5 43.5q2 16 3 43t1 62v688q0 33 -1 58.5t-3 41.5q-2 25 -10.5 45.5t-20.5 42.5q-20 31 -58 49.5t-96 18.5q-106 0 -151 -68q-16 -25 -24.5 -50.5t-14.5 -55.5 q-8 -39 -8 -125v-604zM55 1397q0 18 20.5 30.5t45.5 12.5q43 0 106 -45q6 -6 86 -68q43 -34 133 -108h-75q-92 47 -140 67q-53 25 -104 49q-72 39 -72 62zM190 190v789q0 63 41 63q43 0 43 -63v-789q0 -66 -43 -65q-41 0 -41 65z" />
<glyph unicode="&#xf3;" horiz-adv-x="458" d="M26 1213h76q92 47 139 67q53 25 105 49q72 39 71 62q0 18 -20.5 30.5t-44.5 12.5q-43 0 -107 -45q-6 -6 -86 -68q-43 -34 -133 -108zM35 281q0 -88 8 -129q4 -27 15.5 -53.5t23.5 -49.5q18 -35 58 -50t93 -15q113 0 154 65q12 23 19.5 42.5t11.5 43.5q2 16 3 43t1 62v688 q0 33 -1 58.5t-3 41.5q-2 25 -10.5 45.5t-20.5 42.5q-20 31 -58 49.5t-96 18.5q-106 0 -151 -68q-16 -25 -24.5 -50.5t-14.5 -55.5q-8 -39 -8 -125v-604zM190 190v789q0 63 41 63q43 0 43 -63v-789q0 -66 -43 -65q-41 0 -41 65z" />
<glyph unicode="&#xf4;" horiz-adv-x="458" d="M21 1206h47l139 119l137 -119h47l-141 179h-86zM35 281q0 -88 8 -129q4 -27 15.5 -53.5t23.5 -49.5q18 -35 58 -50t93 -15q113 0 154 65q12 23 19.5 42.5t11.5 43.5q2 16 3 43t1 62v688q0 33 -1 58.5t-3 41.5q-2 25 -10.5 45.5t-20.5 42.5q-20 31 -58 49.5t-96 18.5 q-106 0 -151 -68q-16 -25 -24.5 -50.5t-14.5 -55.5q-8 -39 -8 -125v-604zM190 190v789q0 63 41 63q43 0 43 -63v-789q0 -66 -43 -65q-41 0 -41 65z" />
<glyph unicode="&#xf5;" horiz-adv-x="458" d="M35 281q0 -88 8 -129q4 -27 15.5 -53.5t23.5 -49.5q18 -35 58 -50t93 -15q113 0 154 65q12 23 19.5 42.5t11.5 43.5q2 16 3 43t1 62v688q0 33 -1 58.5t-3 41.5q-2 25 -10.5 45.5t-20.5 42.5q-20 31 -58 49.5t-96 18.5q-106 0 -151 -68q-16 -25 -24.5 -50.5t-14.5 -55.5 q-8 -39 -8 -125v-604zM47 1245q35 181 125 181q28 0 79.5 -40.5t81.5 -40.5q40 0 63 88h34q-32 -186 -123 -186q-28 0 -81.5 40.5t-76.5 40.5q-40 0 -64 -83h-38zM190 190v789q0 63 41 63q43 0 43 -63v-789q0 -66 -43 -65q-41 0 -41 65z" />
<glyph unicode="&#xf6;" horiz-adv-x="458" d="M35 281q0 -88 8 -129q4 -27 15.5 -53.5t23.5 -49.5q18 -35 58 -50t93 -15q113 0 154 65q12 23 19.5 42.5t11.5 43.5q2 16 3 43t1 62v688q0 33 -1 58.5t-3 41.5q-2 25 -10.5 45.5t-20.5 42.5q-20 31 -58 49.5t-96 18.5q-106 0 -151 -68q-16 -25 -24.5 -50.5t-14.5 -55.5 q-8 -39 -8 -125v-604zM60 1350q0 -29 7 -50.5t17 -39.5q20 -37 47 -37q29 0 49.5 37t20.5 90q0 47 -20 86q-23 37 -50 37t-47 -37q-12 -23 -18 -42t-6 -44zM190 190v789q0 63 41 63q43 0 43 -63v-789q0 -66 -43 -65q-41 0 -41 65zM264 1350q0 -29 7.5 -50.5t17.5 -39.5 q20 -37 47 -37q29 0 49.5 37t20.5 90q0 47 -21 86q-23 37 -49 37q-27 0 -47 -37q-12 -23 -18.5 -42t-6.5 -44z" />
<glyph unicode="&#xf8;" horiz-adv-x="458" d="M35 281q0 -88 8 -129q4 -27 15.5 -53.5t23.5 -49.5q8 -16 22.5 -28.5t30.5 -20.5l-18 -160h53l16 148q10 -2 22.5 -3t24.5 -1q113 0 154 65q12 23 19.5 42.5t11.5 43.5q2 16 3 43t1 62v688q0 33 -1 58.5t-3 41.5q-2 25 -10.5 45.5t-20.5 42.5q-23 33 -59 49l18 146h-51 l-16 -131q-10 2 -21.5 3t-24.5 1q-106 0 -151 -68q-16 -25 -24.5 -50.5t-14.5 -55.5q-8 -39 -8 -125v-604zM190 449v530q0 63 41 63q18 0 29 -12zM205 135l69 580v-525q0 -65 -43 -65q-16 0 -26 10z" />
<glyph unicode="&#xf9;" horiz-adv-x="528" d="M-2 1165q23 -29 36 -50t19 -44q2 -12 4 -45t2 -86v-635q0 -92 7.5 -149.5t17.5 -79.5q45 -76 145 -76h269q-23 37 -29 76v98v991h-197q29 -33 33 -67q6 -14 7 -36.5t1 -51.5v-869h-51q-47 0 -47 105v919h-217zM55 1387q0 18 20.5 30.5t45.5 12.5q43 0 106 -45 q6 -6 86 -68q43 -34 133 -108h-75q-92 47 -140 67q-53 25 -104 49q-72 39 -72 62z" />
<glyph unicode="&#xfa;" horiz-adv-x="528" d="M-2 1165q23 -29 36 -50t19 -44q2 -12 4 -45t2 -86v-635q0 -92 7.5 -149.5t17.5 -79.5q45 -76 145 -76h269q-23 37 -29 76v98v991h-197q29 -33 33 -67q6 -14 7 -36.5t1 -51.5v-869h-51q-47 0 -47 105v919h-217zM53 1209h76q92 47 139 67q53 25 105 49q72 39 71 62 q0 18 -20.5 30.5t-44.5 12.5q-43 0 -107 -45q-6 -6 -86 -68q-43 -34 -133 -108z" />
<glyph unicode="&#xfb;" horiz-adv-x="528" d="M-2 1165q23 -29 36 -50t19 -44q2 -12 4 -45t2 -86v-635q0 -92 7.5 -149.5t17.5 -79.5q45 -76 145 -76h269q-23 37 -29 76v98v991h-197q29 -33 33 -67q6 -14 7 -36.5t1 -51.5v-869h-51q-47 0 -47 105v919h-217zM21 1208h47l139 119l137 -119h47l-141 179h-86z" />
<glyph unicode="&#xfc;" horiz-adv-x="528" d="M-2 1165q23 -29 36 -50t19 -44q2 -12 4 -45t2 -86v-635q0 -92 7.5 -149.5t17.5 -79.5q45 -76 145 -76h269q-23 37 -29 76v98v991h-197q29 -33 33 -67q6 -14 7 -36.5t1 -51.5v-869h-51q-47 0 -47 105v919h-217zM88 1340q0 -29 7 -50.5t17 -39.5q20 -37 47 -37 q29 0 49.5 37t20.5 90q0 47 -20 86q-23 37 -50 37t-47 -37q-12 -23 -18 -42t-6 -44zM292 1340q0 -29 7.5 -50.5t17.5 -39.5q20 -37 47 -37q29 0 49.5 37t20.5 90q0 47 -21 86q-23 37 -49 37q-27 0 -47 -37q-12 -23 -18.5 -42t-6.5 -44z" />
<glyph unicode="&#xfd;" horiz-adv-x="534" d="M27 1165q33 -39 45 -141l114 -881q8 -70 13.5 -108.5t5.5 -50.5q0 -100 -74 -101q-45 0 -86 35v-170h64q59 0 99 6t68 17q27 10 45.5 29.5t26.5 49.5q6 20 13.5 55.5t13.5 94.5q8 66 11 101.5t3 37.5l82 881q4 41 16.5 78t30.5 67h-217q29 -74 29 -151v-35q0 -18 -2 -43 l-45 -578l-54 578q-4 35 -5 59.5t-1 40.5q0 63 19 129h-215zM65 1213h76q92 47 139 67q53 25 105 49q72 39 71 62q0 18 -20.5 30.5t-44.5 12.5q-43 0 -107 -45q-6 -6 -86 -68q-43 -34 -133 -108z" />
<glyph unicode="&#xff;" horiz-adv-x="534" d="M27 1165q33 -39 45 -141l114 -881q8 -70 13.5 -108.5t5.5 -50.5q0 -100 -74 -101q-45 0 -86 35v-170h64q59 0 99 6t68 17q27 10 45.5 29.5t26.5 49.5q6 20 13.5 55.5t13.5 94.5q8 66 11 101.5t3 37.5l82 881q4 41 16.5 78t30.5 67h-217q29 -74 29 -151v-35q0 -18 -2 -43 l-45 -578l-54 578q-4 35 -5 59.5t-1 40.5q0 63 19 129h-215zM95 1336q0 -29 7 -50.5t17 -39.5q20 -37 47 -37q29 0 49.5 37t20.5 90q0 47 -20 86q-23 37 -50 37t-47 -37q-12 -23 -18 -42t-6 -44zM299 1336q0 -29 7.5 -50.5t17.5 -39.5q20 -37 47 -37q29 0 49.5 37t20.5 90 q0 47 -21 86q-23 37 -49 37q-27 0 -47 -37q-12 -23 -18.5 -42t-6.5 -44z" />
<glyph unicode="&#x152;" horiz-adv-x="821" d="M63 270q0 -41 4.5 -71.5t8.5 -53.5q12 -49 47 -84q63 -61 162 -61h483v244q-14 -41 -33.5 -60.5t-54.5 -19.5h-184v500h94q39 0 65 -15q14 -8 26.5 -26.5t25.5 -42.5v346q-14 -27 -28.5 -47.5t-35.5 -28.5q-10 -8 -28.5 -9t-43.5 -1h-75v434h145q49 0 80 -26.5t47 -80.5 v267h-485q-96 0 -160 -60q-35 -39 -47 -90q-4 -18 -8.5 -48t-4.5 -67v-899zM229 281v872q0 35 2 55.5t5 36.5q12 39 49 39q31 0 41 -43q2 -10 4 -28.5t4 -43.5v-907q-2 -23 -4 -40t-4 -27q-8 -41 -41 -41q-37 0 -49 36q-2 14 -4.5 35t-2.5 56z" />
<glyph unicode="&#x153;" horiz-adv-x="755" d="M66 281q0 -41 3 -74l5 -55q12 -53 39 -103q47 -66 151 -65q78 0 121 30q45 -33 119 -32q115 0 153 69q16 25 25.5 69t9.5 105v361q-102 -10 -147 -70v-328q0 -66 -43 -65q-41 0 -41 65v398q53 49 111.5 74.5t119.5 31.5v244q0 121 -35 178q-41 68 -153 68 q-39 0 -67.5 -8.5t-51.5 -24.5q-45 35 -121 35q-106 0 -151 -68q-12 -27 -22.5 -51.5t-16.5 -54.5q-2 -23 -5 -53.5t-3 -71.5v-604zM221 190v789q0 63 41 63q43 0 43 -63v-39v-57v-693q0 -66 -43 -65q-41 0 -41 65zM461 756v221q0 63 41 63q43 0 43 -63v-182z" />
<glyph unicode="&#x178;" horiz-adv-x="583" d="M14 1434q33 -35 45 -107l152 -758v-405q0 -35 -1 -59.5t-5 -38.5q-8 -27 -45 -66h262q-31 37 -43 70q-4 14 -5 37.5t-1 56.5v409l151 754q8 39 18.5 65.5t26.5 41.5h-229q16 -45 16 -109q0 -23 -4 -58.5t-12 -88.5l-49 -295l-47 295q-8 53 -13.5 89t-5.5 58 q0 33 5.5 59.5t13.5 49.5h-230zM117 1616q0 -29 7 -50.5t17 -39.5q20 -37 47 -37q29 0 49.5 37t20.5 90q0 47 -20 86q-23 37 -50 37t-47 -37q-12 -23 -18 -42t-6 -44zM321 1616q0 -29 7.5 -50.5t17.5 -39.5q20 -37 47 -37q29 0 49.5 37t20.5 90q0 47 -21 86q-23 37 -49 37 q-27 0 -47 -37q-12 -23 -18.5 -42t-6.5 -44z" />
<glyph unicode="&#x2c6;" horiz-adv-x="413" d="M23 1255h47l139 119l137 -119h47l-141 179h-86z" />
<glyph unicode="&#x2dc;" horiz-adv-x="542" d="M33 1253q43 197 153 197q35 0 97.5 -44t99.5 -44q49 0 78 96h41q-39 -203 -150 -203q-35 0 -100.5 44t-93.5 44q-49 0 -78 -90h-47z" />
<glyph unicode="&#x2000;" horiz-adv-x="1014" />
<glyph unicode="&#x2001;" horiz-adv-x="2028" />
<glyph unicode="&#x2002;" horiz-adv-x="1014" />
<glyph unicode="&#x2003;" horiz-adv-x="2028" />
<glyph unicode="&#x2004;" horiz-adv-x="676" />
<glyph unicode="&#x2005;" horiz-adv-x="507" />
<glyph unicode="&#x2006;" horiz-adv-x="338" />
<glyph unicode="&#x2007;" horiz-adv-x="338" />
<glyph unicode="&#x2008;" horiz-adv-x="253" />
<glyph unicode="&#x2009;" horiz-adv-x="405" />
<glyph unicode="&#x200a;" horiz-adv-x="112" />
<glyph unicode="&#x2010;" d="M0 664v122h532v-122h-532z" />
<glyph unicode="&#x2011;" d="M0 664v122h532v-122h-532z" />
<glyph unicode="&#x2012;" d="M0 664v122h532v-122h-532z" />
<glyph unicode="&#x2013;" horiz-adv-x="1054" d="M76 635v123h915v-123h-915z" />
<glyph unicode="&#x2014;" horiz-adv-x="1054" d="M0 635v123h1055v-123h-1055z" />
<glyph unicode="&#x2018;" horiz-adv-x="260" d="M29 1167q0 -35 5 -67.5t17 -57.5q23 -41 66 -41q16 0 31.5 6.5t25.5 16.5q12 18 19.5 40.5t7.5 55.5v13q0 8 -4 12q-10 43 -33 63q-10 6 -19.5 9.5t-19.5 7.5q-18 12 -19 47q0 82 117 176l-6 37q-92 -31 -149 -148q-39 -84 -39 -170z" />
<glyph unicode="&#x2019;" horiz-adv-x="260" d="M31 1012l6 -37q92 31 149 147q39 84 39 170q0 35 -5 68t-17 57q-23 41 -66 41q-16 0 -31.5 -6t-25.5 -16q-12 -18 -19.5 -41t-7.5 -56v-14q0 -6 4 -10q10 -43 33 -64q10 -6 19.5 -9t19.5 -7q18 -12 18 -47q0 -82 -116 -176z" />
<glyph unicode="&#x201a;" horiz-adv-x="3670" d="M39 268q0 -72 7 -108.5t17 -46.5q43 35 72 56t51.5 34.5t44 21.5t50.5 17l34 8q41 10 74 10q80 0 141 -49l101 -94q6 4 17 14t28 27q14 14 36.5 29.5t53.5 35.5q72 45 147.5 64.5t145.5 19.5q137 0 219 -65q55 -45 103.5 -97.5t95.5 -105.5l34 -39l60 92q29 53 123 98 q12 6 30.5 11.5t39 8.5t38 5t29.5 2q25 0 70 -6t69 -21q45 -23 76 -47t47 -51l57 -92l37 39q47 53 95.5 105.5t103.5 97.5q82 66 219 65q70 0 145.5 -19.5t147.5 -64.5q31 -20 53.5 -35.5t36.5 -29.5q16 -16 27.5 -26.5t17.5 -14.5l100 94q61 49 142 49q33 0 73 -10l35 -8 q29 -8 50.5 -16.5t44 -22t51 -35t71.5 -55.5q10 10 17.5 47t7.5 108q0 53 -3 99.5t-12.5 93.5t-30 100t-52.5 121q-59 117 -146.5 211t-187.5 178q-84 70 -175 126t-194 93q-23 8 -39 8q-8 0 -12 -2q6 -6 7 -13t1 -15v-13q0 -18 -6 -46.5t-21.5 -57.5t-40 -56.5t-59.5 -45.5 q-66 -35 -135.5 -54.5t-142.5 -19.5q-86 0 -187 43q-139 57 -174 145q-8 18 -8 51l4 56q14 23 21.5 49.5t7.5 48.5q0 29 -15 43q-6 6 -14 6q-14 0 -28.5 -19t-30.5 -44l-41 -27q-8 0 -13 2q-35 18 -65 19h-2q-33 0 -66 -19q-4 -2 -12 -2l-39 27l-2 4q-16 23 -30.5 41 t-28.5 18q-8 0 -15 -6q-14 -14 -14 -43q0 -23 7 -48.5t22 -47.5l4 -58q0 -16 -2 -28t-6 -23q-18 -47 -63.5 -81.5t-110.5 -63.5q-102 -43 -187 -43q-74 0 -143.5 19.5t-134.5 54.5q-35 18 -59.5 45.5t-40 56.5t-21.5 57.5t-6 46.5v13q0 20 8 28q-4 2 -12 2q-16 0 -39 -8 q-102 -37 -193.5 -93t-177.5 -126q-98 -84 -185 -178t-147 -211q-35 -68 -54.5 -121t-28.5 -100t-12 -93t-3 -100zM420 496v22v144l63 -39v-103q0 -12 2 -16v-12q6 -10 17 -11q16 0 18 15q4 8 4 28v54q0 43 -12 65q-6 10 -39 35q-16 8 -24 18q-6 4 -13 11q-10 12 -12 22 q-4 8 -4 29v61v23q2 6 2 14q6 18 20 29q27 20 60 20q41 0 63 -22q20 -14 21 -66v-96l-62 49v39v18q-2 6 -2 13q-6 16 -20 16q-10 0 -17 -10v-12q-2 -4 -2 -17v-47q0 -20 15 -35q6 -6 14 -10q8 -8 12 -10l15 -13q6 -4 18 -16l8 -8l8 -8q4 -6 8.5 -18.5t4.5 -20.5v-31v-80 q0 -49 -21 -67q-20 -20 -61 -21q-39 0 -62 21q-4 2 -12 10l-8 16q0 10 -2 17zM604 436q4 2 5 4t3 4q4 4 4 9q4 12 5 26v293q0 12 -5 25q0 2 -4 6q-2 4 -8 10h156v-70q-8 16 -15 21q-10 8 -26 8h-47v-115h24h15q6 0 8 2q8 4 12 9q2 4 4 6t4 6v-92q-2 6 -8 12q-4 4 -8 6 q-6 4 -21 4h-30v-131h59q12 0 19 6q4 2 5 6.5t5 8.5v-64h-156zM766 436l4 4l6 6q4 4 4 7q2 4 2 12v14v291v14q0 8 -2 13l-14 16h92q16 0 25 -2q14 -4 20 -14q2 -4 4 -8.5t4 -12.5q0 -2 1 -5t1 -7v-16v-54q0 -33 -10 -43q-8 -12 -22 -16q20 -2 30 -17q2 -8 2 -49v-82v-8v-8 v-6q2 -2 2 -6v-6l5 -7l6 -6l4 -4h-78l6 6q2 4 4 7v4v4v137q0 8 -2 10l-8 6h-6h-12v-153v-4q0 -4 2 -4q0 -6 10 -13h-80zM834 659h12q16 0 16 19v80q0 16 -16 16h-12v-115zM938 813h74q-4 -8 -4 -12q-2 -4 -2 -17v-14q0 -12 1 -25.5t3 -30t3 -33.5t3 -38l2 -43q0 -6 2 -8v-10 l12 178l2 12v21q0 2 -1 5t-1 7q-4 4 -6 8q10 4 20.5 8t18.5 13q4 6 8 10l8 8q4 2 5 4t4 4q8 4 14 6t14 4q-4 -6 -7 -12t-7 -10q-4 -8 -8 -21q-2 -6 -6 -22q-2 -8 -3.5 -15.5l-3.5 -17.5l-4 -47l-24 -236v-14v-8q0 -18 12 -31h-94q10 10 10 29v8q0 4 -1 7t-1 7l-25 273 q-2 10 -3 18t-3 15q-6 14 -12 20zM1104 436q8 8 12 17v6q0 4 2 6v4v8v250q0 49 10 66q14 20 58 20h86q-6 -6 -8 -10q0 -2 -1 -3l-1 -1l-5 -11v-6v-6v-299v-8v-6q2 -2 3 -4q0 -4 2 -6q0 -2 4 -7q4 -8 6 -10h-78q0 2 4 6l1 1t1 3q4 4 4 9v6v4v16v64l-33 -13v-51v-26v-2l3 -2 v-2t2 -3q4 -8 6 -10h-78zM1171 575l33 15v184h-20q-12 0 -13 -26v-173zM1274 381q25 31 24 88v295v16q0 4 -4 13q0 2 -4 10l-10 10h66l59 -215v162q0 12 -2 16q0 4 -1 7t-1 5q-4 14 -15 25h80q-4 -8 -4 -10q-4 -4 -4 -8v-2q-4 -4 -4 -9l-2 -14v-287q0 -4 1 -8t1 -8 q0 -6 4 -10q0 -6 2 -11l6 -10h-73l6 8v9q0 10 -6 28l-47 162v-166q0 -4 1 -7t1 -7q0 -6 2 -8l2 -9q0 -2 4 -10q-4 -4 -8 -4l-7 -4q-4 0 -6 -6l-6 -6q-20 -35 -51 -35h-4zM1481 752v61h176v-61q-16 25 -43 24h-19v-293q0 -23 2 -28.5t15 -18.5h-84q8 8 12 17q2 2 2 12v14v297 h-18q-10 0 -15 -2l-10 -2q-10 -6 -18 -20zM1675 483v19v116l51 -30v-84q0 -10 3 -15v-10q6 -8 14 -8q10 0 14 12q4 8 4 23v45q0 37 -10 51q-6 12 -31 31q-6 4 -11 7t-9 7t-7 6l-3 2q-4 4 -6.5 9.5t-6.5 9.5q-2 8 -2 24v52v16q0 10 2 12q6 18 17 25q20 16 49 16q33 0 51 -18 q18 -12 18 -56v-77l-51 41v30q0 12 -2 17v10q-6 12 -16 12q-8 0 -14 -8v-10q-2 -4 -3 -12v-39q0 -18 13 -31l12 -6q2 -4 4 -5t6 -5q2 -2 4 -3.5t7 -5.5q6 -4 16 -14l7 -7t5 -7q4 -6 8 -15q0 -4 1 -7t1 -9q2 -6 2 -25v-65q0 -43 -18 -58q-16 -16 -49 -16q-31 0 -51 16 q-4 4 -6 5.5t-5 5.5l-6 12q-2 4 -2 14zM1739 1221q0 8 4 12t10 4q11 0 21 -10t10 -23q0 -6 -4 -10t-11 -4q-10 0 -20 10q-10 8 -10 21zM1880 1204q0 15 10 23q10 10 21 10q6 0 10 -4t4 -10q0 -12 -10 -22.5t-21 -10.5q-6 0 -10 4q-4 2 -4 10zM1923 526v25v303q0 20 4 37 q6 14 19 27q25 18 59 18q43 0 63 -21q20 -16 21 -65v-303l-2 -29q0 -12 -6 -18q-2 -6 -10 -15q-5 -6 -17 -14q2 -4 6 -8t8.5 -8t10.5 -7.5t12 -5.5q-12 -4 -16 -6q-8 -4 -13 -8q-4 -2 -7 -4t-7 -4t-7 -4t-7 -4q-8 -4 -14.5 -8.5t-14.5 -4.5q-12 0 -20 9q8 4 12 4l8 6 q8 8 10 12q4 4 4 6t2 6q0 2 1 3t1 6v6q0 4 -1 5t-1 3h-16q-35 0 -59 18q-6 2 -13 13q-6 4 -8 14q0 4 -1 8t-1 8zM1987 532q0 -4 1 -6t1 -4q6 -12 16 -12q12 0 20 14v31v289v30q-6 14 -20 15q-10 0 -16 -10l-2 -13v-16v-299v-19zM2111 813h78q-10 -10 -10 -18q0 -6 -2 -11 v-16v-266q0 -14 4 -23q2 -8 12 -8q12 0 15 8q4 12 4 27v266q0 10 -2 14q0 8 -2 11q0 10 -10 16h79q-14 -10 -14 -18q-2 -2 -2 -11v-16v-268q0 -37 -16 -54q-20 -16 -50 -16q-33 0 -49 16q-6 4 -10 11l-6 12q0 4 -1 7t-1 7v17v272q0 20 -4 25q0 6 -13 16zM2286 436q4 4 6 8.5 t4 8.5v6q0 4 2 6v4v8v250q0 45 10 66q14 20 55 20h86q-6 -6 -8 -10q0 -2 -1 -3l-1 -1l-4 -11v-6v-6v-299v-8v-6q2 -2 2 -4q0 -4 2 -6l2 -7q2 -4 8 -10h-77q4 4 4 6q4 0 4 4l2 9q2 2 2 6v4v16v64l-33 -13v-51v-26v-4l4 -5q4 -8 6 -10h-75zM2351 575l33 15v184h-21 q-12 0 -12 -26v-173zM2451 436q4 4 7 4l4 6q4 4 4 7l2 12v14v291v14q0 4 -1 6.5t-1 6.5l-15 16h91q16 0 24 -2q12 -2 21 -14q4 -6 6 -21q0 -2 1 -5t1 -7q2 -6 2 -16v-54q0 -29 -10 -43q-8 -12 -23 -16q23 -4 29 -17q4 -16 4 -49v-82v-8v-8v-6v-6q0 -4 2 -6q0 -2 4 -7l4 -6 q2 0 6 -4h-78l7 6q2 4 4 7q0 2 2 4v4v137q0 6 -4 10q-6 6 -9 6h-6h-12v-153q0 -2 2 -4v-4q4 -8 10 -13h-78zM2517 659h12q18 0 19 19v80q0 16 -19 16h-12v-115zM2619 752v61h174v-61q-12 25 -43 24h-18v-293q0 -23 2 -28q8 -12 14 -19h-82q12 12 13 17q2 2 2 12v14v297h-19 q-8 0 -14 -2l-8 -2q-12 -6 -21 -20zM2808 436q4 2 5 4t3 4q4 4 4 9q4 12 4 26v293q0 12 -4 25q0 2 -4 6q-2 4 -8 10h151v-70q-4 12 -14 21q-8 8 -25 8h-45v-115h23h14q6 0 8 2q6 2 13 9q2 4 4 6t4 6v-92q-2 4 -4 6t-4 6q-4 4 -8 6q-6 4 -21 4h-29v-131h58q10 0 16 6 q6 4 10 15v-64h-151zM2966 436q4 4 6 4l4 6q4 2 4 3q0 2 2 4l2 12v14v291v14q0 4 -4 13q-2 4 -14 16h90q18 0 24 -2q14 -4 23 -14q4 -6 6 -21q0 -2 1 -5t1 -7v-16v-54q0 -33 -8 -43q-10 -12 -25 -16q25 -2 31 -17q2 -8 2 -49v-82v-8v-8q0 -4 2 -6v-6v-6q0 -2 4 -7l6 -6l4 -4 h-78l7 6q4 8 4 7q2 2 2 4v4v137q0 6 -4 10q-6 6 -9 6h-4h-12v-153v-4q0 -4 2 -4q0 -6 10 -13h-79zM3033 659h12q16 0 17 19v80q0 16 -17 16h-12v-115zM3140 483v19v116l51 -30v-84q0 -10 2 -15v-10q2 -8 14 -8q10 0 15 12q2 4 2 23v45q0 41 -11 51q-2 12 -28 31 q-6 4 -11.5 7t-9.5 7q-12 8 -10 8q-8 12 -10 19q-4 8 -4 24v52v16q2 6 2 12q6 14 16 25q23 16 49 16q33 0 51 -18q16 -12 17 -53v-80l-51 41v30v17q0 4 -1 6t-1 4q-4 12 -15 12q-8 0 -14 -8v-10q-2 -4 -2 -12v-39q0 -18 12 -31q8 -4 10 -6q4 -4 6.5 -5t4.5 -5q4 -2 6 -3.5 t6 -5.5l14 -14q10 -6 12 -14q4 -6 9 -15q0 -4 1 -7l3 -9v-25v-65q0 -41 -17 -58q-20 -16 -49 -16q-31 0 -51 16q-6 6 -8 11q-4 4 -8 12q0 8 -2 14z" />
<glyph unicode="&#x201c;" horiz-adv-x="425" d="M29 1167q0 -35 5 -67.5t17 -57.5q23 -41 66 -41q16 0 31.5 6.5t25.5 16.5q12 18 19.5 40.5t7.5 55.5v13q0 8 -4 12q-10 43 -33 63q-10 6 -19.5 9.5t-19.5 7.5q-18 12 -19 47q0 82 117 176l-6 37q-92 -31 -149 -148q-39 -84 -39 -170zM229 1161q0 -35 5.5 -67.5 t17.5 -57.5q23 -41 65 -41q16 0 32 6.5t26 16.5q12 18 19 40.5t7 55.5v12q0 8 -4 13q-10 43 -32 63q-10 6 -19.5 9t-19.5 8q-18 12 -19 47q0 82 117 176l-6 37q-92 -31 -150 -148q-39 -84 -39 -170z" />
<glyph unicode="&#x201d;" horiz-adv-x="425" d="M27 1036l6 -37q92 31 149 148q39 84 39 170q0 35 -5 67.5t-17 57.5q-23 41 -66 41q-16 0 -31.5 -6.5t-25.5 -16.5q-12 -18 -19.5 -40.5t-7.5 -55.5v-14q0 -6 4 -11q10 -43 33 -63q10 -6 19.5 -9t19.5 -7q18 -12 18 -48q0 -82 -116 -176zM227 1030l6 -37q92 31 150 148 q39 84 39 170q0 35 -5 67.5t-18 57.5q-23 41 -65 41q-16 0 -31.5 -6.5t-26.5 -16.5q-12 -18 -19 -40.5t-7 -55.5v-15q0 -6 4 -10q10 -43 33 -63q10 -6 19 -9.5t20 -7.5q18 -12 18 -47q0 -82 -117 -176z" />
<glyph unicode="&#x201e;" horiz-adv-x="1603" d="M63 715q0 -152 58.5 -286t158 -234.5t233.5 -159t288 -58.5t288 58.5t233 159t157.5 234.5t58.5 286q0 154 -58.5 288t-157.5 233t-233 157.5t-288 58.5t-288 -58.5t-233.5 -157.5t-158 -233.5t-58.5 -287.5zM211 1034v2l68 131h8q6 0 23.5 -1t43.5 -3q6 -6 15.5 -18 t18.5 -25.5t16.5 -25t7.5 -17.5v-2l-52 19l-55 2l-29 -52l-7 -14t-5 -18v-4l6 -27q2 -4 5.5 -16.5t9.5 -25.5t13 -25.5t17 -14.5l35 -29q-8 0 -42 9.5t-48 19.5q-6 4 -14 23.5t-15.5 42t-13.5 43t-6 26.5zM217 705v6q0 10 1 26.5t1 18.5q0 31 9.5 46t33.5 15h6q14 0 19 -8 l14 -43q-2 2 -8 2t-13.5 -9t-7.5 -20v-2q4 -6 17 -18l10 -6l10 -11q6 -4 11.5 -6t13.5 -2h14l10 -2l25 -2q23 0 29 6l6 11l12 6q18 14 21 24q-33 -29 -56 -28q-35 0 -39 4q-2 2 -6 9t-6 11t-2 17q0 12 5 26.5t15 26.5q10 10 22 13l11 3q-4 -6 -9 -20.5t-5 -22.5v-4 q2 -12 31 -16q25 0 34 12q6 4 48 47q20 20 43 84q4 14 5 22.5t3 12.5l14 8l6 12q4 10 10.5 17.5t12.5 13.5l8 6l6 10l3 1q3 2 7 6q37 27 58 26h14l12 2l13 2l12 -2h14q14 0 35 -10t27 -25q-2 -2 -6 -2h-3q-20 10 -45 17h-14h-2v-2q29 -10 41 -25q-2 -2 -8 -2h-2h-13 q-6 0 -12 -2q12 -2 33 -16q-4 -4 -9 -6t-9 -5l-13 -4q-2 0 -6 -8h14q18 0 23 -4l6 -8q2 -2 3 -4t5 -6l-14 -21q-8 -12 -11 -20.5t-5 -12.5q4 -6 8 -10l8 -12l12 -6q12 -10 17 -17q-2 -6 -2 -16q0 -14 2 -23l-74 93v-13l59 -94q6 -6 6 -16v-4q-2 -4 -6 -4l-47 43l-57 110v-4 q0 -14 16.5 -43t28.5 -57q2 -4 10 -12.5t16.5 -16.5t14.5 -16l6 -7q8 -8 8 -22q0 -12 -2 -21q-2 -12 -13 -21t-22 -17q4 -27 8.5 -49.5t12.5 -39.5q4 -8 6 -16l4 -16l-2 -37q-2 -8 -2 -17v-12v-18t2 -17v-24q0 -29 -4 -37l-8 149l-109 201v14l2 23q0 8 -1 16.5t-1 22.5 q0 16 1 39.5t5 62.5l2 19q0 10 -4 14q-23 -41 -22 -86v-10v-53q0 -29 1 -57.5t5 -43.5l115 -160l6 -333v-60l4 -2v4v33l8 6l6 66l14 -66l11 82l14 -82l12 66l9 -66l6 -6v-33l4 -6v4v60l6 333l115 160q4 14 5 45t1 64v45q0 57 -23 96q-4 -4 -4 -14l2 -19q4 -39 5 -62.5 t1 -39.5q0 -14 -1 -22.5t-1 -16.5l2 -23q2 -6 2 -10v-4l-110 -201l-8 -149q-4 8 -5 27l3 34v64q-2 10 -3 18v17q0 18 11 34q14 35 20 89q-14 6 -24.5 16t-12.5 22l-2 21q0 14 8 22l22.5 22.5t25.5 29.5q12 29 28.5 56.5t16.5 43.5v4l-56 -110l-47 -46q-6 4 -8 7v4q0 10 6 16 l62 94l-4 13l-72 -93l2 23l-2 16q4 4 7 8.5t11 8.5l11 6l8 12q2 2 2 4t4 6q0 10 -14 33q-4 6 -7.5 11.5t-5.5 9.5q2 4 4 5t2 3l9 10q4 4 20 4h18l-8 8l-12 4q-10 2 -20 11q20 14 34 16q-6 2 -12 2l-12 -2l-13 4q16 16 43 25v2h-14q-33 -8 -49 -19q-2 0 -6 4q2 14 24 25 q20 10 39 10h13l12 2l12 -2q2 0 5 -1t8 -1h12q18 0 59 -26l6 -6l2 -1l9 -10l10 -6q12 -12 20 -31l6 -12l7 -8q4 -4 14 -35q25 -66 45 -84q20 -23 31.5 -34t13.5 -13q12 -12 35 -12q29 4 31 14q2 2 2 8q0 10 -5.5 23.5t-9.5 17.5q-2 0 10.5 -3t22.5 -13q20 -27 21 -51 q0 -6 -5 -19l-10 -20q-6 -4 -41 -4q-20 0 -53 28q2 -10 23 -24l10 -6l8 -11q6 -6 22 -6l27 2l12 2h15q10 0 22 8l10 11l11 6q14 8 20 18q0 12 -7 21.5t-17 9.5h-2t-5 -2l15 43q4 8 18 8h6q43 0 43 -61l2 -51l-65 -58l-141 -6l-129 248l-17 47q-4 12 -19.5 28.5t-19.5 18.5 q-8 -2 -8 -10q0 -6 8 -17q41 -70 47 -100q6 -29 10.5 -47t4.5 -23l4 -77q2 -37 24 -37q4 8 4 12q0 8 -3 15.5t-7 19.5l-4 10v2v8q18 -12 45 -59q0 -4 4 -12q-12 -12 -20 -21.5t-10 -13.5l-5 -12q0 -4 -6 -7q-8 4 -14 11.5t-12 15.5q-10 16 -15 23l-6 6l2 14v10l2 13v14v10 v14q0 55 -8 96.5t-12 51.5q-16 35 -29.5 50t-21.5 20v-5q0 -12 4 -18q4 -10 8 -18.5t6 -14.5l-14 -358q0 -2 -4 -10l-6 36q-4 27 -23 27q-20 -18 -27 -55q-4 -18 -5 -33.5t-1 -26.5q0 -6 -1 -8l-1 -2q-4 -45 -6 -77.5t-2 -55.5q0 -20 2 -29v-28q0 -27 -1 -44.5t-1 -27.5 q0 -74 18 -84q6 6 7.5 25.5t1.5 48.5l-13 -4l27 98v-174q-2 -16 -8 -23q-4 -4 -13 -4q-8 0 -10 2q-10 4 -16 29v305h-19l2 -364l-71 -70l-72 70l2 364h-16v-305q-6 -20 -19 -29q-6 -2 -12 -2q-8 0 -12 4q-2 0 -8 23v174l26 -98l-10 4q0 -29 1 -49.5t7 -26.5q16 8 17 72v14 q0 8 -1.5 20.5t-1.5 32.5v21q0 12 3 26v23q0 23 -2.5 57.5t-6.5 81.5v10q0 10 -2 25.5t-4 34.5q-6 35 -28 55q-20 0 -23 -27q-4 -29 -6 -36q-4 4 -4 8v2l-15 358q4 8 6.5 15.5t6.5 17.5q8 10 8 23q-10 -4 -22.5 -19.5t-26.5 -50.5q-6 -10 -13.5 -51t-9.5 -97v-14l2 -10v-14 l2 -13v-10v-14l-22 -29q-6 -8 -12.5 -15.5t-12.5 -11.5q-4 2 -8 7l-4 12q-4 4 -10 13t-21 22l6 12q27 49 43 59q2 -4 2 -10l-6 -10q-8 -23 -8 -35q0 -8 2 -12q18 0 25 37q2 4 2 22q0 20 4 55q0 4 4 22.5t10 47.5q8 29 47 100q8 16 8 17q0 6 -8 10q-4 -2 -19.5 -18.5 t-21.5 -28.5l-3 -12q-3 -13 -11 -35l-129 -248l-139 6zM229 1030l13 6l57 94l-6 5v-5zM299 956q0 14 5 41t11 37h23l61 -63q-2 0 -3 1l-1 1q-2 0 -1 -2t-9 -2q-4 0 -8 1t-10 1h-11q-6 0 -6 -4t6 -17q16 -35 43 -37l27 -2h12q37 0 74 31l14 8q-4 -12 -19 -23.5t-30 -21.5 q-25 -27 -67 -26h-19q-8 0 -16 2l-17 4l-57 63l-1 2q-1 2 -1 6zM350 578q0 18 10 24q4 4 19.5 7t34.5 3h18t17 -2q6 -6 12 -14t4 -8l-4 2q-2 0 -4 -1t-6 -1q-10 -2 -19 -15v-2q4 -4 9 -7t16 -7q6 -4 10 -4h4l37 4l20 18q27 23 39.5 39.5t16.5 22.5l8 178l4 -6v-166l-6 -25 q0 -27 -43 -79q-20 -27 -27 -29l-26 -6q-10 -2 -18.5 -3t-16.5 -3q-43 0 -62 12q-27 20 -37 37.5t-10 30.5zM406 793v8l10 28q2 6 16 19.5t27 15.5l-33 -45l-2 -28l43 26l57 80l-4 -27l-59 -75q0 -4 -15.5 -14.5t-31.5 -10.5h-2q-4 0 -5 8t-1 15zM410 993q2 8 2 15l10 10 l8 12q4 4 20.5 9t32.5 5q27 0 39 -12l2 -2q0 -4 -12 -4h-8q-14 0 -33 -6l-14 -4q-6 -6 -6 -17q0 -14 16 -22q4 -2 8 -2q8 0 25 4q6 2 18 9t26.5 15.5t28 15.5t17.5 11l-2 12q0 16 -22.5 30.5t-24.5 14.5l20 -2l10 -4q14 -10 109 -10q61 0 68 -4q14 -4 30.5 -17.5t18.5 -25.5 h-4v-2l-2 2l-11 8q-8 4 -26.5 10.5t-26.5 6.5h-12t-23 -2l-33 -7q-4 0 -18 -2t-33 -6q-10 -2 -10 -4t-2 -6t-8 -13.5t-21 -15.5l-10 -6l-12 -8l-10 -6l-13 -6q-4 -4 -9 -7.5t-13 -7.5q-20 -12 -37 -16h-4q-27 0 -45 33q-4 16 -4 24zM465 1202q0 20 14.5 56t30.5 47 q6 4 20.5 9t32.5 5q12 0 29 -6q18 -6 33 -21l10 -10l10 -6q12 -6 12 -25l-14 9q-6 6 -27.5 16t-42.5 10q-10 0 -14 -2q-39 -10 -45 -78v-12q0 -23 8 -40t15 -24q6 -4 16 -9t20 -9l-4 14q-18 43 -18 62q4 49 31 57h4q12 0 51 -35q18 -14 10 -14q-16 6 -26 6q-18 0 -25 -14v-8 t2 -23v-12q8 -14 31 -27q16 -10 41 -14q-10 10 -16.5 26.5t-6.5 32.5q0 31 23 31h6q16 -4 26.5 -17.5t10.5 -19.5h-2h-2q-10 10 -21 10q-16 0 -16 -14q0 -16 18 -41q6 -12 16.5 -15t30.5 -7l23 -13l-29 4h-24q-63 0 -138 13q-47 6 -74.5 41.5t-29.5 66.5zM475 1233l10 4 l50 57l-5 4v-2zM532 266v94l17 -73q4 -10 12 -14.5t14 -4.5q14 0 19 8l29 60l4 113q2 16 10 16l12 -4q4 -2 11.5 -12.5t7.5 -20.5q0 -6 -4 -10l-17 18l-14 -108l-29 -74l-39 -18h-2q-6 0 -17 9t-14 21zM668 735q0 -16 24.5 -34.5t42.5 -18.5l8 2q6 2 11.5 13.5t5.5 25.5 q0 10 -4.5 19.5t-12.5 9.5q0 2 -1 1l-1 -1q-6 -6 -6 -25v-14q-8 2 -15 11t-13.5 20.5t-9.5 21.5t-3 14t1 8.5t3 12.5l2 10l-3 7t-7 22q-10 18 -14 28l-4 11v4h-2zM739 1126v7v4q0 10 8.5 25.5t18.5 28.5t20.5 21.5t14.5 8.5t14 -9.5t21.5 -22.5t19.5 -27.5t8 -24.5v-4l-2 -9 l-31 -28h-16l2 32q12 4 12 13v4q-2 10 -10 14t-16 4h-4h-4q-23 0 -25 -18v-4q0 -8 12 -13v-32h-14zM748 68l47 -31l-39 37v43h-8v-49zM750 1210l49 99l49 -99l-49 41zM768 641q0 23 4 42t10 24q2 0 3 -6.5t2 -14.5t1 -16v-8q-4 -12 -4 -21q0 -10 5.5 -19.5t11.5 -19.5 q14 20 14 43q0 10 -2 17v16v20t4 9q6 -4 10 -24.5t4 -43.5q0 -35 -8 -51q-4 -8 -7 -11.5t-5 -11.5l-2 -114l-8 -35v2l-8 33l-2 114q-2 8 -6.5 11.5t-8.5 11.5q-4 10 -6 23.5t-2 29.5zM768 877l31 41l32 -41l-32 -39zM776 981v4h23h22q2 0 2 -4q-2 -4 -11 -17.5t-13 -15.5v-2 v2q-2 2 -12.5 15.5t-10.5 17.5zM782 88l19 -12l16 12l-16 31zM803 1024q4 10 19.5 24.5t29.5 18.5q6 2 39 2h29q94 0 110 10l10 6h19q-2 0 -12.5 -6t-21.5 -17t-11 -22l-2 -12q4 -2 16 -9t26.5 -16.5t27 -16.5t18.5 -9q16 -4 20 -4t13 4q16 8 16 22t-6 15l-15 6q-18 6 -32 6 h-9h-6q-4 0 -4 2v2q12 12 39 12q18 0 34.5 -5t20.5 -9l9 -12l8 -10q2 -2 2 -13v-6q0 -6 -4 -18q-12 -33 -41 -33h-8q-8 0 -37 14q-8 4 -13.5 8.5t-9.5 6.5l-12 6l-10 8l-11 6l-12 6q-10 8 -18.5 17.5t-12.5 13.5q-2 2 -2 4t-6 4q-45 10 -55 10l-31 4q-12 2 -20 3.5t-13 1.5 q-8 -2 -27.5 -7.5t-27.5 -9.5l-8 -10h-4v2h-4zM807 37l45 31v49h-8v-43zM840 723q0 -14 4 -25.5t14 -13.5l8 -2q18 0 42 18.5t24 34.5l-2 148h-2v-4l-4 -11q-4 -10 -15 -28l-10 -29l2 -10q2 -8 3 -12.5t1 -8.5t-4 -14t-9 -21.5t-11.5 -20.5t-14.5 -11v14q0 18 -6 25l-1 1 t-1 -1q-10 0 -14 -9.5t-4 -19.5zM840 1077l26 10q18 4 27.5 8.5t15.5 16.5q18 25 19 41q0 14 -17 14q-10 0 -18 -10h-4q0 6 9 19.5t26 17.5h6q23 0 22 -31q0 -16 -6 -32.5t-16 -26.5q25 4 39 14q27 12 30 27v12q2 16 2 23v8q-4 6 -7 10t-13 4t-29 -6q-4 0 11 14 q18 16 30.5 25.5t22.5 9.5h4q25 -8 29 -57q0 -23 -17 -62l-4 -14q23 8 33 18q8 6 16 23.5t8 40.5v12q-6 68 -43 78q-4 2 -14 2q-23 0 -44 -10t-28 -16l-14 -9q0 18 12 25l11 6l10 10q12 12 35 21q14 6 28 6q16 0 30.5 -5t21.5 -9q16 -10 30.5 -44t14.5 -57v-2 q-2 -31 -30 -66.5t-75 -41.5q-74 -12 -135 -13h-25zM932 426q0 10 7 20.5t11 12.5q8 4 13 4q6 0 8 -14l6 -115l29 -58q4 -8 20 -8q6 0 13.5 3t11.5 14l14 73l2 -92q-2 -14 -12.5 -22t-16.5 -8h-2l-43 16l-28 76l-13 108l-16 -20q-4 4 -4 10zM1006 643v166l4 6l8 -178 q8 -16 53 -62l19 -18l38 -4q6 0 17 4q16 6 24 14v2q-8 10 -20 15q-4 0 -5 1t-3 1t-4 -1l-2 -1l16 22q8 2 16 2h19q18 0 33.5 -3t19.5 -7q8 -6 8 -24q0 -14 -9 -31t-36 -37q-16 -12 -61 -12q-14 4 -33 6l-29 6q-8 4 -26 29q-37 51 -41 79zM1063 1294l49 -57l10 -4l-55 63v2z M1073 950l14 -8q37 -31 74 -31h13l26 2q27 4 43 37q2 6 3 9.5t1 7.5t-4 4h-10q-6 0 -11 -1t-10 -1q-8 0 -7 2t-1 2l-1 -1q-1 -1 -3 -1l62 63h22q4 -12 9 -38.5t5 -41.5v-6l-57 -63l-16 -4q-10 -2 -19 -2h-14q-43 0 -72 26q-12 10 -27.5 21.5t-19.5 23.5zM1075 897l58 -80 l45 -26l-2 28l-33 45q10 -2 25.5 -15t15.5 -20l14 -28q0 -2 -1 -16.5t-9 -14.5h-2q-14 0 -29.5 10.5t-17.5 14.5l-58 75zM1188 1075v2q0 4 6 16.5t15.5 26t19.5 25.5t16 18q25 2 42.5 3t25.5 1h8l65 -131l3 -2q0 -8 -6.5 -28.5t-13.5 -42t-15 -41t-15 -23.5 q-14 -10 -48 -19.5t-42 -9.5l33 29q8 2 17.5 13.5t15.5 24.5t10 25.5t4 18.5l6 27v4q0 10 -4 19t-8 13l-31 52l-53 -2zM1300 1130l58 -94l10 -6l-61 100l-2 5z" />
<glyph unicode="&#x2022;" horiz-adv-x="1024" d="M281 770q0 -92 62.5 -154.5t154.5 -62.5q45 0 85 17.5t69.5 46t47 68.5t17.5 85t-17.5 85t-47 69.5t-69.5 47t-85 17.5t-85 -17.5t-69 -47t-46 -69.5t-17 -85z" />
<glyph unicode="&#x2026;" horiz-adv-x="839" d="M29 102q0 -29 7 -50t17 -40q20 -37 47 -37q29 0 49.5 37t20.5 90q0 47 -20 86q-23 37 -50 37t-47 -37q-12 -23 -18 -42t-6 -44zM352 102q0 -29 7.5 -50t17.5 -40q20 -37 47 -37q29 0 49.5 37t20.5 90q0 47 -21 86q-23 37 -49 37q-27 0 -47 -37q-12 -23 -18.5 -42 t-6.5 -44zM670 102q0 -29 7 -50t17 -40q20 -37 47 -37q29 0 49.5 37t20.5 90q0 47 -20 86q-23 37 -50 37t-47 -37q-12 -23 -18 -42t-6 -44z" />
<glyph unicode="&#x202f;" horiz-adv-x="405" />
<glyph unicode="&#x2039;" horiz-adv-x="292" d="M10 -238q31 4 57.5 12.5t43 25t36 45t48.5 69.5q23 33 41 54.5t38 31.5q-23 37 -34 80q-2 6 -2 33v63v989h-213q23 -29 37 -51t18 -45q2 -16 5 -48t3 -83v-807q0 -74 -4 -125t-8 -80q-12 -84 -66 -164zM20 1331l76 -37l41 -69l41 69l78 37q-29 0 -50.5 25.5t-35.5 60.5 t-20.5 72t-6.5 61q0 -25 -7 -62.5t-21.5 -72.5t-38 -59.5t-56.5 -24.5z" />
<glyph unicode="&#x203a;" horiz-adv-x="3168" d="M49 713l96 -33l9 8l8 8l16 9l-18 10l18 6l-16 6q-4 0 -8 12l-9 9zM170 641q0 -12 23 -18h8q18 0 30 6v10q-8 4 -22 6h-16q25 12 57 19q10 2 18 3t17 1q45 0 61 -35q-43 -14 -66.5 -25.5t-23.5 -13.5q-4 -8 -4 -14l2 -15q47 -27 61 -26q6 0 11 4q8 8 8 14q-25 0 -40 10.5 t-15 20.5t14 17t45 9q6 0 19.5 -5t31.5 -21q10 -4 24.5 -13.5t22.5 -9.5h2q0 -6 6 -6h5v-8q-45 -6 -72 -14.5t-41 -16.5v-20q2 -2 10 -7.5t17.5 -11.5t18.5 -10t13 -4t4 2v14q-8 0 -16 4q-25 8 -25 21v6l123 12h11q6 0 6 -4q-53 -33 -54 -73q0 -10 2 -17q25 -27 50 -26 q16 0 34 12v10q-6 6 -24 14l-17 11v8q4 4 13.5 15t21.5 24q4 6 9.5 13t11.5 11q0 -8 -1 -13t-1 -9q0 -8 4 -17q6 -12 41 -12q31 0 76 13.5t92 45.5v11q-4 0 -10.5 3t-16.5 7v6q18 8 25 8h20v15q0 4 -4 4q-2 0 -4 -1t-6 -1l-10 -4h-15q-8 -2 -14 -2v8l84 22q0 4 -12 4 q-20 0 -56.5 -11t-46.5 -23l-33 -52q-10 -16 -34 -16q-10 0 -23 4q-2 2 -2 10q0 12 6 41q8 20 16.5 42t22.5 44q0 2 -6 2q-10 0 -14 -4q-2 -2 -5 -3l-2 -1q-16 16 -29.5 27.5t-25.5 13.5l-16 2q2 4 14 8l2 11q0 2 -2 2q0 2 -2 2l-2 2l2 2l2 2v2h2l-2 6l-8 4t-6 12l16 2 q25 0 55 39l2 -1q3 -1 5 -3q6 -6 14 -6q6 0 6 4q-14 23 -22.5 43.5t-16.5 42.5q-6 27 -6 39q0 10 2 10q6 2 21 2q27 0 36 -12l33 -49q10 -16 43 -26.5t55 -10.5q16 0 17 6l-84 21v8h14l15 -2l10 -4q4 0 6 -1t4 -1q4 0 4 6v8h-20q-4 0 -9.5 4t-15.5 10v7q10 4 16.5 6t10.5 2 v4q-49 35 -95.5 49t-76.5 14q-31 0 -37 -10q-4 -8 -4 -18l2 -21q-12 8 -21 21q-23 31 -35 39v12l17 6q20 6 24 20v9q-16 10 -32 10q-27 0 -52 -25q-2 -6 -2 -18q0 -45 54 -74q0 -6 -6 -6h-11l-123 14v7q0 14 25 24q4 2 16 2v8q0 6 -6 6q-10 0 -31.5 -13t-25.5 -19v-21 q14 -10 40.5 -16t72.5 -10v-9q-2 2 -7 2q-4 0 -4 -10q-6 0 -22.5 -8t-26.5 -16q-37 -25 -51 -25q-59 2 -59 29q0 12 15 22t40 10q0 2 -8 9q-4 4 -11 4q-16 0 -61 -29q0 -2 -1 -4t-1 -6t4 -21l90 -39q-16 -31 -67 -30h-15q-6 0 -14 2q-16 2 -30.5 8t-26.5 12q10 0 16 2 q20 4 22 4v7q-14 14 -30 14q-4 0 -5 -1t-3 -1q-23 -12 -23 -21q0 -6 6 -8q12 -14 23.5 -19t21.5 -7l53 -7l39 -30l-39 -29l-53 -6q-10 -2 -21.5 -9t-23.5 -18q-6 -6 -6 -10zM344 713l18 8l17 -8l-17 -8zM377 659l57 54l-57 51l80 -51zM391 608v10l9 6q8 7 26 19l63 47 q0 10 -6 10q-2 0 -4 -2q0 -4 -6 -6q-8 16 -8 21q0 4 8 18l6 -6q2 -2 4 -2q6 0 6 8t-17 19.5t-46 33.5q-35 20 -35 27v8q0 6 15.5 18.5t31.5 16.5l43 2q4 0 15 -12q-6 -23 -17 -23v-10h10q31 0 31 -27v-41q0 -18 -14 -22v-16q14 -10 14 -19v-45q0 -25 -31 -25h-10v-8 q8 -6 17 -22q-10 -18 -15 -19l-43 6q-16 6 -31.5 15.5t-15.5 19.5zM623 682h2l80 -20v-9l-29 -26q-47 -41 -47 -66q0 -4 1 -6t1 -4l43 37q16 16 38.5 28.5t55.5 28.5v12h-6q-6 0 -6 2v15q0 4 24.5 14t40.5 10h23v9q-2 2 -2 4l-6 2h-7l7 2l6 2q0 2 2 2v6h-23 q-16 0 -40.5 12.5t-24.5 16.5v8q0 8 12 8v12q-61 23 -94 60l-43 37l-2 -11q0 -31 47 -73l29 -23v-12l-80 -15h-2v-6h63l4 -8l4 -2q2 0 4 -2v-8h-12l6 -6l-6 -6h12v-13q-2 -2 -4 -2l-4 -2l-4 -2h-63v-6zM784 381l86 -2q25 0 25 -21v-8l-39 -24h84v10l-31 59q6 14 6 19l64 -17 q0 16 -19.5 35t-25.5 19h-2l-27 -29q-27 -29 -57 -29l-12 2l8 49zM784 1042l60 -61l-8 47q4 2 14 2q27 0 55 -24l27 -29h2q6 0 25.5 17.5t19.5 31.5l-64 -14q0 6 -6 16l31 62v10h-84l39 -25v-6q0 -23 -25 -22zM817 662q4 -4 23 -5q16 0 34.5 2.5t20.5 2.5l18 24l23 19v8v8 l-23 22l-18 17q-2 2 -18.5 4t-32.5 2q-10 0 -17.5 -1t-9.5 -5v-6q66 -6 66 -41q0 -33 -66 -39v-12zM891 461h8q6 0 8 2l8 4l21 2q4 4 9 8t11 6v11q0 4 -15 14t-26 10q-6 0 -6 -4v-27q-18 -2 -18 -18v-8zM891 952q0 -6 18 -12v-29q0 -4 6 -4q10 0 25.5 9.5t15.5 19.5v8 q-8 4 -20 8l-21 4l-8 7q-2 0 -4 1t-6 1t-6 -2v-11zM911 639q0 -14 8.5 -48t18.5 -48q4 -6 16.5 -17.5t25.5 -22.5t28.5 -19.5t25.5 -8.5t15 12q-25 10 -36.5 16.5t-15.5 10.5l-30 45l-17 21q-2 2 -6 25.5t-4 45.5q0 23 4 29l25 33l-25 35q-4 4 -4 26q0 23 4 47.5t6 28.5 l17 20l30 43q4 2 15.5 9.5t36.5 17.5q-4 10 -13 10q-10 0 -24.5 -8t-29.5 -19.5t-27.5 -22.5t-16.5 -15q-10 -16 -18.5 -48t-8.5 -49q4 -23 10.5 -37t34.5 -38q-29 -23 -35 -39.5t-10 -34.5zM971 115q0 -6 4 -6h45v12h-8q-14 0 -21 8v4q0 8 4 22.5t11.5 30t15.5 29.5t16 23 l39 41v14v4l-28 35q-10 14 -19.5 37.5t-17.5 58.5q16 8 16 16v9h-12q-12 0 -27 -21q0 -4 1 -7t11 -7l7 -4l32 -152l-28 -39l-6 -14q-7 -14 -15 -31.5t-14 -36t-6 -26.5zM971 1309q0 -8 6 -25.5t14 -34t14.5 -31t6.5 -16.5l28 -37l-32 -153l-7 -2q-10 -4 -11 -7.5t-1 -11.5 q12 -18 27 -18l12 2v6q0 8 -16 20q8 31 17 54.5t20 38.5l28 39v4v12l-39 37q-16 18 -31.5 54t-15.5 50v4q10 14 25 15h4v6h-45q-4 0 -4 -6zM1001 584q0 -4 11.5 -17.5t27 -29t34 -27.5t34.5 -12t25 16q-29 2 -49.5 14.5t-34 31t-20.5 40t-7 41.5q0 18 6 35q6 8 6 14v2 l-8 -10l-7 -7t-5 -7l-6 -9l-2 -38zM1001 844l5 -37l2 -45l6 -6l12 -8l8 -17v6q0 4 -6 15q-6 14 -6 34t7 42t20.5 40.5t34 30.5t49.5 14q-8 16 -25 17q-16 0 -34.5 -12.5t-34 -28t-27 -29.5t-11.5 -16zM1014 145q0 -20 24 -26l86 -29l-41 57q0 2 -2 3q-4 0 -7 -11.5t-5 -9.5 l-4 4l-4 10v4q0 12 22 13h97q16 0 80 33v18q-27 12 -27 22q0 8 18 19l15 2v12q-23 10 -34 15.5t-15 5.5h-11v8l60 14v8q0 6 -33 15v24q25 6 31 13q-49 45 -140 45h-16v18q33 14 33 29v2q0 4 -8 4q-10 0 -28 -6t-36 -14.5t-32.5 -16.5t-16.5 -10v-2q0 -10 13.5 -30.5 t37.5 -55.5q20 -31 21 -33q2 -2 2 -8q0 -10 -7.5 -24.5t-17.5 -30.5l-35 -43q-20 -29 -20 -48zM1014 1280q0 -20 20 -49l35 -41q25 -31 25 -53q0 -6 -2 -11q0 -4 -21 -34q-51 -70 -51 -80v-2q2 -4 17.5 -13.5t34 -17.5t35.5 -14.5t28 -6.5q6 0 6 3v2q0 14 -33 28v21h16 q92 0 140 43q-8 14 -31 16v21q33 12 33 14v10l-60 19v6h11q4 0 15 5t34 15v8l-15 5q-18 6 -18 16q0 12 27 27v16q-66 35 -80 35h-97q-23 0 -22 10v4l4 8l4 4q2 2 7 -9t7 -7l41 61l-86 -30q-25 -10 -24 -29zM1036 707q0 -10 11 -11q10 0 10 11v6v6q0 6 -10 6t-11 -6v-6v-6z M1077 387v2q0 4 13 4q10 0 25 -3t28.5 -7t25 -7t11.5 -5q25 -16 24 -31q0 -14 -14 -23.5t-31 -9.5q-8 0 -12 2q-16 4 -40 27.5t-26 34.5zM1077 1038v2l4 13q2 14 25.5 36.5t40.5 26.5q4 2 12 2q16 0 30.5 -9t14.5 -24q0 -18 -24 -32l-12 -3q-11 -3 -24.5 -6.5t-28.5 -6.5 t-25 -3q-12 0 -13 4zM1081 186v17q0 6 8.5 18t20.5 24.5t26.5 21.5t26.5 9q6 0 15 -4q20 -12 20 -26q0 -18 -20 -41q-6 -10 -35 -17.5t-47 -7.5q-14 0 -15 6zM1081 643q0 -12 2 -29.5t9 -21.5l34 -19l31 -22q0 -2 6 -2q8 0 13 2q23 0 36 10h-8q-25 0 -42 11.5t-28.5 26.5 t-16.5 31.5t-5 26.5q0 4 1 6.5t1 4.5q2 10 13.5 19.5t27.5 25.5q-16 12 -27.5 25.5t-13.5 17.5q0 2 -1 4t-1 6q0 12 5 28.5t15.5 32t28 26.5t39.5 11h12q-12 14 -36 15h-19l-31 -27l-34 -21q-6 -4 -8.5 -20t-2.5 -29v-10q2 -12 29 -33l23 -18v-8v-8l-23 -17q-25 -18 -29 -35 v-10zM1081 1221v20q0 4 11 4q16 0 47 -9t39 -17q20 -20 20 -39q0 -16 -20 -25q-8 -4 -15 -4q-12 0 -26.5 9t-26.5 20.5t-20.5 22.5t-8.5 18zM1145 229q0 -6 6 -6q4 0 10 3t6 7l4 11q0 2 -4 2h-18q-4 0 -4 -8v-9zM1145 342q0 -2 2 -2h20q4 0 4 2v8q0 6 -12 6q-14 0 -14 -6v-8 zM1145 1075q0 -4 14 -4q12 0 12 4v8l-4 4l-20 -2q-2 0 -2 -2v-8zM1145 1186q0 -6 4 -6h18q4 0 4 4l-4 12q0 2 -6 4t-10 2q-6 0 -6 -4v-12zM1167 662l7 -13l2 -18v-15q18 -4 27 -10t14 -10l16 -10h2q10 0 35 12l12 12v6q-14 0 -18 -4t-15 -4q-16 0 -31.5 13.5t-15.5 35.5 q0 18 10 31l17 25q-4 4 -7 10t-10 16q-10 12 -10 31q0 23 15.5 36t31.5 13q10 0 15 -4q8 -4 18 -4v6l-12 8q-23 16 -35 17h-2l-16 -15q-4 -4 -13.5 -8t-27.5 -8v-18l-2 -15l-7 -18l2 -2v-4l17 -11q20 -16 22 -30q-2 -20 -22 -29l-17 -10v-10zM1212 496q53 23 76 22q4 0 5 -1 t3 -1l23 -22q4 -4 35 -5h39l10 -4l10 -4q6 0 8 -6l-2 -31q0 -12 13 -12h8q0 29 8 37l25 29q2 2 4 17t2 26q0 10 -2 10h-7q-4 -33 -16 -47.5t-22 -14.5q-20 0 -21 29q0 18 14 45q2 4 4.5 8t4.5 11q-51 -20 -52 -31v-51h-4q-27 0 -46 13t-19 36q0 8 2 14q-10 -4 -28.5 -12 t-41.5 -25l-33 -18v-12zM1212 918l33 -21q23 -12 41.5 -19.5t28.5 -13.5q-2 4 -2 15q0 20 19.5 33.5t45.5 13.5h4v-47q0 -4 12.5 -14.5t39.5 -16.5q-2 4 -4.5 7t-4.5 9q-14 27 -14 45q0 29 21 29q10 0 22 -14.5t16 -44.5h7q2 0 2 10t-2 21.5t-4 15.5l-25 30q-8 6 -8 35 q-4 2 -10 2q-10 0 -11 -12l2 -31q-4 -4 -8 -4l-10 -4l-10 -4h-39q-33 0 -35 -2l-23 -25q-2 0 -3 -1t-5 -1q-19 1 -76 19v-10zM1233 655q0 -14 11 -23t22 -9h4l22 6l23 10q25 6 26 6h7v6h-21v-2q0 -4 -24 -4q-25 2 -25 19q0 14 10 18l10 6q2 2 7 10q-4 8 -11 9q-12 0 -26 -13 q-35 -18 -35 -39zM1233 770q0 -27 35 -43q14 -8 24 -8q8 0 13 6q-2 4 -3.5 6t-3.5 8l-10 9q-10 4 -10 16q0 16 25 16h12q12 0 12 -2v-2l21 -2v6h-7q-2 0 -26 6l-23 7l-22 12h-4q-10 0 -21.5 -9.5t-11.5 -25.5zM1260 147q0 -2 4 -2q10 0 47 7q27 6 44 8t34 2v10q-35 0 -41 21 v2q0 18 36 61q35 45 53.5 70.5t22.5 29.5h-12q-10 -29 -36 -42t-42 -13q-4 0 -6 1t-4 1q-14 12 -14 23q0 14 18 32l4 4l2 7q-4 0 -18.5 5t-36.5 13q-12 4 -20.5 6t-12.5 2q-6 0 -6 -4q39 -31 39 -41h-2l-39 -10v-8q0 -4 12 -6l14 -7l13 -6l2 -6q-20 -20 -39 -20h-8v-8 q27 -16 51 -17v-10l-23 -16l-12 -11v-8l19 -12l2 -12q0 -8 -13 -13l-16 -12q-12 -10 -12 -12zM1260 1278l4 -8l12 -13l16 -10q12 -8 13 -14l-2 -14q-10 -4 -15 -7l-4 -2v-8l12 -10q23 -16 23 -21v-6q-12 0 -25.5 -5t-25.5 -11v-8h8q23 0 39 -23l-2 -8l-13 -4l-14 -4 q-12 -4 -12 -10v-7l39 -10h2q0 -14 -39 -41q0 -4 8 -4q12 0 31 8q23 6 37 11.5t18 7.5l-2 10l-4 2q-18 14 -18 29q0 10 14 22q4 4 14 4q16 0 41 -13t33 -40h12q-6 4 -76 96q-37 49 -36 64v2q6 20 41 20v11q-16 0 -34 3t-44 7q-37 6 -47 6q-4 0 -4 -2zM1300 657q0 -2 5 -2 q6 0 14 2l51 21h8l4 -2q6 -6 11 -6q8 0 10 14h8q16 0 51 -10q33 -18 51 -19l13 2q33 10 33 21v12q-8 0 -23 -10h-4q-14 0 -94 12q-14 2 -23.5 3t-17.5 1q-14 0 -15 -4v-12h-16v14h-33q-4 0 -10 -2l-8 -4l-2 -1t-6 -1q2 -2 2 -4q0 2 -6 -4v-4l-3 -15v-2zM1300 762l3 -8v-4 q6 -6 6 -5v-2l-2 -2q8 0 8 -2l8 -10q6 -2 10 -2h33v21h16v-19q0 -4 15 -4h16q10 0 25 4q47 12 71.5 16.5t26.5 4.5q12 -12 16 -13q5 0 7 2v11q0 4 -33 20h-10q-23 0 -54 -16q-35 -10 -51 -11h-8q-4 12 -10 13q-2 0 -11 -4l-4 -2h-8l-51 20q-6 2 -12 2t-7 -6v-4zM1358 80 q0 -6 4 -14l31 -58q2 4 6 8q0 8 -4 11l-2 39h6q76 -127 76 -164q0 -14 -11 -15q-4 0 -12 4q-2 14 -18 15h-23q55 -41 74 -41h2q14 6 14 59h4q2 4 2 8l111 -34q0 4 4 6q-8 20 -31 33v14q10 0 15 4v10q-14 2 -15 17v4q16 4 17 10v6q-18 18 -29 18v9q20 6 20 18v4q-27 8 -30 19 q4 4 5 6l1 2h16v14q-115 59 -114 131v103h-13q-14 -18 -20 -39t-6 -37q0 -12 2 -19l33 -114h-89q-10 0 -18 -12.5t-8 -24.5zM1358 1343q0 -10 8 -22t18 -12h89l-33 -113q-2 -6 -2 -20q0 -31 26 -76h13v102q0 68 114 131v15h-16l-1 2t-5 6q8 14 30 18v4q0 16 -20 19v8 q8 0 29 16v11q0 6 -17 10v4q0 10 15 16v11q-2 2 -15 2v10q10 10 18.5 17t12.5 18q-4 6 -4 12l-111 -41q0 8 -2 10h-4q0 27 -4 40t-10 22q-12 0 -76 -45h23q14 0 18 16q4 2 12 2q10 0 11 -14q0 -39 -76 -166h-6l2 45q4 2 4 8q-2 4 -6 8l-31 -61q-4 -4 -4 -13zM1419 649 q47 -14 63.5 -47t16.5 -57q0 -10 -2 -16.5t-4 -10.5l-2 -8l-4 -129q0 -45 16 -55l45 -33l43 -39h6v8q-10 0 -16 7t-6 18q0 16 16 16h15v8q-10 0 -17.5 8.5t-7.5 16.5t6 12l17 8q8 2 8 11q0 8 -4 8h-41q-18 0 -23 -15l-2 -16q0 -6 -6 -6q-8 0 -17.5 14.5t-9.5 24.5l4 174 q0 39 -36 76q-18 18 -58 22zM1419 778q35 0 58 17q37 39 36 84l-4 168q0 12 9.5 25t17.5 13q6 0 6 -6l2 -10q2 -20 23 -20h41q4 0 4 10t-8 12l-17 8q-6 2 -6 11q0 8 5 15t16 7h4v8h-15q-16 0 -16 19q0 10 5 18t15 8h2v4h-6l-43 -32l-45 -37q-16 -12 -16 -58l4 -127l2 -8 q2 -4 4 -11t2 -17q0 -25 -16.5 -55.5t-63.5 -45.5zM1440 49v8q4 16 19.5 30.5t31.5 14.5h2q18 -2 29.5 -13t17.5 -26.5t8 -32t2 -28.5q0 -10 -1 -14t-1 -6q-6 -12 -20 -13q-12 0 -27.5 7.5t-29 18.5t-22.5 25.5t-9 28.5zM1440 1368v8q0 14 9 28.5t23.5 26t30 18.5t27.5 7 q14 0 18 -10q0 -2 1 -6t1 -15q0 -12 -2 -28.5t-8 -31.5t-17.5 -27.5t-29.5 -14.5h-2q-16 0 -31.5 14.5t-19.5 30.5zM1479 47q0 -10 6 -21.5t20 -17.5q4 -2 11 -2q12 0 12 14v5q-2 29 -31 34q-2 2 -8 2q-10 0 -10 -14zM1479 1378q0 -16 12 -16l6 2q29 12 31 41v4q0 8 -10 8 q-8 0 -13 -2q-14 -4 -20 -15t-6 -22zM1487 629q0 -10 41 -21q4 -2 14 -2q12 0 22.5 7.5t18.5 15.5t9 11l5 11q-4 2 -8 2h-2l-45 -22h-16l-33 10q-2 -2 -6 -2v-10zM1487 786q4 0 6 -2l33 7h16l45 -19h2q4 0 8 2q2 2 -14 24.5t-43 22.5q-8 0 -12 -2q-41 -10 -41 -26v-7z M1530 170l35 -27q57 -55 59 -59v-10l-2 -1l-6 -3l-4 -4v-7q12 -8 28 -8v-16q0 -6 -24 -8l-2 -11l35 -12v-10q-18 0 -19 -8v-9q0 -6 21 -12l4 -20q-20 0 -31 -17q4 -2 5 -3l1 -1l2 -2h103q2 0 2 2v8l-39 39l-6 56l-11 57q-2 14 -22.5 30.5t-46 30t-49 21.5t-31.5 8h-2v-4z M1530 1249q4 0 27.5 8.5t51 21.5t49 30.5t23.5 33.5l11 58l6 53l39 37v10q0 2 -2 2h-103h-2q0 -4 -6 -6q8 -16 31 -16l-4 -19q-20 -6 -21 -10v-8q0 -10 19 -10v-15l-35 -8l2 -10q25 -6 24 -12v-15q-20 0 -28 -10v-8l4 -2q8 -2 8 -4v-9q-2 -2 -16.5 -16t-42.5 -41l-35 -29v-6 zM1581 713l2 -2q0 -2 17.5 -18.5t27.5 -24.5q14 -6 35 -6h14q10 0 15.5 1t7.5 1q25 0 24 10q-41 4 -47 16l-12 25l12 24q4 10 47 17q0 4 -24 4h-8q-4 0 -15 2q-31 0 -49 -6q-10 -4 -27.5 -20.5t-17.5 -20.5zM1704 459q0 -18 6 -33.5t10 -22.5q6 -8 19.5 -17t31 -16.5 t34 -11.5t26.5 -4q33 2 72 32t47 81q12 80 12 147v27l4 33l-12 -27q-4 -23 -8 -33t-17 -18q-29 -18 -45 -18t-16 16q0 12 10 22l2 2q0 2 -2 3q-6 0 -20.5 -10.5t-18.5 -28.5v-7q0 -25 33 -24q16 0 35.5 7t29.5 17q-4 -27 -14 -43q-14 -27 -31 -32h-14q-16 -2 -23 -2h-8 q-16 6 -16 24q0 12 6 29q0 8 -14 -10q-37 -41 -37 -58v-4q8 -29 61 -33q20 0 68 21l14 4q-10 -29 -20 -39q-6 -8 -25.5 -16t-44.5 -8h-12q-72 6 -84 47q-2 4 -2 16q0 23 11 46.5t17 29.5l9 14q-18 0 -25 -12l-8 -10l-12 -13q-14 -14 -23 -37q-6 -16 -6 -30zM1704 973 q0 -16 6 -31q10 -25 23 -37l12 -12l8 -10q6 -12 25 -13l-9 15q-6 6 -17 29.5t-11 46.5q0 12 2 16q12 41 84 47h12q25 0 44.5 -8t25.5 -17q10 -11 20 -38l-14 6q-49 18 -68 18q-53 -4 -61 -33v-4q0 -18 37 -57q14 -14 14 -10q-6 18 -6 30q0 16 16 23h8t23 -2h14q16 -6 31 -33 q10 -16 14 -43q-10 10 -29.5 17.5t-35.5 7.5q-33 0 -33 -25v-6q4 -18 18.5 -28.5t20.5 -10.5h2q0 2 -2 4q-10 10 -10 23q0 16 16 16t45 -18q12 -8 17.5 -18.5t9.5 -31.5l10 -28l-4 33v26q0 68 -12 148q-8 51 -47 80.5t-72 31.5h-2q-12 0 -28.5 -4t-32 -11t-29 -16.5 t-19.5 -17.5q-4 -6 -10 -21.5t-6 -33.5zM1716 715l107 -53l-43 53l43 53zM1726 424l5 4l63 -51l4 -10l-69 57h-3zM1726 1006h3l69 57l-4 -10l-63 -52zM1810 717q0 -4 9.5 -15.5t24 -22.5t30.5 -20.5t29 -9.5h4h8l31 33v16l-35 -2q-4 -12 -15 -12h-4q-20 4 -20 27v4v4 q0 10 5 18t15 11h4q10 0 15 -13l35 -2v17l-29 32l-10 2h-4q-12 0 -28.5 -9t-30 -20.5t-24 -22.5t-10.5 -15zM1868 152l141 -72h2q6 0 28.5 6t47 14.5t45 17.5t27 15t11.5 20.5t9 30t7 28.5t3 17l-30 -36q-4 -10 -15.5 -18.5t-26 -14.5t-27.5 -10.5t-19 -6.5l-31 -6h-4 q-8 0 -19.5 5t-15.5 8l-53 32l2 60l18 53h-2q-6 0 -18.5 -7t-26.5 -16.5t-28.5 -19.5t-20.5 -16q-2 -29 -3 -47.5t-1 -28.5v-8zM1868 1270q0 -10 1 -27.5t3 -46.5q6 -6 20.5 -16.5t28.5 -20.5t27.5 -17t17.5 -7h2l-18 55l-2 57l53 33q4 4 14 8t21 4h4l31 -6q6 0 19 -4 t27.5 -11t26 -15.5t15.5 -18.5l30 -35q0 4 -3 16.5t-7 28t-9 29.5t-11 22q-4 6 -24.5 15.5t-45.5 17.5t-46.5 14.5t-29.5 6.5q-2 0 -3 -1l-1 -1l-141 -72v-8zM1905 170l4 6l100 -63l8 -13l-108 70h-4zM1905 1260l4 2l108 69l-8 -12l-100 -64zM1956 436l4 8q4 9 11 18 t15.5 16t16.5 7l14 2q2 -4 11.5 -17t18.5 -28.5t16.5 -30t9.5 -20.5q4 -16 4 -24q0 -6 -2 -11q-8 -16 -25 -16q-12 0 -18 6l-4 14q-6 20 -7 35v11q0 12 -4 12l-2 -2q-14 -12 -14 -41q0 -18 5 -37t11 -23l13 -8l10 -10l16 -4q12 0 29 6q35 18 35 49v4q-2 8 -5.5 17.5 t-13.5 21.5q-10 20 -14 25l-6 14l-8 10q-8 12 -9 13l-8 12q-6 14 -16.5 21.5t-14.5 11.5q-4 2 -6 2t-4 10q-10 45 -10 55l-6 35q-2 14 -2 23v14q0 8 6 28.5t12 28.5l8 13l2 2h-2v4q-14 -2 -28.5 -19.5t-18.5 -34.5q-4 -8 -4 -73q0 -102 -10 -117l-4 -12zM1958 975l6 -12 q10 -16 10 -117v-33q0 -35 2 -41q4 -16 19.5 -32.5t27.5 -20.5v4h2v4l-10 10q-6 8 -11 28.5t-7 29.5q0 4 1 13t3 26q2 12 3 20t1 12q0 14 12 58q2 8 4 8t4 2q4 4 14.5 12t18.5 21l8 12l7 12l10 13l6 12q2 4 6 10t8 14q16 27 17 39v8q0 29 -35 46q-16 4 -21 4h-8 q-12 0 -14 -2l-10 -11l-13 -8q-6 -4 -11 -21.5t-5 -37.5q0 -29 14 -41h2q2 0 2 4v6v10q0 12 7 35l6 14q0 6 16 7q16 0 25 -17q4 -8 4 -14q0 -4 -4 -21q-2 -6 -10.5 -20t-17.5 -29.5t-17.5 -29t-10.5 -17.5l-14 2q-10 0 -21.5 12.5t-18.5 23.5t-7 13v-20zM2007 616l2 -12 l2 -14l2 -15q0 -23 27 -61q6 -10 8 -10l10 -8l8 -11q14 -14 33 -24l12 -6l11 -15q4 -2 12 -3t25 -5q74 -29 92 -47q23 -23 35 -34t14 -15q14 -16 14 -39q-6 -31 -18 -35h-4q-10 0 -24.5 6t-20.5 11q-2 0 2 -12.5t14 -22.5q12 -12 27.5 -17.5t29.5 -5.5q12 0 16.5 2t12.5 7.5 t10 7.5q4 4 4 41q0 25 -30 61q10 -2 26 -25l6 -12l11 -8q8 -6 8 -29l-2 -26l-2 -13l-2 -14q0 -10 -8 -27l-11 -10l-6 -10q-12 -14 -20 -21h-2q-10 0 -20.5 7.5t-10.5 17.5q0 6 2 8l-45 -18q-8 -4 -8 -19v-6q0 -47 65 -47q2 0 19.5 -1t27.5 -1h6l64 72l6 151l-268 140 q-25 8 -37 12l-12 4q-14 6 -31.5 23.5t-20.5 21.5q4 8 11 8q2 0 18 -8q74 -45 107 -53q33 -6 52 -10.5t25 -4.5q37 -4 58 -4q20 0 24 -2q41 -6 41 -26q-4 -2 -12 -2q-16 0 -39 8l-12 6q-6 0 -10 -2q12 -18 65 -45l12 -6q27 27 39 32l13 5q4 4 6 8q-12 14 -29 26l-31 25 l-14 -2h-12l-15 -2h-14l-12 -2h-15q-59 2 -104 10t-55 14q-68 33 -74 56q10 0 25 -9q16 -8 34 -14l385 16h2q4 0 9 5q-10 4 -39 6q-27 2 -27 24q20 23 57 29q23 4 39.5 6t26.5 2h12q49 4 87 6t63 2h24q14 -2 27 -2h23q23 0 37 1t22 1h14q70 0 78 -18q-6 -6 -27.5 -7 t-54.5 -1l4 12l-106 -29h188q10 4 16.5 5t8.5 4q4 4 4 12t-2 14q-8 12 -31 19h-330v18l396 -2l73 78l-73 76l-396 -2v20h330q12 4 19.5 6t11.5 12q2 4 2 13q0 8 -4 12q-4 2 -25 10l-188 -2l106 -26l-4 12q33 0 53.5 -1t26.5 -7q-10 -20 -90 -21q-10 0 -29.5 1t-48.5 1h-31 q-8 -2 -30 -2q-25 0 -61 2t-83 6l-3 1t-9 1q-27 0 -66 9q-41 6 -57 28q0 18 27 23q16 2 25.5 4t13.5 4q-8 4 -11 4l-385 14q-8 -2 -16 -6t-18 -8q-12 -6 -21 -6h-4q6 20 74 55q10 4 55 13.5t104 9.5h15h12h14l15 -2h12l14 -2l8 6q7 6 23 16q10 8 17.5 14.5t11.5 14.5 q-4 6 -6 6l-13 6q-6 2 -15 10.5t-24 20.5q-8 -4 -12 -4q-51 -27 -65 -47h8h2l12 4q27 10 37 10q6 0 14 -4q0 -20 -41 -27l-82 -4q-8 0 -77 -16q-18 -4 -45 -16.5t-62 -34.5q-10 -8 -18 -9q-8 0 -11 9q2 4 19.5 20.5t32.5 22.5l49 18l268 137l-6 154l-64 72l-53 -2 q-66 0 -65 -48v-8q0 -14 8 -18l45 -17q-2 2 -2 9q0 10 10 17t23 7q8 -6 20 -20l6 -13l11 -10q8 -12 10 -24v-15l2 -14l2 -27q0 -20 -8 -26l-11 -11l-6 -10q-16 -23 -26 -24q31 33 30 59q0 37 -4 43q-2 2 -10 6l-12 6q-12 4 -19 4q-29 0 -55 -22q-10 -10 -14 -23.5t-2 -11.5 q4 4 18 10t25 6q6 0 8 -2q10 -2 16 -34q0 -23 -14 -37q-4 -6 -49 -49q-23 -23 -92 -48q-16 -6 -24.5 -9t-12.5 -7l-11 -8l-12 -6q-18 -8 -33 -23l-8 -10l-10 -8q-2 -2 -3 -4t-5 -6q-27 -43 -27 -64l-2 -12q0 -4 -1 -7t-1 -8l-2 -14l2 -12v-15q0 -14 12 -40q10 -25 27 -27 q4 4 4 6q-14 18 -20 53v15l2 2q8 -31 28 -47l4 12l-2 14q0 6 2 12q2 -16 19 -36q6 8 10 22l4 12l8 9v-19q0 -18 4 -22l13 -9q2 0 3 -2t5 -4q4 2 9 5.5t13 7.5q27 16 35 16q6 -4 11 -8l12 -8l8 -11q6 -8 10 -12l8 -8l19 2l22 -2l-98 78l12 4l103 -66q6 -6 16 -6h6q2 2 6 8 l-49 49l-118 62h4q16 0 48 -17.5t60 -31.5q4 -2 13.5 -10.5t18.5 -17.5l16 -16l7 -7q8 -8 25 -9l21 2q14 2 25 13.5t18 25.5q61 -6 94 -22q20 -10 37 -10h18q10 0 23 2h67l37 -2q18 0 31 4l-162 8l-219 121h-4t-11 -2l-24 -2q-8 0 -17.5 1t-23.5 1q-18 0 -44 -1t-67 -6 l-20 -2q-10 0 -14 5q43 25 102 24h49q35 0 67.5 -1t49.5 -7l174 -123l360 -6h64l4 -2l-8 -4h-35l-6 -6l-72 -9l72 -14l-88 -14l88 -10l-72 -17l72 -6l6 -8h35h6l-4 -4h-62l-360 -8l-174 -123q-16 -4 -46 -5.5t-63 -1.5h-57h-12q-49 0 -90 23q4 4 14 4l20 -2q41 -4 67 -5 t44 -1q14 0 23.5 1t17.5 1l24 -2h15l219 119l162 8q-16 4 -43 4h-25q-10 -2 -18 -2h-19q-20 0 -30 2l-43 2q-8 -2 -16.5 -4t-18.5 -6q-16 -8 -41 -14.5t-53 -10.5q-8 14 -18.5 25.5t-24.5 13.5q-8 2 -21 2q-16 0 -25 -8l-7 -7t-16 -16.5t-18.5 -17.5t-13.5 -10 q-31 -14 -61.5 -31.5t-46.5 -17.5h-4l118 61l47 51q0 6 -4 8h-6q-10 0 -16 -8l-103 -65l-12 2l98 80q-8 -2 -22 -2q-12 0 -19 2q-6 -4 -18 -19l-8 -12l-12 -8q-4 -4 -11 -8q-4 2 -13 5t-22 11q-18 12 -22 14q-4 -4 -6 -5t-4 -3l-11 -6q-4 -4 -4 -25v-16q-8 4 -8 6l-4 14 q-4 10 -10 21q-16 -18 -19 -37q-2 6 -2 14v15v2q0 6 -2 8q-18 -12 -28 -45h-2v2v14q6 29 18 52v2q0 4 -2 6q-16 -6 -27 -29q-12 -25 -12 -39v-14zM2013 193q10 -6 39 -11.5t45 -5.5q4 0 6 1l2 1l68 62l4 16q2 10 3 18.5t1 18.5q0 47 -29 76q-12 14 -23 30.5t-26 20.5l8 -14 q33 -39 33 -82v-13l-2 -28q-4 -29 -39 -45q-12 -6 -16 -7q-4 0 -4 7v10q0 6 1 11t1 9q0 10 -2 9t-2 2l1 1q1 1 1 3l-70 -66v-24zM2013 1214l70 -65q0 2 -1 3l-1 1q0 2 2 1t2 9q0 4 -1 9.5t-1 11.5v10q0 6 4 6t16 -6q35 -16 39 -45l2 -31v-12q0 -41 -33 -80l-8 -14 q14 4 25.5 20.5t23.5 28.5q29 35 29 78q0 10 -1 18.5t-3 18.5l-4 16l-68 61h-6q-14 0 -44 -5t-42 -9v-25zM2066 690h5q4 0 18 11.5t16 13.5h2h-2q-2 4 -16 14t-18 12q-4 0 -5 -2v-24v-25zM2138 715l45 -33l41 33l-41 35zM2161 418l88 -62l26 -47l-30 2l-50 37 q2 -12 16.5 -28.5t22.5 -18.5l31 -12h8q8 0 16.5 1t8.5 7v2q0 16 -11.5 33.5t-15.5 17.5l-82 64zM2161 1014l28 6l82 61q4 2 15.5 18.5t11.5 33.5v2q0 8 -15.5 9t-17.5 1l-31 -15q-8 -2 -22 -18t-17 -27l50 35l30 2l-26 -47zM2175 575v3h4q2 0 43 18l24 9l9 3l10 -2 q20 -4 23 -4q4 0 14 3t22.5 9.5t22.5 13.5t12 17h-16q-18 0 -25 6l-1 1t1 1q0 10 9.5 15.5t21.5 5.5q14 0 26.5 -5t16.5 -16l2 -8q0 -20 -20.5 -46t-38.5 -26zM2175 854v2l160 2q18 0 38.5 -25.5t20.5 -46.5l-2 -8q-4 -10 -16.5 -15t-26.5 -5q-12 0 -21.5 5t-9.5 15 q-2 0 -1 1l1 1q6 6 25 6h16q-2 8 -12 15.5t-22.5 13.5t-22.5 10t-14 4q-2 0 -23 -4l-10 -2l-33 13q-41 18 -43 18h-4zM2251 489l190 -8q20 -8 66 -59l20 -21l4 -41v-4t-4 -10q-6 -20 -14 -29h-4q-10 8 -15 23q0 4 -1 6t-1 4l2 4q0 2 -8 -4l-16 -12q-2 -10 -2 -21v-18 q0 -20 3 -36.5t7 -20.5q10 -10 27 -11q14 0 32.5 10.5t40.5 39.5q15 16 15 67q-4 14 -6 37l-9 29q-2 6 -30 28q-57 45 -86 45l-27 9h-178zM2251 942l6 -4h178l27 6q33 4 86 45q27 20 30 29l9 31q4 24 6 34q0 51 -15 68q-23 29 -40 39t-33 10t-27 -10q-4 -4 -7 -20.5 t-3 -36.5v-21q0 -8 2 -18q8 -4 16 -10l8 -7l-1 2t-1 4t1 3t1 6q4 14 15 22h4q8 -8 14 -27q4 -10 4 -16l-4 -41l-20 -20q-49 -53 -66 -60zM2365 696q4 -6 26 -10t46 -4q16 0 31.5 2t25.5 6q8 4 11.5 9.5t13.5 7.5l123 2l35 8h2l-37 8l-123 2q-10 2 -13 6t-12 8q-16 8 -55 9 q-25 0 -47 -4.5t-27 -10.5q-2 -4 9.5 -5t23.5 -1q6 0 11.5 1t7.5 1q6 2 16 2q14 0 25.5 -5t21.5 -11q-10 -6 -20.5 -11.5t-22.5 -5.5q-8 0 -20 5h-11q-8 0 -17 -1.5t-16.5 -3.5t-7.5 -4zM2628 541q0 -8 16 -11l123 -6l63 -30q8 -4 9 -21q0 -20 -19 -29l-80 -18h101 q14 2 23 14.5t9 18.5v2l-18 45l-80 31l-117 14l19 18q-4 4 -11 4q-10 0 -21 -8t-13 -12zM2630 891q0 -4 4 -12q2 -4 13 -12.5t22 -8.5q6 0 10 4l-21 19l117 12l82 31l16 47v2q0 6 -8 18.5t-24 14.5l-99 -2l80 -17q16 -8 17 -29q0 -16 -9 -20l-61 -31l-125 -6q-14 -2 -14 -10 zM3000 717l33 18l14 -18l-14 -19zM3002 659v11h50l38 41l-32 -52h-56zM3002 762v10h56l32 -49l-38 39h-50z" />
<glyph unicode="&#x205f;" horiz-adv-x="507" />
<glyph unicode="&#x2122;" horiz-adv-x="837" d="M70 1344q10 20 24 29q5 3 12.5 4.5t16.5 1.5h23v-433v-23t-2 -15q-4 -11 -17 -25h101q-11 13 -17 28q-2 10 -2 40v428h24q34 0 52 -35v90h-215v-90zM310 797q18 3 34 17q4 4 11 13t18 23q19 25 44 33q-4 10 -6.5 15l-3.5 7q-3 12 -4 28v396q0 25 2 34q4 6 8 10t11 4 q13 0 17 -15q2 -7 2.5 -15.5t0.5 -21.5v-341q0 -10 -0.5 -18t-2.5 -12q-2 -10 -14 -19q21 -17 29 -29q11 -14 20 -46q6 16 11.5 27.5t9.5 18.5q4 6 11 13t19 18q-7 6 -10.5 11t-5.5 9q-2 6 -3.5 13t-1.5 18v340q0 11 0.5 20.5t2.5 14.5q5 14 18 14q12 0 16 -15q2 -7 3 -15.5 t1 -21.5v-384q0 -23 -2.5 -32.5t-12.5 -25.5h96q-12 16 -13 26q-5 12 -5 36v421q0 28 5 40q3 11 17 28h-134l-27 -35l-26 35h-129q16 -19 19 -31q3 -3 3.5 -14.5t0.5 -29.5v-431q0 -23 -2 -41t-3 -30q-3 -14 -9 -29t-15 -31z" />
<glyph unicode="&#x25fc;" horiz-adv-x="1167" d="M0 0v1167h1167v-1167h-1167z" />
</font>
</defs>
</svg>
